<?xml version="1.0" encoding="UTF-8"?>
<svg xmlns="http://www.w3.org/2000/svg" version="1.1" viewBox="0 0 139.8 68.6">
  <defs>
    <style>
      .cls-1 {
        fill: #221e1f;
      }

      .cls-2 {
        fill: none;
        stroke: #221e1f;
        stroke-miterlimit: 10;
        stroke-width: .8px;
      }
    </style>
  </defs>
  <!-- Generator: Adobe Illustrator 28.7.10, SVG Export Plug-In . SVG Version: 1.2.0 Build 236)  -->
  <g>
    <g id="_레이어_1" data-name="레이어_1">
      <g>
        <path class="cls-1" d="M139.8,25.3c-.2-.4-.3-3.1-.3-3.6V6.1c0-.5.2-3.1.3-3.6h0c0-.2,0-.3-.2-.3h-4.6c-.2,0-.3,0-.2.2h0c.2.5.3,3.1.3,3.7v15.6c0,.5-.2,3.1-.3,3.6h0c0,.2,0,.3.2.3h4.6c.2,0,.3,0,.2-.3h0Z"/>
        <path class="cls-1" d="M52.3,2.3h-2.1c-.2,0-.3,0-.3.3v18.7c0,1.3-.3.2-.3,0-1.6-2.1-2.9-4-5.2-7.3-4.2-5.9-7.1-10.7-7.6-11.5,0,0-.2-.2-.3-.2h-4q-.2,0-.2.3c.3.7.3,1.2.4,3.1v8.7c0,6.2,0,10-.2,11.1,0,.2,0,.3.3.3h1.7c.2,0,.3,0,.3-.3V8.6c0-1.3.3-.2.3,0,1.6,2,3.8,5.2,5.9,8.5,4.4,6.5,5.3,7.9,5.9,8.7,0,0,.2.2.3.2h4.5c.2,0,.3,0,.3-.3,0-1.1-.2-5.7-.2-11.1V6.5c0-1.9.2-3.1.3-3.6h0c.3-.3.2-.4,0-.4"/>
        <path class="cls-1" d="M108.1,2.3h-2.1c-.2,0-.3,0-.3.3v18.7c0,1.3-.3.2-.3,0-1.6-2.1-2.9-4-5.2-7.3-4.2-5.9-7.1-10.7-7.6-11.5,0,0-.2-.2-.3-.2h-4q-.2,0-.2.3c.3.7.3,1.2.4,3.1v8.7c0,6.2,0,10-.2,11.1,0,.2,0,.3.3.3h1.7c.2,0,.3,0,.3-.3V8.6c0-1.3.3-.2.3,0,1.6,2,3.8,5.2,5.9,8.5,4.4,6.5,5.3,7.9,5.9,8.7,0,0,.2.2.3.2h4.5c.2,0,.3,0,.3-.3,0-1.1-.2-5.7-.2-11.1V6.5c0-1.9.2-3.1.3-3.6h0c.3-.3.2-.4,0-.4"/>
        <path class="cls-1" d="M130.3,2.5c0-.2-.3-.3-.6-.3h-16.4c-.3,0-.5,0-.6.3l-1,1.3s0,.3.2.3c.8,0,1.1-.2,5.7-.2h1.4c.2,0,.3,0,.3.3,0,1,.2,6,.2,11v6.6c0,.5-.2,3.1-.3,3.6h0c0,.2,0,.3.2.3h4.5c.2,0,.3,0,.2-.2h0c-.2-.5-.3-3.2-.3-3.7v-6.6c0-5.1,0-10.1.2-11,0,0,.2-.3.3-.3h1.7q4.5,0,5.2.2c.2,0,.3,0,.2-.3l-.9-1.3h-.2Z"/>
        <path class="cls-1" d="M72.7,12.1h-6.8c-.3,0-.3-.2-.3-.3,1.4-2.5,2.5-4.8,3.5-6.5h.3c.9,1.6,2.1,3.9,3.5,6.5,0,.2,0,.3-.3.3M85.8,25.4c0-.2-1.5-1.7-4.8-7.4-2.8-4.8-7.7-14.3-8-15.2h0v-.2c0-.2-.3-.3-.4-.3h-4.6q-.2,0-.2.3c0,.3-.3,1.3-.7,1.8-1,1.9-6,11.2-6.4,11.9-3.5,6.2-5.6,8.7-5.8,9.1,0,0,0,.2.2.2h2.9c.2,0,.4,0,.5-.3.5-1.1,2.9-5.6,5.9-11.2.2-.2.3-.3.7-.4h8.6c.3,0,.5,0,.7.3,3,5.6,5.3,10.1,5.9,11.2,0,.2.3.3.5.3h5.1c0,.2,0,0,0,0"/>
        <path class="cls-1" d="M17.1,12.1h-6.6c-.2,0-.3-.2-.3-.3,1.4-2.5,2.5-4.7,3.5-6.4h.3c.9,1.7,1.8,3.6,3.3,6.4,0,.2,0,.3-.3.3M30.1,25.4h0c-.3-.7-4.3-6.8-8-13.9-2-3.8-3.6-6.6-5.4-11.2,0-.2-.2-.3-.4-.3h-6.7s-.2,0-.2.2h0v.5s0,.2.2.2c.6,0,1.1,0,1.7.3.5.3.9.6,1.2,1,0,.2.3.3.3.6v.6c-1,2.2-6.6,12.2-7,12.9C2.3,22.5.2,25,0,25.4c0,0,0,.2.2.2h2.9c.2,0,.4,0,.5-.3.5-1.1,2.9-5.6,5.9-11.2.2-.2.3-.3.7-.4h8.3c.3,0,.5.2.7.4.4.8,2.8,5.2,3.7,6.8,1.3,2.5,1.9,3.8,2.3,4.4,0,.2.3.3.5.3h4.7c-.2,0,0-.2,0-.3"/>
      </g>
      <g>
        <path class="cls-1" d="M12.1,44.3c-6.7,0-12.1,5.4-12.1,12.1s5.4,12.1,12.1,12.1,12.1-5.4,12.1-12.1-5.4-12.1-12.1-12.1ZM12.1,50.3c-.6-.6-.8-1.4-.6-2,0-.4.3-.6.6-.6h.1c.3,0,.5.2.6.6.2.6,0,1.3-.6,2ZM3.3,50.6c.6.8,3.1,2.3,5.7,2.2h0s0,0,0,0c-.5-.4-1-.7-1.7-1.1-.1,0-.3,0-.4-.1-1.3-.4-2.1-.9-2.4-1.2.4,0,1.5.3,2.9.9.3.1.5.3.8.4.5.3.9.6,1.3,1h0s0,0,0,0c.6.6,1,1.3,1.2,2,.1.4.2.8.2,1.3-1,.5-2,1.6-2.9,3.1-.7,1.3-1.4,2.8-1.8,4.2-.4,1.5-.4,2.1-.1,2.4-3.1-2-5.1-5.4-5.1-9.3s.8-4.7,2.1-6.5c0,.2,0,.4.2.6ZM7.4,65.7c1.3-1,4.1-5,4.4-8.7h0s0,0,0,0c-.3.1-.7.3-1,.6h0s0,0,0,0c-.3,1.9-1.3,3.7-1.8,4.6-.8,1.4-1.7,2.3-2.1,2.7,0-1,1-4,2.6-6.2.5-.7.9-1.2,1.4-1.6h0s0,0,0,0c.3-.2.6-.4.9-.5h0s0,0,.1,0h0c0,0,.1,0,.2,0,.1,0,.3,0,.4,0,.3,4,3,8.1,4.4,9.1.2.2.5.2.7.2s0,0,.1,0c-1.7,1-3.6,1.5-5.6,1.5s-4-.6-5.6-1.5c.3,0,.6,0,.9-.3ZM18.1,65.8c.2-.3.3-.9-.1-2.4-.7-2.5-2.3-5.7-4.2-7h0s0,0,0,0c0,.4,0,.9.2,1.3h0s0,0,0,0c.3.3.6.7.9,1.1,1.6,2.2,2.5,5.2,2.6,6.2-.6-.5-1.6-1.7-2.4-3.5-.4-.8-1-2.1-1.3-3.5-.2-.7-.2-1.5-.2-2.1,0-.4,0-.8.1-1.2.1-.6.4-1.2.9-1.7h0s0,0,0,0c-.3,0-.7-.2-.9-.3h0s0,0,0,0c-.4.6-.7,1.2-.8,1.8,0,.4-.1.8-.1,1.2-.1,0-.2,0-.3,0h-.1s0,0,0,0h0c0,0-.2,0-.2,0,0-.4-.1-.9-.2-1.3-.2-.7-.6-1.4-1.1-2,.3-.1.6-.2.9-.4.3-.2.5-.4.8-.5h0s0,0,0,0c.2-.2.5-.4.7-.6h0s0,0,0,0c.8-.9,1.1-1.9.9-2.8-.2-.8-.8-1.3-1.5-1.3h-.1c-.7,0-1.3.5-1.5,1.3-.3.9,0,2,.9,2.8-.2.1-.4.3-.6.4-.3.2-.7.4-1.2.4-1.1-.9-2.6-1.7-4.2-2.1-1-.3-1.7-.3-2.1,0,2-2.6,5.2-4.2,8.7-4.2s6.7,1.7,8.7,4.3c-.7-.4-2.3,0-2.8.2-.7.2-2.3.8-3.7,1.9-.4,0-.7-.2-1-.4-.1,0-.2-.1-.3-.2h0s0,0,0,0c-.2.2-.4.4-.7.6h0s0,0,0,0c.2.1.3.2.5.3.2.1.5.2.7.3.3.1.7.2,1.1.3h0s0,0,0,0c.3,0,.5,0,.8,0,2.4,0,4.8-1.4,5.4-2.2.2-.3.2-.5.2-.7,1.3,1.8,2.1,4.1,2.1,6.5,0,3.9-2,7.4-5.1,9.4ZM19.9,50.4c-.5.4-1.3.8-2.3,1.2-.6.2-1.2.3-1.7.3.2-.1.4-.2.5-.3,1.4-.8,2.9-1.1,3.5-1.2Z"/>
        <g>
          <path class="cls-1" d="M90.1,52.2l-3.7,8.5h1.5l.9-2h4l.9,2h1.6l-3.7-8.5h-1.4ZM89.4,57.3l1.4-3.4,1.5,3.4h-2.9Z"/>
          <polygon class="cls-1" points="98.4 52.2 97 52.2 97 60.6 102.9 60.6 102.9 59.3 98.4 59.3 98.4 52.2"/>
          <path class="cls-1" d="M107.9,52.2l-3.7,8.5h1.5l.9-2h4l.9,2h1.6l-3.7-8.5h-1.4ZM107.1,57.3l1.4-3.4,1.5,3.4h-2.9Z"/>
          <polygon class="cls-1" points="120.4 58 115.9 52.2 114.5 52.2 114.5 60.6 116 60.6 116 54.6 120.6 60.6 121.9 60.6 121.9 52.2 120.4 52.2 120.4 58"/>
          <path class="cls-1" d="M129.5,59.1c-.4.2-.8.3-1.3.3s-.8,0-1.1-.2c-.3-.2-.6-.4-.9-.6-.2-.3-.4-.6-.6-1-.1-.4-.2-.8-.2-1.2s0-.8.2-1.2c.1-.4.3-.7.6-.9.2-.3.5-.5.9-.6.3-.2.7-.2,1.1-.2s.9,0,1.3.3c.4.2.7.4,1.1.8l1-1.1c-.2-.2-.4-.4-.6-.5-.2-.2-.5-.3-.7-.4-.3-.1-.6-.2-.9-.3-.3,0-.7,0-1.1,0-.6,0-1.2.1-1.8.3-.5.2-1,.5-1.4.9-.4.4-.7.9-.9,1.4-.2.5-.3,1.1-.3,1.7s.1,1.2.3,1.7c.2.5.5,1,.9,1.4.4.4.8.7,1.4.9.5.2,1.1.3,1.7.3s.8,0,1.1-.1c.3,0,.6-.2.9-.3.3-.1.5-.3.8-.5.2-.2.5-.4.7-.6l-1-1c-.4.3-.7.6-1.1.8Z"/>
          <polygon class="cls-1" points="135 59.3 135 57 139.2 57 139.2 55.7 135 55.7 135 53.5 139.8 53.5 139.8 52.2 133.5 52.2 133.5 60.6 139.8 60.6 139.8 59.3 135 59.3"/>
          <polygon class="cls-1" points="78.3 60.6 79.8 60.6 79.8 59.3 79.8 57 79.8 55.8 79.8 53.5 79.8 52.2 78.3 52.2 78.3 60.6"/>
          <path class="cls-1" d="M44.5,57.1c0,.8-.2,1.4-.6,1.8-.4.4-.9.6-1.6.6s-1.2-.2-1.6-.6c-.4-.4-.6-1-.6-1.8v-4.8h-1.5v4.8c0,.6,0,1.1.3,1.6.2.5.4.8.7,1.2.3.3.7.5,1.1.7.4.2.9.2,1.5.2s1.1,0,1.5-.2.8-.4,1.1-.7c.3-.3.6-.7.7-1.2.2-.5.3-1,.3-1.6v-4.8h-1.5v4.8Z"/>
          <polygon class="cls-1" points="52.3 56.2 49.7 52.2 48.1 52.2 48.1 60.6 49.6 60.6 49.6 54.6 52.2 58.6 52.3 58.6 54.9 54.6 54.9 60.6 56.4 60.6 56.4 52.2 54.8 52.2 52.3 56.2"/>
          <path class="cls-1" d="M61.9,52.2l-3.7,8.5h1.5l.9-2h4l.9,2h1.6l-3.7-8.5h-1.4ZM61.1,57.3l1.4-3.4,1.5,3.4h-2.9Z"/>
          <polygon class="cls-1" points="74.3 58 69.8 52.2 68.4 52.2 68.4 60.6 69.8 60.6 69.8 54.6 74.5 60.6 75.7 60.6 75.7 52.2 74.3 52.2 74.3 58"/>
          <polygon class="cls-1" points="34.9 55.7 34.9 55.7 31.6 55.7 31.6 57.1 34.9 57.1 34.9 57.1 34.9 60.6 36.4 60.6 36.4 52.2 34.9 52.2 34.9 55.7"/>
          <polygon class="cls-1" points="29.4 60.6 30.9 60.6 30.9 58.9 30.9 58.9 30.9 54.6 30.9 54.6 30.9 52.2 29.4 52.2 29.4 60.6"/>
          <path class="cls-1" d="M85.1,57.1c-.2-.3-.4-.6-.7-.8-.3-.2-.6-.4-1-.5-.4-.1-.8-.2-1.2-.2h-1.8v1.3h1.8c.5,0,1,.1,1.2.3.3.2.4.4.4.8,0,.3-.1.6-.4.8-.3.2-.7.3-1.2.3h-1.8v1.3h1.8c.4,0,.9,0,1.2-.2.4-.1.7-.3,1-.5.3-.2.5-.5.7-.8.2-.3.2-.7.2-1h0c0-.4,0-.8-.2-1.1h0Z"/>
          <path class="cls-1" d="M83.1,53.8h0c.2.2.3.4.3.7s0,.5-.2.6c0,0,.1,0,.2,0,.4.1.7.3,1,.5,0,0,0,0,0,0,.1-.2.2-.3.3-.5,0-.2.1-.5.1-.8s0-.7-.2-.9c-.1-.3-.3-.5-.6-.7-.2-.2-.5-.3-.9-.4-.3-.1-.7-.2-1.1-.2h-1.6v1.3h1.6c.5,0,.9,0,1.1.3Z"/>
        </g>
      </g>
      <g>
        <line class="cls-2" x1="73.4" y1="34.9" x2="66.5" y2="41.8"/>
        <line class="cls-2" x1="73.4" y1="41.8" x2="66.5" y2="34.9"/>
      </g>
    </g>
  </g>
</svg>