<?xml version="1.0" encoding="utf-8"?>
<!-- Generator: Adobe Illustrator 28.7.10, SVG Export Plug-In . SVG Version: 9.03 Build 57640)  -->
<svg version="1.0" id="레이어_1" xmlns="http://www.w3.org/2000/svg" xmlns:xlink="http://www.w3.org/1999/xlink" x="0px"
	 y="0px" viewBox="0 0 304.2 54" style="enable-background:new 0 0 304.2 54;" xml:space="preserve">
<g transform="matrix(1.8413 0 0 -1.8413 -315.692 352.187)">
	<g>
		<path d="M334.2,162.3c-0.2,0.5-0.4,3.5-0.4,4.1c0,2.9-0.1,14.6,0,17.8c0,0.6,0.2,3.6,0.4,4.1l0,0.1c0,0.1-0.1,0.2-0.2,0.2h-0.4v0
			l0,0h-4.9c-0.2,0-0.3-0.1-0.2-0.2l0-0.1c0.2-0.5,0.4-3.5,0.4-4.1c0.1-3.2,0.1-14.9,0-17.8c0-0.6-0.2-3.6-0.4-4.1l0-0.1
			c0-0.1,0.1-0.2,0.2-0.2h4.9l0,0v0h0.4C334.2,161.9,334.3,162.1,334.2,162.3L334.2,162.3z"/>
	</g>
	<g>
		<path d="M234.1,188.6h-0.4l0,0l0,0h-2c-0.2,0-0.4-0.1-0.3-0.3c0.1-1.2,0.1-5.6,0.1-11c0-5-0.1-8.9-0.1-10.4c0-0.2-0.3-0.2-0.4-0.1
			c-1.8,2.4-3.3,4.6-6,8.4c-4.8,6.8-8.1,12.2-8.7,13.2c-0.1,0.1-0.2,0.2-0.3,0.2h-4.6c-0.2,0-0.2-0.1-0.2-0.3
			c0.3-0.8,0.4-1.4,0.5-3.6c0.1-1.1,0.1-2.9,0.1-9.9c0-6.2-0.1-11.4-0.2-12.7c0-0.2,0.1-0.3,0.3-0.3h2c0.2,0,0.4,0.1,0.3,0.3
			c-0.1,1.2-0.1,5.7-0.1,11c0,5,0.1,6.9,0.1,8.4c0,0.2,0.3,0.2,0.4,0.1c1.8-2.3,4.3-6,6.8-9.7c5-7.4,6.1-9,6.7-10
			c0.1-0.1,0.2-0.2,0.3-0.2h5.2c0.2,0,0.4,0.1,0.3,0.3c-0.1,1.3-0.2,6.5-0.2,12.7c0,3.4,0,6.7,0.1,9.3c0.1,2.2,0.2,3.6,0.3,4.1
			l0,0.1C234.4,188.5,234.3,188.6,234.1,188.6"/>
	</g>
	<g>
		<path d="M298,188.6h-0.4v0l0,0h-2c-0.2,0-0.4-0.1-0.3-0.3c0.1-1.2,0.1-5.6,0.1-11c0-5-0.1-8.9-0.1-10.4c0-0.2-0.3-0.2-0.4-0.1
			c-1.8,2.4-3.3,4.6-6,8.4c-4.8,6.8-8.1,12.2-8.7,13.2c-0.1,0.1-0.2,0.2-0.3,0.2h-4.6c-0.2,0-0.2-0.1-0.2-0.3
			c0.3-0.8,0.4-1.4,0.5-3.6c0.1-1.1,0-2.9,0-9.9c0-6.2-0.1-11.4-0.2-12.7c0-0.2,0.1-0.3,0.3-0.3h2c0.2,0,0.4,0.1,0.3,0.3
			c-0.1,1.2-0.1,5.7-0.1,11c0,5,0.1,6.9,0.1,8.4c0,0.2,0.3,0.2,0.4,0.1c1.8-2.3,4.3-6,6.8-9.7c5-7.4,6.1-9,6.7-10
			c0.1-0.1,0.2-0.2,0.3-0.2h5.2c0.2,0,0.4,0.1,0.3,0.3c-0.1,1.3-0.2,6.5-0.2,12.7c0,3.4,0,6.7,0.1,9.3c0.1,2.2,0.2,3.6,0.3,4.1
			l0,0.1C298.2,188.5,298.1,188.6,298,188.6"/>
	</g>
	<g>
		<path d="M323.4,188.4c-0.1,0.2-0.4,0.3-0.7,0.3l-2.3,0c-1.5,0-4,0-7.1,0s-5.6,0-7.1,0l-2.3,0c-0.3,0-0.6-0.1-0.7-0.3l-1.1-1.5
			c-0.1-0.1,0.1-0.3,0.2-0.3c0.9,0.1,1.3,0.2,6.5,0.2l1.6,0c0.2,0,0.3-0.1,0.3-0.3c0.1-1.1,0.2-6.9,0.2-12.6c0-2.8,0-5.5,0-7.5
			c0-0.6-0.2-3.6-0.4-4.1l0-0.1c0-0.1,0.1-0.2,0.2-0.2h5.2c0.2,0,0.3,0.1,0.2,0.2l0,0.1c-0.2,0.5-0.3,3.6-0.4,4.1c0,2.1,0,4.7,0,7.5
			c0,5.8,0.1,11.5,0.2,12.6c0,0.1,0.2,0.3,0.3,0.3l2,0c5.1,0,5.1-0.1,6-0.2c0.2,0,0.3,0.1,0.2,0.3L323.4,188.4z"/>
	</g>
	<g>
		<path d="M257.4,177.4c-0.8,0-2.4,0-3.8,0c-1.7,0-3,0-4,0c-0.3,0-0.4,0.2-0.3,0.4c1.6,2.9,2.9,5.5,4,7.4c0.1,0.1,0.3,0.1,0.4,0
			c1-1.8,2.4-4.5,4-7.4C257.8,177.6,257.6,177.4,257.4,177.4 M272.5,162.2c0,0.2-1.7,2-5.5,8.5c-3.2,5.5-8.8,16.4-9.2,17.4l0,0
			c0,0,0,0.1,0,0.1c0,0,0,0.1,0,0.1c-0.1,0.2-0.3,0.3-0.5,0.3h-5.3c-0.2,0-0.2-0.1-0.2-0.3c0.1-0.4-0.4-1.5-0.8-2.1
			c-1.1-2.2-6.9-12.8-7.3-13.6c-4-7.1-6.4-10-6.6-10.4c-0.1-0.1,0.1-0.2,0.2-0.2h3.3c0.2,0,0.5,0.1,0.6,0.3
			c0.6,1.3,3.3,6.4,6.7,12.8c0.2,0.2,0.4,0.4,0.8,0.5c0.9,0,2.4,0.1,5,0.1c2.5,0,3.9,0,4.8-0.1c0.3,0,0.6-0.1,0.8-0.4
			c3.4-6.4,6.1-11.6,6.7-12.8c0.1-0.2,0.3-0.3,0.6-0.3h0.6v0h5.2C272.4,161.9,272.5,162.1,272.5,162.2"/>
	</g>
	<g>
		<path d="M193.9,177.4c-0.8,0-2.1,0-3.5,0c-1.3,0-2.6,0-4,0c-0.2,0-0.4,0.2-0.3,0.4c1.6,2.9,2.9,5.4,4,7.3c0.1,0.1,0.2,0.1,0.3,0.1
			c0,0,0.1,0,0.1-0.1c1-1.9,2.1-4.1,3.8-7.3C194.3,177.6,194.2,177.4,193.9,177.4 M208.7,162.2C208.7,162.2,208.6,162.2,208.7,162.2
			c-0.4,0.8-4.9,7.8-9.2,15.9c-2.3,4.4-4.1,7.6-6.2,12.8c-0.1,0.2-0.2,0.4-0.5,0.4h0l-7.7,0c-0.1,0-0.2-0.1-0.2-0.2c0,0,0,0,0,0
			v-0.6c0-0.1,0.1-0.2,0.2-0.2c0.7,0,1.3-0.1,2-0.4c0.6-0.3,1-0.7,1.4-1.2c0.1-0.2,0.3-0.4,0.3-0.7c0.1-0.2,0-0.5-0.1-0.7
			c-1.2-2.5-7.6-14-8-14.8c-4-7.1-6.4-10-6.6-10.4c-0.1-0.1,0.1-0.2,0.2-0.2l3.3,0c0.2,0,0.5,0.1,0.6,0.3c0.6,1.3,3.3,6.4,6.7,12.8
			c0.2,0.2,0.4,0.4,0.8,0.5c0.9,0,2.4,0.1,5,0.1c2.5,0,3.5,0,4.5-0.1c0.4,0,0.6-0.2,0.8-0.5c0.5-0.9,3.2-5.9,4.2-7.8
			c1.5-2.9,2.2-4.3,2.6-5c0.1-0.2,0.3-0.3,0.6-0.3l5.4,0C208.6,161.9,208.7,162.1,208.7,162.2"/>
	</g>
</g>
</svg>
