<?xml version="1.0" encoding="UTF-8"?>
<svg xmlns="http://www.w3.org/2000/svg" version="1.1" viewBox="0 0 447.2 54">
  <defs>
    <style>
      .cls-1 {
        fill: #221e1f;
      }
    </style>
  </defs>
  <!-- Generator: Adobe Illustrator 28.7.10, SVG Export Plug-In . SVG Version: 1.2.0 Build 236)  -->
  <g>
    <g id="_레이어_1" data-name="레이어_1">
      <g>
        <g>
          <path class="cls-1" d="M141.7,39.7c-.2-.4-.3-3.1-.3-3.6,0-2.5,0-12.8,0-15.6,0-.5.2-3.1.3-3.6h0c0-.2,0-.3-.2-.3h-4.6c-.2,0-.3,0-.2.2h0c.2.5.3,3.1.3,3.7,0,2.8,0,13,0,15.6,0,.5-.2,3.1-.3,3.6h0c0,.2,0,.3.2.3h4.6c.2,0,.3,0,.2-.3h0Z"/>
          <path class="cls-1" d="M54.2,16.7h-2.1c-.2,0-.3,0-.3.3,0,1,0,4.9,0,9.6s0,7.8,0,9.1-.3.2-.3,0c-1.6-2.1-2.9-4-5.2-7.3-4.2-5.9-7.1-10.7-7.6-11.5,0,0-.2-.2-.3-.2h-4c-.2,0-.2,0-.2.3.3.7.3,1.2.4,3.1,0,1,0,2.5,0,8.7s0,10-.2,11.1c0,.2,0,.3.3.3h1.7c.2,0,.3,0,.3-.3,0-1,0-5,0-9.6s0-6,0-7.3.3-.2.3,0c1.6,2,3.8,5.2,5.9,8.5,4.4,6.5,5.3,7.9,5.9,8.7,0,0,.2.2.3.2h4.5c.2,0,.3,0,.3-.3,0-1.1-.2-5.7-.2-11.1s0-5.9,0-8.1c0-1.9.2-3.1.3-3.6h0c.3-.3.2-.4,0-.4"/>
          <path class="cls-1" d="M110,16.7h-2.1c-.2,0-.3,0-.3.3,0,1,0,4.9,0,9.6s0,7.8,0,9.1-.3.2-.3,0c-1.6-2.1-2.9-4-5.2-7.3-4.2-5.9-7.1-10.7-7.6-11.5,0,0-.2-.2-.3-.2h-4c-.2,0-.2,0-.2.3.3.7.3,1.2.4,3.1,0,1,0,2.5,0,8.7s0,10-.2,11.1c0,.2,0,.3.3.3h1.7c.2,0,.3,0,.3-.3,0-1,0-5,0-9.6s0-6,0-7.3.3-.2.3,0c1.6,2,3.8,5.2,5.9,8.5,4.4,6.5,5.3,7.9,5.9,8.7,0,0,.2.2.3.2h4.5c.2,0,.3,0,.3-.3,0-1.1-.2-5.7-.2-11.1s0-5.9,0-8.1c0-1.9.2-3.1.3-3.6h0c.3-.3.2-.4,0-.4"/>
          <path class="cls-1" d="M132.2,16.9c0-.2-.3-.3-.6-.3h-16.4c-.3,0-.5,0-.6.3l-1,1.3c0,0,0,.3.2.3.8,0,1.1-.2,5.7-.2h1.4c.2,0,.3,0,.3.3,0,1,.2,6,.2,11v6.6c0,.5-.2,3.1-.3,3.6h0c0,.2,0,.3.2.3h4.5c.2,0,.3,0,.2-.2h0c-.2-.5-.3-3.2-.3-3.7v-6.6c0-5.1,0-10.1.2-11,0,0,.2-.3.3-.3h1.7c4.5,0,4.5,0,5.2.2.2,0,.3,0,.2-.3l-.9-1.3Z"/>
          <path class="cls-1" d="M74.6,26.5h-6.8c-.3,0-.3-.2-.3-.3,1.4-2.5,2.5-4.8,3.5-6.5,0,0,.3,0,.3,0,.9,1.6,2.1,3.9,3.5,6.5,0,.2,0,.3-.3.3M87.7,39.8c0-.2-1.5-1.7-4.8-7.4-2.8-4.8-7.7-14.3-8-15.2h0v-.2c0-.2-.3-.3-.4-.3h-4.6c-.2,0-.2,0-.2.3,0,.3-.3,1.3-.7,1.8-1,1.9-6,11.2-6.4,11.9-3.5,6.2-5.6,8.7-5.8,9.1,0,0,0,.2.2.2h2.9c.2,0,.4,0,.5-.3.5-1.1,2.9-5.6,5.9-11.2.2-.2.3-.3.7-.4.8,0,2.1,0,4.4,0s3.4,0,4.2,0c.3,0,.5,0,.7.3,3,5.6,5.3,10.1,5.9,11.2,0,.2.3.3.5.3h5.1c0,.2,0,0,0,0"/>
          <path class="cls-1" d="M19,26.5h-6.6c-.2,0-.3-.2-.3-.3,1.4-2.5,2.5-4.7,3.5-6.4,0,0,.2,0,.3,0,0,0,0,0,0,0,.9,1.7,1.8,3.6,3.3,6.4,0,.2,0,.3-.3.3M32,39.8s0,0,0,0c-.3-.7-4.3-6.8-8-13.9-2-3.8-3.6-6.6-5.4-11.2,0-.2-.2-.3-.4-.3h-6.7c0,0-.2,0-.2.2h0v.5c0,0,0,.2.2.2.6,0,1.1,0,1.7.3.5.3.9.6,1.2,1,0,.2.3.3.3.6,0,.2,0,.4,0,.6-1,2.2-6.6,12.2-7,12.9-3.5,6.2-5.6,8.7-5.8,9.1,0,0,0,.2.2.2h2.9c.2,0,.4,0,.5-.3.5-1.1,2.9-5.6,5.9-11.2.2-.2.3-.3.7-.4.8,0,2.1,0,4.4,0s3.1,0,3.9,0c.3,0,.5.2.7.4.4.8,2.8,5.2,3.7,6.8,1.3,2.5,1.9,3.8,2.3,4.4,0,.2.3.3.5.3h4.7c-.2,0,0-.2,0-.3"/>
        </g>
        <g>
          <path class="cls-1" d="M198.4,3.8c-12.9,0-23.4,10.5-23.4,23.4s10.5,23.4,23.4,23.4,23.4-10.5,23.4-23.4-10.5-23.4-23.4-23.4ZM198.3,15.3c-1.1-1.3-1.6-2.7-1.3-3.8.2-.7.7-1.2,1.1-1.2h.2c.5,0,1,.5,1.1,1.2.3,1.1-.2,2.5-1.3,3.8ZM181.2,15.9c1.2,1.6,6.1,4.4,11,4.2h0s0,0,0,0c-1-.9-1.9-1.4-3.2-2.1-.3,0-.6-.1-.8-.2-2.4-.7-4.1-1.8-4.7-2.3.8.1,2.9.5,5.6,1.8.5.3,1,.5,1.5.9,1,.6,1.7,1.2,2.5,1.9h0s0,0,0,0c1.2,1.2,2,2.5,2.4,3.8.2.8.4,1.6.4,2.5-1.9,1-3.8,3.1-5.6,6.1-1.4,2.4-2.7,5.4-3.5,8.1-.9,2.9-.7,4.1-.3,4.7-5.9-3.8-9.9-10.5-9.9-18.1s1.5-9,4-12.5c0,.3,0,.7.4,1.2ZM189.2,45.2c2.6-1.9,7.9-9.6,8.5-16.8h0c0,0,0,0,0,0-.6.2-1.3.6-1.9,1.2h0s0,0,0,0c-.6,3.7-2.4,7.1-3.4,8.8-1.6,2.6-3.2,4.5-4.2,5.3.1-2,1.9-7.7,5-12,.9-1.3,1.8-2.3,2.7-3h0s0,0,0,0c.6-.5,1.2-.8,1.8-.9h0c0,0,.1,0,.2,0h0c.1,0,.2,0,.3,0,.3,0,.5,0,.8.1.6,7.7,5.9,15.7,8.6,17.6.5.3.9.5,1.3.5s.2,0,.2,0c-3.2,1.9-6.9,3-10.9,3s-7.7-1.1-10.9-3c.5,0,1.1-.1,1.8-.6ZM210,45.4c.4-.5.6-1.7-.3-4.7-1.4-4.8-4.5-11.1-8.2-13.6h0s0,0,0,0c0,.8.1,1.7.3,2.5h0s0,0,0,0c.6.6,1.2,1.3,1.7,2.1,3,4.3,4.9,10.1,5,12-1.1-.9-3-3.3-4.7-6.7-.8-1.6-1.9-4.1-2.5-6.8-.3-1.3-.5-2.8-.4-4,0-.8,0-1.6.2-2.3.2-1.2.8-2.3,1.7-3.3h0s0,0,0,0c-.7-.1-1.3-.3-1.8-.5h0s0,0,0,0c-.8,1.1-1.3,2.3-1.6,3.5-.2.8-.2,1.6-.3,2.4-.2,0-.4,0-.7,0h-.2s0,0,0,0h0c-.2,0-.3,0-.5,0,0-.8-.2-1.7-.4-2.4-.4-1.4-1.1-2.6-2.2-3.8.6-.2,1.2-.5,1.7-.8.5-.3,1.1-.7,1.5-1h0s0,0,0,0c.5-.4.9-.8,1.3-1.2h0s0,0,0,0c1.5-1.7,2.1-3.7,1.7-5.5-.4-1.5-1.6-2.5-2.9-2.5h-.2c-1.3,0-2.5,1-2.9,2.5-.5,1.8.1,3.8,1.7,5.5-.3.3-.7.5-1.1.8-.7.4-1.4.7-2.2.9-2.1-1.8-5.1-3.3-8.1-4.1-2-.5-3.3-.6-4.1-.2,3.9-5,10.1-8.2,16.9-8.2s13,3.2,16.9,8.2c-1.3-.7-4.4.1-5.4.4-1.3.4-4.5,1.5-7.1,3.7-.7-.2-1.4-.5-2-.8-.2-.1-.4-.3-.6-.4h0s0,0,0,0c-.4.5-.8.9-1.3,1.2h0s0,0,0,0c.3.2.7.5,1,.7.4.3.9.5,1.3.7.7.2,1.4.4,2.2.6h0s0,0,0,0c.5,0,1,.1,1.5.1,4.7,0,9.3-2.7,10.5-4.2.4-.5.5-1,.4-1.3,2.5,3.5,4.1,7.9,4.1,12.6,0,7.6-3.9,14.3-9.9,18.1ZM213.4,15.5c-.9.7-2.5,1.6-4.5,2.2-1.2.4-2.3.6-3.3.6.3-.2.7-.4,1.1-.6,2.8-1.5,5.5-2.1,6.8-2.2Z"/>
          <g>
            <path class="cls-1" d="M349.3,18.9l-7.2,16.4h2.9l1.7-3.9h7.7l1.7,3.9h3l-7.2-16.4h-2.7ZM347.8,28.9l2.8-6.5,2.8,6.5h-5.6Z"/>
            <polygon class="cls-1" points="365.4 19.1 362.6 19.1 362.6 35.3 374 35.3 374 32.8 365.4 32.8 365.4 19.1"/>
            <path class="cls-1" d="M383.7,18.9l-7.2,16.4h2.9l1.7-3.9h7.7l1.7,3.9h3l-7.2-16.4h-2.7ZM382.2,28.9l2.8-6.5,2.8,6.5h-5.6Z"/>
            <polygon class="cls-1" points="407.9 30.3 399.2 19.1 396.6 19.1 396.6 35.3 399.4 35.3 399.4 23.8 408.4 35.3 410.8 35.3 410.8 19.1 407.9 19.1 407.9 30.3"/>
            <path class="cls-1" d="M425.4,32.4c-.7.4-1.6.6-2.6.6s-1.5-.2-2.2-.5c-.7-.3-1.2-.7-1.7-1.2-.5-.5-.9-1.1-1.1-1.9-.3-.7-.4-1.5-.4-2.3s.1-1.6.4-2.3c.3-.7.6-1.3,1.1-1.8.5-.5,1.1-.9,1.7-1.2.7-.3,1.4-.5,2.2-.5s1.8.2,2.5.6c.7.4,1.4.9,2.1,1.5l1.8-2.1c-.4-.4-.8-.7-1.2-1-.4-.3-.9-.6-1.4-.8-.5-.2-1.1-.4-1.7-.5-.6-.1-1.3-.2-2-.2-1.2,0-2.4.2-3.4.7-1,.4-1.9,1-2.7,1.8-.7.8-1.3,1.7-1.7,2.7-.4,1-.6,2.1-.6,3.3s.2,2.3.6,3.3c.4,1,1,1.9,1.7,2.7.7.8,1.6,1.3,2.6,1.8,1,.4,2.1.7,3.3.7s1.5,0,2.1-.2c.6-.1,1.2-.3,1.7-.6.5-.3,1-.6,1.5-.9.5-.3.9-.7,1.3-1.2l-1.8-1.9c-.7.7-1.4,1.2-2.1,1.5Z"/>
            <polygon class="cls-1" points="436.2 32.8 436.2 28.4 444.3 28.4 444.3 25.8 436.2 25.8 436.2 21.6 445.4 21.6 445.4 19.1 433.3 19.1 433.3 35.3 445.5 35.3 445.5 32.8 436.2 32.8"/>
            <polygon class="cls-1" points="326.5 35.3 329.3 35.3 329.3 32.8 329.3 28.3 329.3 25.9 329.3 21.6 329.3 19.1 326.5 19.1 326.5 35.3"/>
            <path class="cls-1" d="M261,28.4c0,1.5-.4,2.6-1.1,3.4-.7.8-1.7,1.1-3,1.1s-2.3-.4-3-1.2c-.7-.8-1.1-1.9-1.1-3.5v-9.3h-2.8v9.4c0,1.2.2,2.2.5,3.1.3.9.8,1.6,1.4,2.2.6.6,1.3,1.1,2.2,1.4.9.3,1.8.5,2.9.5s2-.2,2.9-.5,1.6-.8,2.2-1.4c.6-.6,1.1-1.4,1.4-2.3.3-.9.5-2,.5-3.2v-9.2h-2.8v9.4Z"/>
            <polygon class="cls-1" points="276 26.8 271.1 19.1 268 19.1 268 35.3 270.9 35.3 270.9 23.7 276 31.3 276.1 31.3 281.2 23.7 281.2 35.3 284 35.3 284 19.1 281 19.1 276 26.8"/>
            <path class="cls-1" d="M294.6,18.9l-7.2,16.4h2.9l1.7-3.9h7.7l1.7,3.9h3l-7.2-16.4h-2.7ZM293.1,28.9l2.8-6.5,2.8,6.5h-5.6Z"/>
            <polygon class="cls-1" points="318.6 30.3 309.9 19.1 307.2 19.1 307.2 35.3 310.1 35.3 310.1 23.8 319 35.3 321.4 35.3 321.4 19.1 318.6 19.1 318.6 30.3"/>
            <polygon class="cls-1" points="242.5 25.8 242.5 25.8 236.1 25.8 236.1 28.5 242.5 28.5 242.5 28.5 242.5 35.3 245.3 35.3 245.3 19.1 242.5 19.1 242.5 25.8"/>
            <polygon class="cls-1" points="231.8 35.3 234.7 35.3 234.7 32 234.7 32 234.7 23.7 234.7 23.7 234.7 19.1 231.8 19.1 231.8 35.3"/>
            <path class="cls-1" d="M339.6,28.6c-.3-.6-.7-1.1-1.3-1.5-.5-.4-1.2-.7-1.9-.9-.7-.2-1.5-.3-2.4-.3h-3.4v2.6h3.5c1,0,1.8.2,2.4.6.5.4.8.9.8,1.5,0,.7-.3,1.2-.8,1.5-.6.4-1.4.6-2.4.6h-3.5v2.6h3.4c.9,0,1.7-.1,2.4-.3.7-.2,1.4-.5,1.9-.9.5-.4,1-.9,1.3-1.5.3-.6.4-1.3.4-2h0c0-.8-.1-1.5-.4-2.1h0Z"/>
            <path class="cls-1" d="M335.8,22.2h0c.4.3.7.8.7,1.4s-.1.9-.3,1.2c.1,0,.2,0,.3,0,.7.2,1.4.5,1.9.9,0,0,0,0,.1,0,.2-.3.4-.6.5-1,.2-.4.2-.9.2-1.5s-.1-1.3-.4-1.8c-.3-.5-.7-1-1.2-1.4-.5-.4-1.1-.6-1.7-.8-.7-.2-1.4-.3-2.2-.3h-3.2v2.6h3c1,0,1.7.2,2.1.6Z"/>
          </g>
        </g>
        <rect class="cls-1" x="158.1" y="17.9" width="2" height="18.7"/>
      </g>
    </g>
  </g>
</svg>