<svg width="346" height="60" viewBox="0 0 346 60" fill="none" xmlns="http://www.w3.org/2000/svg">
<path d="M29.9502 0C13.4365 0 0 13.4365 0 29.9502C0 46.4639 13.4365 59.9003 29.9502 59.9003C46.4639 59.9003 59.9003 46.4639 59.9003 29.9502C59.9003 13.4365 46.4639 0 29.9502 0ZM29.9502 14.6815C28.5525 13.0841 27.9535 11.2754 28.3528 9.84245C28.5995 8.94982 29.1867 8.35081 29.821 8.35081H30.0794C30.7136 8.35081 31.3009 8.94982 31.5475 9.84245C31.9469 11.2754 31.3478 13.0841 29.9502 14.6815ZM8.08067 15.4919C9.65453 17.512 15.856 21.1413 22.1044 20.9064H22.2219L22.1396 20.8242C20.9181 19.7201 19.7554 19.0272 18.0171 18.1345C17.6647 18.0523 17.3124 17.9584 16.9718 17.8644C13.8475 16.9483 11.6982 15.5271 10.9465 14.9751C11.9331 15.1043 14.7049 15.5976 18.1345 17.3124C18.7688 17.6295 19.45 18.0171 20.0842 18.4047C21.3292 19.1446 22.2923 19.8728 23.2789 20.8594L23.3142 20.8947C24.8528 22.398 25.8863 24.0424 26.4031 25.7806C26.6968 26.7907 26.8729 27.8713 26.9199 29.0106C24.5239 30.2673 22.0692 32.9569 19.8258 36.7859C18.0053 39.8983 16.3845 43.645 15.3979 47.0864C14.3056 50.8566 14.5288 52.3599 15.0456 53.0647C7.46993 48.1552 2.45474 39.6282 2.45474 29.9619C2.45474 23.9836 4.38095 18.4517 7.62261 13.9298C7.5404 14.3291 7.61087 14.8576 8.10416 15.5036L8.08067 15.4919ZM18.2872 52.9002C21.5641 50.422 28.3646 40.6148 29.1515 31.4653V31.3948L29.0928 31.4183C28.2589 31.665 27.4602 32.1935 26.6145 33.0039V33.0274C25.8041 37.7607 23.5138 42.1182 22.2219 44.3028C20.2252 47.6854 18.1345 50.1049 16.913 51.0445C17.101 48.5428 19.403 41.2373 23.3024 35.6818C24.4769 34.014 25.6514 32.722 26.7907 31.8411L26.8729 31.7942C27.6364 31.1952 28.3998 30.8076 29.1867 30.6196H29.222C29.3159 30.5844 29.4099 30.5609 29.5156 30.5492H29.5391C29.6918 30.5257 29.821 30.5139 29.9502 30.5022C30.2908 30.5139 30.6314 30.5727 30.9837 30.6784C31.7707 40.4504 38.5007 50.7509 41.9185 53.1116C42.5058 53.5227 43.0578 53.7224 43.5511 53.7224C43.6568 53.7224 43.7625 53.7106 43.8682 53.6872C39.7809 56.0832 35.0358 57.4691 29.9619 57.4691C24.888 57.4691 20.143 56.0832 16.0556 53.6872C16.6899 53.7929 17.4416 53.5227 18.299 52.8885L18.2872 52.9002ZM44.8665 53.0764C45.3951 52.3834 45.6182 50.8801 44.5259 47.0864C42.7524 40.9554 38.7238 32.8865 34.061 29.6565L33.9905 29.6096V29.7035C34.0257 30.7606 34.1667 31.9116 34.3781 32.9569V32.9804C35.118 33.7321 35.858 34.6365 36.5979 35.6818C40.4973 41.2138 42.7994 48.5193 42.9873 51.0327C41.5779 49.9052 39.1231 46.7927 36.9503 42.4705C35.9285 40.4386 34.5425 37.2792 33.7908 33.7791C33.3915 32.1465 33.1918 30.1851 33.2506 28.6465C33.2623 27.6011 33.368 26.6028 33.5559 25.6867C33.8613 24.2068 34.5778 22.7856 35.6936 21.4702L35.7405 21.4114H35.6701C34.8244 21.2235 34.0375 21.0121 33.3328 20.742H33.2975L33.2741 20.7537C32.264 22.1396 31.5945 23.6313 31.2656 25.2169C31.066 26.18 30.9485 27.2018 30.925 28.2589C30.6549 28.2119 30.373 28.1767 30.0911 28.1649H29.8092H29.7622C29.5743 28.1767 29.3747 28.2001 29.175 28.2236C29.081 27.1431 28.8931 26.0978 28.6112 25.1112C28.1062 23.3729 27.1783 21.7286 25.8511 20.2017C26.6028 19.9433 27.331 19.6027 28.0005 19.2033C28.7052 18.7805 29.3512 18.3342 29.9384 17.8644L29.9737 17.8409C30.5609 17.3711 31.1012 16.8661 31.6297 16.2905L31.6767 16.2436C33.6499 14.0237 34.4133 11.4633 33.7908 9.20821C33.2623 7.29375 31.7707 6.01352 30.0794 6.01352H29.821C28.1297 6.01352 26.638 7.29375 26.1095 9.20821C25.487 11.4633 26.2622 14.0355 28.2354 16.2553C27.8008 16.5842 27.3193 16.913 26.8142 17.2184C25.9451 17.7352 24.982 18.111 23.9484 18.3342C21.2118 16.0087 17.4298 14.1059 13.5539 13.1194C11.0287 12.4734 9.29043 12.4146 8.36256 12.9197C13.4012 6.53031 21.2 2.4195 29.9502 2.4195C38.7003 2.4195 46.5226 6.54206 51.573 12.9432C49.9404 12.0271 45.9236 13.1076 44.6669 13.4834C43.0343 13.9767 38.8882 15.4214 35.5996 18.252C34.6952 18.0288 33.8613 17.6765 33.0979 17.2184C32.8277 17.054 32.5693 16.8895 32.3227 16.7251L32.2875 16.7016L32.264 16.7251C31.7354 17.3124 31.1952 17.8174 30.6196 18.299L30.5727 18.3342L30.6196 18.3694C31.0425 18.6748 31.4653 18.945 31.8999 19.2151C32.4401 19.5322 33.0157 19.8258 33.6264 20.0607C34.4721 20.3779 35.4234 20.6128 36.4452 20.7889L36.4922 20.8007C37.1382 20.8946 37.7959 20.9299 38.4537 20.9299C44.4789 20.9299 50.3515 17.4416 51.8197 15.5741C52.3599 14.8811 52.4069 14.3174 52.313 13.8945C55.5664 18.4164 57.4926 23.9601 57.4926 29.9502C57.4926 39.6399 52.4539 48.1669 44.8783 53.0764H44.8665ZM49.13 14.9281C47.979 15.8207 45.8884 17.007 43.3279 17.7939C41.848 18.252 40.4034 18.5104 39.0527 18.5809C39.4755 18.299 39.9336 18.0288 40.3916 17.7822C43.9152 15.856 47.4622 15.0925 49.13 14.9281Z" fill="#8C625A"/>
<path d="M222.852 19.3086L213.69 40.2737H217.437L219.575 35.2468H229.417L231.531 40.2737H235.395L226.234 19.3086H222.84H222.852ZM220.925 32.0051L224.496 23.6778L228.09 32.0051H220.925Z" fill="#8C625A"/>
<path d="M243.371 19.4619H239.742V40.2743H254.318V36.974H243.371V19.4619Z" fill="#8C625A"/>
<path d="M266.72 19.3086L257.559 40.2737H261.305L263.443 35.2468H273.285L275.4 40.2737H279.264L270.102 19.3086H266.708H266.72ZM264.794 32.0051L268.364 23.6778L271.958 32.0051H264.794Z" fill="#8C625A"/>
<path d="M297.705 33.8497L286.582 19.4619H283.188V40.2743H286.817V25.4637L298.28 40.2743H301.334V19.4619H297.705V33.8497Z" fill="#8C625A"/>
<path d="M320.09 36.5499C319.174 37.0314 318.082 37.2781 316.813 37.2781C315.827 37.2781 314.899 37.0902 314.065 36.7026C313.219 36.315 312.491 35.7865 311.88 35.117C311.269 34.4475 310.788 33.6606 310.447 32.7562C310.107 31.8518 309.942 30.8887 309.942 29.8551C309.942 28.8216 310.107 27.8585 310.447 26.9658C310.788 26.0732 311.258 25.298 311.88 24.6285C312.491 23.9591 313.219 23.4423 314.065 23.0547C314.91 22.6671 315.827 22.4792 316.813 22.4792C317.999 22.4792 319.068 22.7141 319.996 23.1956C320.924 23.6772 321.817 24.2997 322.639 25.0749L324.988 22.3735C324.495 21.8919 323.966 21.4574 323.414 21.0698C322.862 20.6704 322.251 20.3298 321.605 20.0479C320.948 19.766 320.231 19.5429 319.444 19.3785C318.657 19.214 317.788 19.1436 316.837 19.1436C315.251 19.1436 313.806 19.4254 312.491 19.9892C311.187 20.553 310.048 21.3282 309.097 22.3148C308.145 23.3013 307.405 24.4406 306.877 25.7443C306.348 27.0481 306.09 28.4457 306.09 29.9374C306.09 31.429 306.36 32.8502 306.889 34.1656C307.429 35.4693 308.157 36.6086 309.108 37.5717C310.048 38.5348 311.164 39.2983 312.456 39.8503C313.748 40.4023 315.157 40.6842 316.684 40.6842C317.659 40.6842 318.54 40.602 319.35 40.4375C320.149 40.2731 320.889 40.0265 321.57 39.6976C322.239 39.3687 322.874 38.9811 323.461 38.5348C324.048 38.0885 324.6 37.5835 325.141 37.008L322.791 34.6237C321.899 35.4576 320.994 36.1153 320.09 36.5969V36.5499Z" fill="#8C625A"/>
<path d="M333.809 36.974V31.4185H344.25V28.1181H333.809V22.7623H345.589V19.4619H330.18V40.2743H345.73V36.974H333.809Z" fill="#8C625A"/>
<path d="M193.665 40.2743H197.294V37.0327V31.3245V28.259V22.7036V19.4619H193.665V40.2743Z" fill="#8C625A"/>
<path d="M109.969 31.442C109.969 33.3682 109.5 34.8128 108.56 35.7877C107.62 36.7625 106.34 37.2441 104.696 37.2441C103.052 37.2441 101.748 36.7391 100.808 35.729C99.8686 34.7189 99.3988 33.239 99.3988 31.301V19.4619H95.7695V31.4537C95.7695 32.9571 95.9809 34.2843 96.392 35.4236C96.8031 36.5629 97.4021 37.526 98.1773 38.2894C98.9525 39.0646 99.8803 39.6401 100.973 40.0277C102.065 40.4153 103.286 40.6032 104.637 40.6032C105.988 40.6032 107.245 40.4153 108.337 40.0277C109.429 39.6401 110.369 39.0529 111.144 38.2777C111.919 37.4907 112.518 36.5159 112.941 35.3531C113.364 34.1786 113.575 32.8279 113.575 31.2776V19.4737H109.946V31.4655L109.969 31.442Z" fill="#8C625A"/>
<path d="M129.197 29.3044L122.866 19.4619H118.967V40.2743H122.596V25.405L129.103 35.1652H129.232L135.798 25.3462V40.2743H139.427V19.4619H135.527L129.197 29.3044Z" fill="#8C625A"/>
<path d="M152.933 19.3086L143.771 40.2737H147.518L149.656 35.2468H159.498L161.612 40.2737H165.477L156.315 19.3086H152.921H152.933ZM150.995 32.0051L154.565 23.6778L158.159 32.0051H150.995Z" fill="#8C625A"/>
<path d="M183.577 33.8497L172.454 19.4619H169.06V40.2743H172.689V25.4637L184.152 40.2743H187.206V19.4619H183.577V33.8497Z" fill="#8C625A"/>
<path d="M86.3495 28.1181H78.1631V31.5007H86.3495V40.2743H89.9787V19.4619H86.3495V28.1181Z" fill="#8C625A"/>
<path d="M72.7256 40.2743H76.3548V36.0343V25.3815V19.4619H72.7256V40.2743Z" fill="#8C625A"/>
<path d="M210.46 31.6172C210.085 30.8537 209.533 30.2077 208.828 29.691C208.147 29.1859 207.325 28.8101 206.385 28.5399C205.469 28.2815 204.435 28.1523 203.331 28.1523H198.938V31.4762H203.413C204.729 31.4762 205.762 31.7464 206.479 32.2632C207.125 32.7212 207.442 33.3672 207.454 34.2246C207.442 35.082 207.113 35.728 206.479 36.186C205.762 36.7028 204.729 36.973 203.413 36.973H198.938V40.2968H203.331C204.435 40.2968 205.469 40.1676 206.385 39.9093C207.325 39.6509 208.147 39.2633 208.828 38.7582C209.533 38.2414 210.085 37.5955 210.46 36.832C210.836 36.0686 211.024 35.2112 211.024 34.2833V34.1659C211.024 33.2263 210.836 32.3689 210.46 31.6172Z" fill="#8C625A"/>
<path d="M205.538 23.4896C206.102 23.9241 206.372 24.5114 206.372 25.2866C206.372 25.8973 206.22 26.4024 205.926 26.8134C206.079 26.8487 206.231 26.8839 206.372 26.9191C207.312 27.1775 208.134 27.5651 208.815 28.0702C208.862 28.1054 208.909 28.1524 208.968 28.1876C209.238 27.8118 209.473 27.3772 209.637 26.9191C209.837 26.3671 209.943 25.7211 209.943 24.9929C209.943 24.1473 209.767 23.3721 209.426 22.6791C209.085 21.9862 208.592 21.3872 207.946 20.9056C207.335 20.4476 206.584 20.0835 205.738 19.8251C204.904 19.5784 203.964 19.4492 202.943 19.4492H198.902V22.7731H202.766C203.976 22.7731 204.904 23.008 205.515 23.4896H205.538Z" fill="#8C625A"/>
</svg>
