<svg width="262" height="93" viewBox="0 0 262 93" fill="none" xmlns="http://www.w3.org/2000/svg">
<mask id="mask0_20_1345" style="mask-type:luminance" maskUnits="userSpaceOnUse" x="156" y="65" width="19" height="28">
<path d="M174.352 65.5591H156.327V92.2055H174.352V65.5591Z" fill="white"/>
</mask>
<g mask="url(#mask0_20_1345)">
<path fill-rule="evenodd" clip-rule="evenodd" d="M174.352 88.5106H163.954C163.143 88.5106 162.363 88.2027 161.788 87.6433C161.213 87.089 160.89 86.1652 160.89 85.5442V72.4108C160.89 71.4562 161.213 70.7018 161.788 70.1424C162.363 69.583 163.143 69.275 163.954 69.275H174.352V65.5645H162.455C160.833 65.5645 159.273 66.1906 158.123 67.3043C156.974 68.418 156.327 69.932 156.327 71.5024V86.2627C156.327 87.8383 156.979 89.3009 158.123 90.4095C159.268 91.5232 160.833 92.2058 162.455 92.2058H174.352V88.5055V88.5106Z" fill="#8C625A"/>
</g>
<path d="M251.412 92.2056V72.7699H255.841V76.1161H255.933C256.226 74.9511 256.765 74.0376 257.55 73.3807C258.335 72.7186 259.284 72.3901 260.398 72.3901C260.691 72.3901 260.963 72.4055 261.204 72.4466C261.45 72.4825 261.655 72.5184 261.83 72.5544V76.578C261.645 76.5062 261.389 76.4446 261.06 76.3933C260.742 76.3471 260.388 76.3214 259.993 76.3214C259.136 76.3214 258.397 76.501 257.77 76.8552C257.144 77.2093 256.667 77.7225 256.339 78.4C256.01 79.0723 255.841 79.8934 255.841 80.8634V92.2159H251.412V92.2056Z" fill="#8C625A"/>
<path d="M239.315 92.2053C237.38 92.2053 235.712 91.7947 234.316 90.9736C232.931 90.1524 231.868 88.9925 231.119 87.4836C230.37 85.9799 230 84.199 230 82.1564V82.141C230 80.0984 230.375 78.3124 231.119 76.7984C231.878 75.2792 232.936 74.104 234.296 73.2726C235.656 72.4309 237.252 72.0049 239.089 72.0049C240.927 72.0049 242.528 72.4103 243.862 73.2161C245.196 74.027 246.228 75.1663 246.947 76.6342C247.68 78.102 248.05 79.811 248.05 81.7612V83.2137H232.176V80.201H245.915L243.765 83.0135V81.3045C243.765 80.006 243.57 78.9282 243.174 78.0712C242.784 77.2141 242.24 76.5726 241.537 76.1414C240.839 75.7103 240.039 75.4999 239.13 75.4999C238.222 75.4999 237.39 75.7257 236.667 76.1774C235.958 76.6187 235.399 77.2757 234.994 78.143C234.588 79.0001 234.388 80.0522 234.388 81.2993V83.0084C234.388 84.2093 234.588 85.2357 234.994 86.0928C235.399 86.9345 235.974 87.5863 236.718 88.0379C237.467 88.4896 238.355 88.7205 239.382 88.7205C240.152 88.7205 240.824 88.6025 241.404 88.3715C241.979 88.1252 242.456 87.8121 242.836 87.4375C243.215 87.0474 243.477 86.6214 243.626 86.1698L243.683 86.0415H247.834L247.799 86.2416C247.639 86.9909 247.337 87.7146 246.9 88.428C246.469 89.1413 245.895 89.7829 245.176 90.3577C244.468 90.9325 243.621 91.3841 242.641 91.7177C241.66 92.0462 240.547 92.2155 239.3 92.2155L239.315 92.2053Z" fill="#8C625A"/>
<path d="M225.495 92.2056C223.498 92.2056 222.01 91.7642 221.03 90.8815C220.065 89.9987 219.577 88.5668 219.577 86.5807V75.8184H216.821V72.385H219.577V68.7L224.078 67.4272V72.385H227.696V75.8184H224.078V86.2522C224.078 87.2068 224.289 87.8689 224.704 88.2384C225.13 88.5925 225.762 88.7721 226.598 88.7721C226.819 88.7721 227.014 88.767 227.183 88.7516C227.368 88.7259 227.537 88.7105 227.696 88.6951V92.0413C227.44 92.0773 227.122 92.1132 226.742 92.1491C226.362 92.185 225.946 92.2056 225.495 92.2056Z" fill="#8C625A"/>
<path d="M197.124 92.2054V72.7697H201.553V75.7823H201.645C202.158 74.7507 202.913 73.9347 203.903 73.3188C204.894 72.6927 206.125 72.3848 207.593 72.3848C209.723 72.3848 211.371 73.0263 212.536 74.3145C213.711 75.6027 214.301 77.3682 214.301 79.6212V92.2054H209.872V80.5039C209.872 79.108 209.544 78.0302 208.881 77.2706C208.235 76.5111 207.244 76.1313 205.925 76.1313C205.043 76.1313 204.273 76.3315 203.611 76.7369C202.949 77.127 202.44 77.6863 202.086 78.41C201.732 79.1182 201.553 79.9599 201.553 80.9299V92.2054H197.124Z" fill="#8C625A"/>
<path d="M185.032 92.2053C183.097 92.2053 181.429 91.7947 180.033 90.9736C178.648 90.1524 177.585 88.9925 176.836 87.4836C176.092 85.9799 175.717 84.199 175.717 82.1564V82.141C175.717 80.0984 176.092 78.3124 176.836 76.7984C177.596 75.2792 178.653 74.104 180.013 73.2726C181.373 72.4309 182.969 72.0049 184.806 72.0049C186.644 72.0049 188.245 72.4103 189.579 73.2161C190.914 74.027 191.945 75.1663 192.664 76.6342C193.398 78.102 193.767 79.811 193.767 81.7612V83.2137H177.898V80.201H191.637L189.487 83.0135V81.3045C189.487 80.006 189.292 78.9282 188.897 78.0712C188.507 77.2141 187.963 76.5726 187.26 76.1414C186.562 75.7103 185.761 75.4999 184.853 75.4999C183.944 75.4999 183.113 75.7257 182.389 76.1774C181.681 76.6187 181.122 77.2757 180.716 78.143C180.311 79.0001 180.11 80.0522 180.11 81.2993V83.0084C180.11 84.2093 180.311 85.2357 180.716 86.0928C181.122 86.9345 181.696 87.5863 182.44 88.0379C183.19 88.4896 184.078 88.7205 185.104 88.7205C185.874 88.7205 186.546 88.6025 187.126 88.3715C187.701 88.1252 188.178 87.8121 188.558 87.4375C188.938 87.0474 189.2 86.6214 189.348 86.1698L189.405 86.0415H193.557L193.521 86.2416C193.362 86.9909 193.059 87.7146 192.623 88.428C192.192 89.1413 191.617 89.7829 190.898 90.3577C190.19 90.9325 189.343 91.3841 188.363 91.7177C187.383 92.0462 186.269 92.2155 185.022 92.2155L185.032 92.2053Z" fill="#8C625A"/>
<path d="M136.712 92.2055C135.044 92.2055 133.612 91.9541 132.416 91.4511C131.225 90.9482 130.291 90.2502 129.604 89.3572C128.931 88.4539 128.521 87.3966 128.372 86.2008L128.356 86.0366H132.709L132.745 86.2008C132.929 87.0579 133.345 87.7251 133.992 88.2024C134.654 88.6694 135.567 88.9004 136.727 88.9004C137.487 88.9004 138.133 88.808 138.677 88.6233C139.216 88.4282 139.632 88.1511 139.924 87.797C140.217 87.4275 140.366 87.0066 140.366 86.5293V86.5088C140.366 85.9083 140.166 85.431 139.76 85.0769C139.37 84.7125 138.662 84.4046 137.646 84.1582L134.433 83.4448C133.196 83.1626 132.159 82.7777 131.328 82.285C130.507 81.7974 129.891 81.1867 129.47 80.4682C129.065 79.7445 128.865 78.908 128.865 77.9483V77.9328C128.865 76.7473 129.183 75.7106 129.819 74.8279C130.456 73.9349 131.354 73.242 132.519 72.7545C133.684 72.2515 135.028 72 136.558 72C138.087 72 139.534 72.272 140.674 72.8058C141.813 73.3344 142.696 74.0478 143.317 74.9562C143.943 75.8492 144.277 76.8551 144.328 77.9688L144.348 78.1689H140.232L140.217 78.0406C140.109 77.2297 139.74 76.5779 139.114 76.075C138.503 75.5618 137.651 75.3051 136.563 75.3051C135.891 75.3051 135.3 75.4027 134.797 75.5977C134.294 75.7927 133.91 76.075 133.643 76.4445C133.371 76.7986 133.237 77.2143 133.237 77.6916V77.707C133.237 78.0868 133.33 78.4307 133.514 78.7386C133.699 79.0311 133.997 79.2877 134.412 79.5084C134.828 79.7291 135.372 79.919 136.05 80.0781L139.247 80.7966C141.254 81.2483 142.68 81.9 143.527 82.7417C144.384 83.5731 144.81 84.6971 144.81 86.1033V86.1187C144.81 87.3299 144.461 88.3974 143.763 89.3161C143.076 90.2194 142.121 90.9327 140.9 91.446C139.688 91.9489 138.292 92.2004 136.712 92.2004V92.2055Z" fill="#8C625A"/>
<path d="M117.784 92.2055C116.116 92.2055 114.685 91.9541 113.484 91.4511C112.298 90.9482 111.359 90.2502 110.676 89.3572C110.004 88.4539 109.593 87.3966 109.445 86.2008L109.429 86.0366H113.781L113.817 86.2008C114.002 87.0579 114.418 87.7251 115.064 88.2024C115.726 88.6694 116.64 88.9004 117.8 88.9004C118.559 88.9004 119.206 88.808 119.745 88.6233C120.284 88.4282 120.7 88.1511 120.992 87.797C121.285 87.4275 121.433 87.0066 121.433 86.5293V86.5088C121.433 85.9083 121.228 85.431 120.828 85.0769C120.438 84.7125 119.73 84.4046 118.713 84.1582L115.501 83.4448C114.264 83.1626 113.232 82.7777 112.396 82.285C111.574 81.7974 110.959 81.1867 110.538 80.4682C110.132 79.7445 109.932 78.908 109.932 77.9483V77.9328C109.932 76.7473 110.25 75.7106 110.887 74.8279C111.523 73.9349 112.426 73.242 113.586 72.7545C114.751 72.2515 116.096 72 117.625 72C119.232 72 120.602 72.272 121.741 72.8058C122.881 73.3344 123.763 74.0478 124.384 74.9562C125.011 75.8492 125.344 76.8551 125.396 77.9688L125.411 78.1689H121.295L121.279 78.0406C121.167 77.2297 120.802 76.5779 120.176 76.075C119.565 75.5618 118.713 75.3051 117.62 75.3051C116.948 75.3051 116.358 75.4027 115.86 75.5977C115.357 75.7927 114.972 76.075 114.705 76.4445C114.433 76.7986 114.3 77.2143 114.3 77.6916V77.707C114.3 78.0868 114.392 78.4307 114.577 78.7386C114.762 79.0311 115.059 79.2877 115.475 79.5084C115.891 79.7291 116.435 79.919 117.112 80.0781L120.309 80.7966C122.316 81.2483 123.743 81.9 124.59 82.7417C125.447 83.5731 125.878 84.6971 125.878 86.1033V86.1187C125.878 87.3299 125.529 88.3974 124.831 89.3161C124.143 90.2194 123.189 90.9327 121.967 91.446C120.756 91.9489 119.36 92.2004 117.779 92.2004L117.784 92.2055Z" fill="#8C625A"/>
<path d="M98.1738 92.2055C96.239 92.2055 94.571 91.795 93.1751 90.9738C91.7894 90.1527 90.727 88.9928 89.9777 87.4839C89.2335 85.975 88.8589 84.1993 88.8589 82.1567V82.1361C88.8589 80.0935 89.2335 78.3075 89.9777 76.7935C90.7373 75.2744 91.7945 74.0991 93.1545 73.2677C94.5146 72.4209 96.1107 72 97.948 72C99.7854 72 101.387 72.4054 102.726 73.2112C104.06 74.0221 105.087 75.1563 105.811 76.6293C106.544 78.0971 106.914 79.8061 106.914 81.7512V83.2036H91.0452V80.191H104.784L102.634 82.9983V81.2893C102.634 79.9909 102.439 78.9131 102.044 78.056C101.653 77.1989 101.109 76.5574 100.406 76.1263C99.7084 75.6952 98.9078 75.4848 97.9994 75.4848C97.091 75.4848 96.2595 75.7106 95.5359 76.1622C94.8277 76.6036 94.2682 77.2605 93.8628 78.1279C93.4574 78.9849 93.2572 80.0371 93.2572 81.2893V82.9983C93.2572 84.1993 93.4574 85.2257 93.8628 86.0828C94.2682 86.9296 94.843 87.5763 95.5872 88.033C96.3314 88.4898 97.2244 88.7105 98.2508 88.7105C99.0207 88.7105 99.693 88.5925 100.273 88.3615C100.848 88.1152 101.325 87.8072 101.705 87.4223C102.085 87.0323 102.346 86.6063 102.495 86.1547L102.552 86.0264H106.704L106.668 86.2317C106.509 86.9758 106.206 87.7046 105.77 88.418C105.338 89.1262 104.764 89.7729 104.045 90.3477C103.337 90.9225 102.49 91.3741 101.51 91.7077C100.53 92.0362 99.4159 92.2055 98.1687 92.2055H98.1738Z" fill="#8C625A"/>
<path d="M68.4482 92.2054V72.7697H72.8773V75.7823H72.9697C73.4829 74.7558 74.2374 73.9347 75.2279 73.3188C76.2184 72.6927 77.4502 72.3848 78.918 72.3848C81.0478 72.3848 82.6953 73.0263 83.8603 74.3145C85.0356 75.5975 85.6258 77.3682 85.6258 79.6212V92.2054H81.1967V80.5039C81.1967 79.108 80.8682 78.0302 80.2062 77.2706C79.5595 76.5111 78.569 76.1313 77.25 76.1313C76.3673 76.1313 75.5974 76.3366 74.9354 76.7369C74.2733 77.127 73.7652 77.6863 73.4111 78.41C73.057 79.1182 72.8773 79.9599 72.8773 80.9248V92.2054H68.4482Z" fill="#8C625A"/>
<path d="M59.7344 92.2054L59.9294 67.5194L64.1635 65.7026V92.2105H59.7344V92.2054Z" fill="#8C625A"/>
<path d="M50.8711 92.2054V67.5194L55.3002 65.7026V92.2105H50.8711V92.2054Z" fill="#8C625A"/>
<path d="M38.625 92.2055C36.6902 92.2055 35.0222 91.795 33.6263 90.9738C32.2406 90.1527 31.1782 88.9928 30.4289 87.4839C29.6796 85.975 29.3101 84.1993 29.3101 82.1567V82.1361C29.3101 80.0935 29.6847 78.3075 30.4289 76.7935C31.1884 75.2744 32.2457 74.0991 33.6057 73.2677C34.9658 72.4209 36.5619 72 38.3992 72C40.2366 72 41.8429 72.4054 43.1773 73.2112C44.5117 74.0221 45.5381 75.1563 46.2618 76.6293C46.9957 78.0971 47.3652 79.8061 47.3652 81.7512V83.2036H31.4964V80.191H45.2353L43.0849 82.9983V81.2893C43.0849 79.9909 42.8899 78.9131 42.4947 78.056C42.1047 77.1989 41.5607 76.5574 40.8575 76.1263C40.1596 75.6952 39.3589 75.4848 38.4505 75.4848C37.5421 75.4848 36.7107 75.7106 35.9871 76.1622C35.2788 76.6036 34.7194 77.2605 34.314 78.1279C33.9085 78.9849 33.7084 80.0371 33.7084 81.2893V82.9983C33.7084 84.1993 33.9085 85.2257 34.314 86.0828C34.7194 86.9296 35.2942 87.5763 36.0384 88.033C36.7877 88.4847 37.6756 88.7105 38.702 88.7105C39.4718 88.7105 40.1442 88.5925 40.7241 88.3615C41.2989 88.1152 41.7762 87.8072 42.156 87.4223C42.5358 87.0323 42.7975 86.6063 42.9464 86.1547L43.0028 86.0264H47.1548L47.1189 86.2317C46.9598 86.9758 46.657 87.7046 46.2207 88.418C45.7896 89.1262 45.2148 89.7729 44.4963 90.3477C43.7881 90.9225 42.9412 91.3741 41.961 91.7077C40.9807 92.0362 39.867 92.2055 38.6199 92.2055H38.625Z" fill="#8C625A"/>
<mask id="mask1_20_1345" style="mask-type:luminance" maskUnits="userSpaceOnUse" x="0" y="65" width="30" height="28">
<path d="M29.6488 65.1328H0V92.2052H29.6488V65.1328Z" fill="white"/>
</mask>
<g mask="url(#mask1_20_1345)">
<path d="M29.654 65.1328L23.2541 92.2052H18.4247L14.827 77.3629L11.2242 92.2052H6.39475L0 65.1328H4.10063L8.82742 85.1382L12.7638 68.8845H16.8747L20.8111 85.1382L25.5379 65.1328H29.6437H29.654Z" fill="#8C625A"/>
</g>
<mask id="mask2_20_1345" style="mask-type:luminance" maskUnits="userSpaceOnUse" x="0" y="0" width="262" height="52">
<path d="M261.153 0H0V51.0296H261.153V0Z" fill="white"/>
</mask>
<g mask="url(#mask2_20_1345)">
<path d="M29.1818 0H0V51.0296H29.1818C35.4687 51.0296 40.5702 45.9487 40.5702 39.6874V11.3422C40.5702 5.08088 35.4687 0 29.1818 0ZM32.025 38.2761C32.025 41.4067 29.4743 43.9472 26.3334 43.9472H8.54001V7.08759H26.3334C29.4743 7.08759 32.025 9.62803 32.025 12.7587V38.2812V38.2709V38.2761Z" fill="#8C625A"/>
<path d="M110.291 11.3472H98.1941L89.6592 15.5966V51.0346H98.1941V18.4399H107.453C110.593 18.4399 113.144 20.9803 113.144 24.111V51.0448H121.679V22.6894C121.679 16.4281 116.578 11.3472 110.291 11.3472Z" fill="#8C625A"/>
<path d="M209.219 11.3472H200.684L196.127 13.6156C194.218 12.194 191.862 11.3472 189.301 11.3472H180.766L172.231 15.5966V51.0346H180.766V18.4399H186.458C189.599 18.4399 192.15 20.9803 192.15 24.111V51.0448H200.684V18.4399H206.376C209.517 18.4399 212.068 20.9803 212.068 24.111V51.0448H220.603V22.6894C220.603 16.4281 215.501 11.3472 209.214 11.3472H209.219Z" fill="#8C625A"/>
<path d="M155.839 11.3472H133.067V18.4399H151.574C152.749 18.4399 153.714 19.3893 153.714 20.5698V26.2409H136.634C133.098 26.2409 130.229 29.0995 130.229 32.6253V44.6758C130.229 48.1965 133.093 51.0551 136.634 51.0551H153.714L162.249 46.8056V17.7522C162.249 14.2315 159.375 11.3677 155.844 11.3677V11.3472H155.839ZM153.699 43.9521H140.883C139.708 43.9521 138.743 43.0027 138.743 41.8223V35.4429C138.743 34.2728 139.698 33.3233 140.873 33.3233H153.688V43.9521H153.699Z" fill="#8C625A"/>
<path d="M72.5739 43.9521H63.3154C60.1744 43.9521 57.6237 41.4117 57.6237 38.281V11.3472H49.0889V39.7027C49.0889 45.964 54.1903 51.0448 60.4773 51.0448H72.579L81.1139 46.7954V11.3472H72.579V43.9521H72.5739Z" fill="#8C625A"/>
<path d="M252.602 11.3472V43.9521H243.343C240.202 43.9521 237.652 41.4117 237.652 38.281V11.3472H229.117V39.7027C229.117 45.964 234.218 51.0448 240.505 51.0448H252.607L261.142 46.7954V11.3472H252.607H252.602Z" fill="#8C625A"/>
</g>
</svg>
