<svg width="284" height="303" viewBox="0 0 284 303" fill="none" xmlns="http://www.w3.org/2000/svg">
<mask id="mask0_28_1688" style="mask-type:luminance" maskUnits="userSpaceOnUse" x="0" y="0" width="284" height="303">
<path d="M196.13 0H87.4203C39.1394 0 0 39.1394 0 87.4203V214.747C0 263.027 39.1394 302.167 87.4203 302.167H196.13C244.411 302.167 283.551 263.027 283.551 214.747V87.4203C283.551 39.1394 244.411 0 196.13 0Z" fill="white"/>
</mask>
<g mask="url(#mask0_28_1688)">
<path d="M208.297 104.116C205.253 101.708 203.787 102.448 202.196 104.787C202.433 102.832 202.656 101.01 202.845 99.4118C205.846 56.4346 186.351 21.7568 140.812 21.7568C95.2727 21.7568 75.777 56.4276 78.7785 99.4118C78.9669 101.017 79.1833 102.832 79.4276 104.787C77.8361 102.448 76.3703 101.708 73.3269 104.116C69.6483 107.034 71.5818 119.375 73.3059 125.448C75.9305 134.648 82.1289 145.698 86.0448 146.849C90.6448 162.974 98.9443 178.77 105.296 184.654C108.458 188.284 128.575 203.815 140.812 203.815C153.048 203.815 173.165 188.284 176.327 184.654C182.679 178.777 190.979 162.981 195.579 146.849C199.495 145.698 205.693 134.648 208.318 125.448C210.049 119.382 211.982 107.034 208.297 104.116Z" fill="#FDF5EE"/>
<path d="M140.813 204.786C128.067 204.786 107.594 188.71 104.592 185.325C97.8845 179.084 89.7874 163.288 85.2363 147.583C80.8388 145.586 74.9265 134.69 72.3647 125.714C70.9338 120.702 68.2185 106.916 72.7137 103.349C74.382 102.023 75.7432 101.499 76.9926 101.688C77.3975 101.751 77.7674 101.883 78.1024 102.072C77.9977 101.171 77.8931 100.32 77.8023 99.5169C76.0224 74.1158 82.172 52.519 95.0994 38.6563C106.17 26.7899 121.547 20.7729 140.806 20.7729C160.064 20.7729 175.449 26.7899 186.512 38.6563C199.44 52.519 205.582 74.1158 203.809 99.468C203.712 100.292 203.614 101.157 203.502 102.065C203.837 101.883 204.207 101.744 204.612 101.681C205.862 101.492 207.223 102.016 208.891 103.342C213.393 106.909 210.671 120.695 209.24 125.707C206.678 134.683 200.766 145.579 196.368 147.576C191.817 163.281 183.72 179.084 177.012 185.318C174.011 188.703 153.545 204.779 140.799 204.779L140.813 204.786ZM76.504 103.607C75.8619 103.607 74.9963 104.033 73.9283 104.878C71.0175 107.181 72.2391 118.147 74.2424 125.169C76.888 134.46 82.9816 144.923 86.3112 145.9C86.6323 145.998 86.8836 146.249 86.9744 146.571C91.351 161.906 99.5038 177.961 105.954 183.922C105.981 183.943 106.002 183.971 106.023 183.999C109.416 187.893 129.323 202.824 140.806 202.824C152.288 202.824 172.189 187.893 175.588 183.999C175.609 183.971 175.637 183.95 175.658 183.922C182.101 177.961 190.261 161.899 194.637 146.571C194.728 146.249 194.979 145.998 195.3 145.9C198.63 144.923 204.724 134.46 207.369 125.169C209.373 118.14 210.594 107.181 207.683 104.878C206.504 103.942 205.568 103.524 204.912 103.621C204.333 103.712 203.74 104.235 203 105.331C202.748 105.701 202.274 105.855 201.848 105.694C201.422 105.534 201.164 105.108 201.22 104.661C201.457 102.714 201.68 100.892 201.869 99.2935C203.6 74.5276 197.639 53.4543 185.088 39.9895C174.409 28.5349 159.506 22.7274 140.806 22.7274C122.106 22.7274 107.21 28.5349 96.5233 39.9895C83.9658 53.4543 78.0118 74.5276 79.7429 99.3354C79.9244 100.892 80.1407 102.707 80.385 104.661C80.4408 105.108 80.1826 105.534 79.7568 105.694C79.331 105.855 78.8564 105.701 78.6051 105.331C77.8652 104.235 77.2719 103.712 76.6925 103.621C76.6297 103.614 76.5669 103.607 76.497 103.607H76.504Z" fill="#E1B9AF"/>
<path d="M195.578 147.819C195.487 147.819 195.396 147.805 195.313 147.784C194.796 147.638 194.496 147.093 194.643 146.577C195.599 143.226 196.36 139.855 196.911 136.539C197.805 131.172 199.906 115.431 201.232 104.661C201.295 104.123 201.79 103.746 202.321 103.809C202.858 103.872 203.235 104.361 203.172 104.898C201.846 115.689 199.738 131.465 198.838 136.853C198.272 140.239 197.498 143.687 196.52 147.107C196.402 147.54 196.004 147.819 195.578 147.819Z" fill="#E1B9AF"/>
<path d="M86.0387 147.819C85.6129 147.819 85.2221 147.54 85.0964 147.107C84.1192 143.694 83.3444 140.246 82.779 136.853C81.8856 131.465 79.7776 115.682 78.4443 104.898C78.3815 104.361 78.7584 103.872 79.2959 103.809C79.8334 103.746 80.322 104.123 80.3848 104.661C81.711 115.431 83.8121 131.172 84.7056 136.539C85.257 139.855 86.0179 143.233 86.9741 146.577C87.1207 147.093 86.8205 147.638 86.304 147.784C86.2132 147.812 86.1225 147.819 86.0387 147.819Z" fill="#E1B9AF"/>
<path d="M313.105 740.022C314.892 727.046 319.129 644.742 320.783 626.684C322.612 606.735 322.849 580.217 320.797 563.402C318.982 548.52 318.186 519.615 316.937 502.011C314.431 466.663 315.925 447.753 315.087 429.528C313.635 397.949 313.572 356.836 310.661 303.109C309.607 283.676 299.458 266.609 280.709 261.277C265.381 252.405 209.79 235.638 189.038 225.461C178.212 220.156 184.319 175.985 184.319 157.613C184.319 145.468 166.68 129.476 140.798 129.476C114.922 129.476 97.2761 145.468 97.2761 157.613C97.2761 175.985 103.384 220.156 92.5575 225.461C71.8053 235.638 16.2147 252.398 0.88615 261.277C-17.8627 266.609 -28.0119 283.676 -29.0659 303.109C-31.9767 356.836 -32.0396 397.949 -33.4914 429.528C-34.3291 447.753 -32.8422 466.663 -35.3411 502.011C-36.5906 519.615 -37.3864 548.52 -39.2012 563.402C-41.2464 580.21 -41.0161 606.728 -39.1872 626.684C-37.5329 644.742 -33.289 727.046 -31.509 740.022C-31.4601 742.8 -31.5509 745.585 -31.7952 748.364C-32.2838 770.833 -34.9364 802.188 -34.2802 816.086C-34.015 821.719 -29.4917 837.564 -27.8653 843.769C-26.1971 850.128 -19.3913 856.124 -15.0147 861.436C-15.0147 861.436 -11.9225 864.389 -9.13744 866.441C-4.68406 869.715 4.43216 875.425 7.31499 876.751C13.1574 879.445 13.2901 873.889 12.9969 871.753C12.599 868.842 10.6376 866.818 7.92925 864.891C6.88222 861.359 1.75169 857.681 1.75169 857.681C0.872185 854.107 -2.99481 850.114 -4.30709 848.788C-6.40814 846.659 -10.003 842.973 -10.003 842.973L-14.3656 826.563L-10.7568 810.816C-10.1356 814.201 -8.53709 823.492 -8.29976 824.978C-7.30857 831.938 -6.47098 841.682 -6.24063 842.75C-4.09072 852.676 4.95568 851.357 5.04642 842.094C5.13018 832.964 4.5159 829.851 4.32045 823.303C4.06916 814.955 4.16692 803.738 3.56662 796.611C5.25583 785.415 3.85279 767.699 2.50561 760.153C0.94902 751.442 -2.28281 743.652 -2.27583 743.073L-2.83428 743.017L3.18966 687.566C1.06069 711.766 2.29616 750.074 3.68523 760.502C8.13163 793.972 13.9531 832.426 18.4275 858.267C26.9992 907.31 40.0243 987.667 58.0612 1072.87C58.0612 1072.87 62.5495 1107.48 59.7365 1119.68C56.9164 1131.91 51.4649 1183.64 53.0983 1224.46C57.3771 1278.32 86.6661 1352.57 88.837 1404.73C89.0184 1409.87 87.6713 1416.36 86.4707 1421.12C86.2264 1422.09 86.1496 1423.11 86.2753 1424.11C86.715 1427.59 87.6364 1430.1 87.6364 1430.1C76.9008 1445.79 56.3511 1479.61 57.2376 1479.65C54.9899 1491.9 62.6891 1496.72 67.7637 1492.13C69.788 1495.04 72.2171 1496.05 74.709 1496.01C76.8868 1495.97 122.977 1500.55 132.764 1497.27C139.492 1495.02 140.889 1482.9 139.402 1476.74C138.515 1473.08 136.994 1455.86 136.205 1447.89L132.491 1424.39C131.779 1417.05 132.589 1413.47 133.42 1409.2C134.362 1404.36 129.72 1392.75 129.581 1387.75C129.525 1383.86 129.525 1381.45 129.588 1376.16C130.188 1322.38 134.467 1270.3 133.357 1216.5C132.896 1192.12 133.489 1155.33 133.51 1135.81C133.538 1113.85 140.798 1107.69 138.543 1056.62C139.918 1012.46 134.076 909.069 134.25 882.963C134.369 865.457 134.732 808.722 138.85 773.723H142.745C146.864 808.722 147.227 865.464 147.345 882.963C147.52 909.069 141.684 1012.46 143.052 1056.62C140.798 1107.69 148.064 1113.85 148.085 1135.81C148.106 1155.33 148.699 1192.12 148.239 1216.5C147.129 1270.3 151.408 1322.37 152.008 1376.16C152.071 1381.45 152.071 1383.86 152.015 1387.75C151.868 1392.75 147.234 1404.35 148.176 1409.2C149.006 1413.47 149.816 1417.05 149.104 1424.39L145.391 1447.89C144.602 1455.86 143.08 1473.08 142.194 1476.74C140.7 1482.9 142.096 1495.02 148.832 1497.27C158.625 1500.55 204.709 1495.97 206.887 1496.01C209.379 1496.05 211.808 1495.04 213.832 1492.13C218.906 1496.72 226.606 1491.91 224.358 1479.65C225.252 1479.61 204.695 1445.79 193.966 1430.1C193.966 1430.1 194.895 1427.59 195.327 1424.11C195.453 1423.11 195.376 1422.09 195.132 1421.12C193.924 1416.36 192.584 1409.86 192.766 1404.73C194.943 1352.57 224.225 1278.32 228.504 1224.46C230.145 1183.64 224.686 1131.91 221.866 1119.68C219.053 1107.48 223.541 1072.87 223.541 1072.87C241.578 987.667 254.603 907.31 263.175 858.267C267.649 832.419 273.471 793.965 277.917 760.502C279.306 750.067 280.542 711.766 278.413 687.566L284.437 743.017L283.878 743.073C283.885 743.652 280.654 751.442 279.097 760.153C277.75 767.699 276.347 785.415 278.036 796.611C277.429 803.738 277.526 814.955 277.282 823.303C277.087 829.851 276.472 832.964 276.556 842.094C276.64 851.35 285.693 852.676 287.843 842.75C288.074 841.682 288.911 831.938 289.902 824.978C290.14 823.492 291.745 814.201 292.359 810.816L295.968 826.563L291.605 842.973C291.605 842.973 288.011 846.659 285.91 848.788C284.604 850.114 280.73 854.107 279.851 857.681C279.851 857.681 274.72 861.359 273.673 864.891C270.965 866.825 268.997 868.842 268.606 871.753C268.319 873.882 268.445 879.438 274.287 876.751C277.163 875.425 286.287 869.715 290.74 866.441C293.525 864.389 296.617 861.436 296.617 861.436C300.994 856.124 307.807 850.128 309.468 843.769C311.094 837.564 315.617 821.712 315.883 816.086C316.539 802.188 313.879 770.833 313.398 748.364C313.153 745.592 313.063 742.807 313.112 740.022H313.105ZM42.3069 541.84C42.0625 563.36 24.2769 577.544 12.0964 622.936C12.0964 622.929 12.0964 622.922 12.0964 622.908C13.8834 608.005 14.6511 575.156 18.4275 539.124C21.1777 512.921 24.0257 461.072 23.2927 424.816V424.795C30.1543 467.759 42.607 514.924 42.2999 541.84H42.3069ZM239.317 541.84C239.01 514.931 251.462 467.766 258.324 424.795V424.816C257.598 461.072 260.439 512.921 263.189 539.124C266.972 575.156 267.733 608.005 269.52 622.908C269.52 622.915 269.52 622.922 269.52 622.936C257.34 577.544 239.554 563.36 239.31 541.84H239.317Z" fill="#FDF5EE"/>
<path d="M162.8 1499.43C156.483 1499.43 151.227 1499.09 148.526 1498.19C143.542 1496.52 141.315 1490.39 140.806 1484.61C140.289 1490.39 138.069 1496.52 133.085 1498.19C124.925 1500.93 93.3609 1498.42 79.8891 1497.36C77.2087 1497.15 75.1146 1496.99 74.7377 1496.98C71.9177 1497.02 69.5165 1495.86 67.5969 1493.51C65.4051 1495.03 62.7876 1495.23 60.5539 1493.99C58.1108 1492.63 55.8701 1489.31 55.8701 1483.84C55.8701 1482.59 55.9818 1481.23 56.2401 1479.76C56.2401 1479.72 56.2331 1479.69 56.2331 1479.65C56.2331 1479.08 56.8125 1477.87 59.4789 1473.25C61.4613 1469.82 64.3022 1465.07 67.4782 1459.88C73.0275 1450.8 80.9151 1438.25 86.5691 1429.95C86.276 1429.04 85.6548 1426.92 85.3197 1424.24C85.2709 1423.87 85.2499 1423.51 85.2499 1423.15C85.2499 1422.4 85.3476 1421.64 85.5361 1420.89C87.0996 1414.69 87.8954 1409.59 87.8954 1405.69C87.8954 1405.38 87.8954 1405.08 87.8814 1404.78C86.7576 1377.75 78.158 1344.13 69.8376 1311.62C62.1523 1281.55 54.2019 1250.47 52.1427 1224.55C51.9263 1219.22 51.8355 1213.74 51.8355 1208.22C51.8355 1170.06 56.4565 1129.67 58.8019 1119.47C59.451 1116.65 59.7023 1112.56 59.7023 1107.96C59.7023 1093.51 57.2453 1074.06 57.1196 1073.06C42.3076 1003.08 30.867 936.334 22.5117 887.605C20.7178 877.121 19.0146 867.216 17.4859 858.456C13.7445 836.824 9.19338 807.263 5.2705 779.216C5.32634 780.836 5.35426 782.476 5.35426 784.102C5.35426 788.542 5.13788 792.904 4.57946 796.66C4.97733 801.413 5.06805 807.891 5.15879 814.166C5.20765 817.419 5.24953 820.49 5.33329 823.296C5.4031 825.711 5.53579 827.694 5.66842 829.613C5.86386 832.587 6.07324 835.651 6.07324 840.433C6.07324 840.97 6.07323 841.536 6.06625 842.122C6.01739 847.58 3.15553 850.317 0.335518 850.603C-0.215919 850.659 -0.802254 850.624 -1.40255 850.477C0.719437 852.955 2.07354 855.175 2.63894 857.115C3.74181 857.953 7.63683 861.073 8.79554 864.298C11.1479 866.008 13.5421 868.221 14.0028 871.634C14.0377 871.865 14.0935 872.395 14.0935 873.058C14.0935 874.524 13.8074 876.653 12.2996 877.77C11.0083 878.726 9.20038 878.684 6.94577 877.644C3.97917 876.283 -5.1859 870.538 -9.67418 867.237C-12.4802 865.171 -15.5236 862.281 -15.6492 862.155C-15.6771 862.127 -15.705 862.099 -15.726 862.071C-16.794 860.773 -18.0085 859.44 -19.2859 858.037C-23.118 853.821 -27.4598 849.046 -28.7721 844.034C-29.0373 843.022 -29.3793 841.759 -29.7632 840.321C-31.8433 832.615 -34.9914 820.965 -35.2148 816.148C-35.2846 814.62 -35.3195 812.882 -35.3195 810.969C-35.3195 802.691 -34.7052 791.152 -34.063 779.077C-33.5046 768.564 -32.9252 757.689 -32.7228 748.364C-32.7228 748.343 -32.7228 748.322 -32.7228 748.301C-32.5274 746.081 -32.4297 743.791 -32.4297 741.495C-32.4297 741.034 -32.4297 740.581 -32.4437 740.12C-33.4698 732.574 -35.2427 703.264 -36.9668 674.911C-38.2233 654.144 -39.4169 634.53 -40.1219 626.796C-41.1061 616.095 -41.5947 604.201 -41.5947 592.984C-41.5947 581.808 -41.106 571.303 -40.1358 563.304C-38.998 553.978 -38.2721 539.222 -37.5601 524.948C-37.1413 516.488 -36.7435 508.502 -36.2828 501.962C-34.8379 481.6 -34.7261 466.46 -34.7261 454.175C-34.7261 452.988 -34.7261 451.837 -34.7261 450.699C-34.7261 449.547 -34.7261 448.416 -34.7261 447.307C-34.7261 440.941 -34.6913 435.224 -34.426 429.5C-33.8536 417.096 -33.5046 403.464 -33.0998 387.674C-32.4785 363.307 -31.7666 335.693 -30.0006 303.067C-29.4561 292.974 -26.5104 283.739 -21.4917 276.368C-16.1448 268.515 -8.52942 262.994 0.544872 260.383C8.73965 255.678 27.4397 249.005 47.2426 241.941C64.5186 235.778 82.381 229.405 92.1743 224.603C96.8231 222.327 98.0586 211.543 98.0586 199.034C98.0586 190.916 97.5351 182.072 97.0744 174.345C96.6975 168.014 96.3414 162.039 96.3414 157.627C96.3414 157.09 96.7812 156.65 97.3187 156.65C97.8562 156.65 98.2959 157.09 98.2959 157.627C98.2959 161.976 98.6519 167.93 99.0219 174.226C99.4966 182.191 100.013 190.881 100.013 198.873C100.013 212.248 98.5612 223.639 93.0328 226.355C83.1418 231.206 65.2237 237.6 47.8988 243.777C28.9684 250.527 9.39579 257.514 1.4174 262.135C1.3476 262.177 1.27085 262.205 1.19407 262.226C-15.9912 267.112 -26.9223 282.42 -28.0461 303.172C-29.8121 335.77 -30.524 363.369 -31.1453 387.723C-31.5501 403.52 -31.8991 417.166 -32.4715 429.584C-32.7368 435.266 -32.7647 440.962 -32.7647 447.307C-32.7647 448.409 -32.7647 449.54 -32.7647 450.685C-32.7647 451.823 -32.7647 452.981 -32.7647 454.168C-32.7647 466.488 -32.8764 481.663 -34.3283 502.087C-34.789 508.607 -35.1868 516.585 -35.6056 525.031C-36.3176 539.341 -37.0506 554.132 -38.1954 563.527C-39.1586 571.443 -39.6402 581.857 -39.6402 592.935C-39.6402 604.096 -39.1516 615.942 -38.1744 626.608C-37.4624 634.37 -36.2758 653.998 -35.0123 674.785C-33.372 701.847 -31.5153 732.525 -30.4962 739.897C-30.4962 739.931 -30.4892 739.973 -30.4892 740.015C-30.4822 740.504 -30.4752 740.992 -30.4752 741.481C-30.4752 743.826 -30.573 746.151 -30.7754 748.426C-30.9778 757.78 -31.5571 768.655 -32.1155 779.174C-32.7577 791.243 -33.365 802.76 -33.365 810.983C-33.365 812.854 -33.3301 814.557 -33.2603 816.051C-33.0439 820.658 -29.8051 832.643 -27.8716 839.811C-27.4807 841.249 -27.1386 842.52 -26.8734 843.539C-25.6798 848.09 -21.6941 852.474 -17.834 856.717C-16.5497 858.127 -15.3421 859.461 -14.2532 860.78C-13.8762 861.136 -11.0423 863.802 -8.50845 865.659C-4.18072 868.842 4.94946 874.566 7.76947 875.864C8.84443 876.36 10.2963 876.814 11.1479 876.192C11.8668 875.662 12.153 874.357 12.16 873.072C12.16 872.667 12.1321 872.269 12.0832 871.892C11.7761 869.631 10.4219 867.837 7.41348 865.694C7.23897 865.568 7.10632 865.387 7.0435 865.178C6.26171 862.546 2.58308 859.454 1.22892 858.483C1.04045 858.351 0.90789 858.148 0.852047 857.925C0.468136 856.368 -0.844189 853.646 -4.94856 849.486C-7.05659 847.357 -10.6513 843.664 -10.6513 843.664C-10.77 843.546 -10.8538 843.392 -10.8957 843.232L-15.2584 826.821C-15.2793 826.737 -15.2932 826.654 -15.2932 826.57C-15.2932 826.493 -15.2862 826.423 -15.2653 826.347L-11.6565 810.599C-11.5518 810.145 -11.133 809.817 -10.6793 809.838C-10.2186 809.845 -9.82074 810.18 -9.73698 810.641C-9.11574 814.026 -7.51725 823.317 -7.27294 824.825C-6.67264 829.034 -6.13521 834.171 -5.74432 837.927C-5.50699 840.202 -5.30456 842.164 -5.2208 842.541C-4.25055 847.036 -1.81439 848.844 0.161011 848.641C2.04567 848.446 4.09084 846.317 4.13272 842.087C4.13272 841.522 4.13971 840.977 4.13971 840.447C4.13971 835.707 3.93732 832.671 3.74187 829.725C3.60925 827.784 3.47663 825.781 3.40683 823.331C3.32307 820.511 3.28119 817.433 3.23233 814.173C3.14158 807.884 3.05079 801.385 2.65291 796.695C2.65291 796.667 2.65291 796.639 2.65291 796.618C2.65291 796.569 2.65293 796.52 2.66689 796.471C3.20436 792.932 3.42072 788.604 3.42072 784.109C3.42072 775.23 2.56916 765.695 1.61287 760.335C0.496033 754.087 -1.52825 748.203 -2.50548 745.376C-2.72187 744.741 -2.87539 744.301 -2.98009 743.973C-3.19648 743.924 -3.38496 743.805 -3.52457 743.631C-3.66417 743.456 -3.74099 743.24 -3.74099 743.017C-3.74099 742.982 -3.74099 742.947 -3.74099 742.905L2.28294 687.454C2.33878 686.924 2.81346 686.533 3.35094 686.589C3.85351 686.637 4.23045 687.063 4.23045 687.559C4.23045 687.587 4.23045 687.615 4.23045 687.643C3.40678 697.038 3.0787 708.59 3.0787 719.807C3.0787 737.237 3.85349 753.871 4.71903 760.37C9.08865 793.274 14.8753 831.631 19.4544 858.1C20.983 866.867 22.6862 876.772 24.4801 887.256C32.8354 935.985 44.276 1002.72 59.081 1072.67C59.081 1072.7 59.088 1072.72 59.095 1072.75C59.2346 1073.82 61.7056 1093.12 61.7056 1107.8C61.7056 1112.58 61.4403 1116.88 60.7493 1119.89C58.2923 1130.56 53.8458 1171.77 53.8458 1208.83C53.8458 1214.15 53.9366 1219.37 54.139 1224.42C56.1842 1250.14 64.1138 1281.14 71.7781 1311.12C80.1194 1343.73 88.74 1377.45 89.8777 1404.69C89.8917 1405.01 89.8917 1405.35 89.8917 1405.69C89.8917 1409.75 89.082 1415.01 87.4766 1421.35C87.323 1421.95 87.2463 1422.56 87.2463 1423.15C87.2463 1423.43 87.2672 1423.71 87.3021 1423.98C87.7209 1427.29 88.6004 1429.73 88.6144 1429.75C88.6562 1429.86 88.6772 1429.98 88.6772 1430.09C88.6772 1430.28 88.6213 1430.48 88.5096 1430.64C78.0533 1445.93 59.479 1476.51 58.2853 1479.61C58.2853 1479.61 58.2853 1479.63 58.2853 1479.63C58.2853 1479.69 58.2853 1479.75 58.2714 1479.81C58.0061 1481.25 57.8874 1482.57 57.8874 1483.76C57.8874 1488.46 59.7023 1491.23 61.566 1492.27C63.3599 1493.26 65.461 1492.94 67.1781 1491.38C67.3875 1491.19 67.6667 1491.11 67.9459 1491.14C68.2252 1491.17 68.4764 1491.32 68.637 1491.55C70.2773 1493.92 72.2737 1495.05 74.7586 1495.01C75.2124 1495.01 76.7131 1495.12 80.0985 1495.39C92.3069 1496.36 124.737 1498.93 132.52 1496.32C137.19 1494.76 139.019 1487.62 139.019 1481.8C139.019 1479.97 138.837 1478.29 138.516 1476.94C137.776 1473.87 136.624 1461.85 135.787 1453.07C135.605 1451.17 135.438 1449.43 135.298 1447.99L131.592 1424.51C131.592 1424.51 131.592 1424.47 131.585 1424.45C131.389 1422.45 131.305 1420.71 131.305 1419.16C131.305 1415.2 131.843 1412.45 132.401 1409.59L132.52 1408.98C132.597 1408.59 132.632 1408.16 132.632 1407.67C132.632 1404.9 131.515 1400.62 130.51 1396.79C129.588 1393.28 128.723 1389.96 128.66 1387.75C128.632 1385.85 128.618 1384.29 128.618 1382.61C128.618 1380.78 128.632 1378.81 128.667 1376.12C128.911 1354.21 129.777 1332.26 130.614 1311.03C131.599 1286.06 132.611 1260.4 132.611 1234.6C132.611 1228.57 132.555 1222.53 132.429 1216.49C132.304 1209.76 132.255 1202.03 132.255 1193.99C132.255 1182.04 132.352 1169.41 132.443 1158.4C132.513 1149.92 132.576 1141.92 132.583 1135.78C132.59 1127.63 133.581 1121.69 134.726 1114.81C136.24 1105.68 138.048 1094.79 138.048 1074.79C138.048 1069.44 137.916 1063.44 137.615 1056.65C137.615 1056.63 137.615 1056.62 137.615 1056.6C137.615 1056.59 137.615 1056.58 137.615 1056.57C137.762 1051.94 137.825 1046.65 137.825 1040.86C137.825 1012.6 136.296 972.484 135.019 939.133C134.111 915.282 133.316 894.564 133.316 884.122C133.316 883.71 133.316 883.312 133.316 882.928V882.796C133.441 864.431 133.811 808.54 137.923 773.576C137.979 773.081 138.397 772.711 138.893 772.711H142.767C143.262 772.711 143.695 773.081 143.758 773.576C147.869 808.54 148.239 864.431 148.358 882.796V882.928C148.358 883.305 148.358 883.703 148.358 884.122C148.358 894.564 147.569 915.282 146.655 939.133C145.385 972.484 143.849 1012.6 143.849 1040.86C143.849 1046.65 143.912 1051.93 144.058 1056.57C144.058 1056.58 144.058 1056.59 144.058 1056.6C144.058 1056.61 144.058 1056.62 144.058 1056.65C143.758 1063.47 143.625 1069.5 143.625 1074.86C143.625 1094.83 145.433 1105.7 146.948 1114.81C148.093 1121.69 149.077 1127.63 149.091 1135.78C149.091 1141.92 149.161 1149.92 149.231 1158.4C149.321 1169.41 149.419 1182.04 149.419 1193.99C149.419 1202.03 149.37 1209.76 149.245 1216.49C149.119 1222.53 149.063 1228.57 149.063 1234.6C149.063 1260.4 150.075 1286.06 151.059 1311.03C151.897 1332.26 152.763 1354.21 153.007 1376.12C153.042 1378.81 153.056 1380.78 153.056 1382.61C153.056 1384.28 153.042 1385.83 153.021 1387.73C152.958 1389.96 152.093 1393.27 151.171 1396.78C150.166 1400.62 149.049 1404.89 149.049 1407.67C149.049 1408.15 149.084 1408.59 149.161 1408.97L149.28 1409.59C149.838 1412.45 150.375 1415.19 150.375 1419.16C150.375 1420.71 150.292 1422.44 150.103 1424.45C150.103 1424.47 150.103 1424.49 150.096 1424.5L146.39 1447.98C146.25 1449.42 146.083 1451.15 145.901 1453.06C145.063 1461.84 143.919 1473.86 143.172 1476.92C142.844 1478.27 142.669 1479.97 142.669 1481.78C142.669 1487.6 144.498 1494.74 149.168 1496.31C156.951 1498.92 189.381 1496.34 201.589 1495.37C204.982 1495.1 206.496 1495 206.929 1495C209.4 1495.05 211.41 1493.91 213.051 1491.53C213.211 1491.3 213.463 1491.15 213.742 1491.12C214.021 1491.09 214.3 1491.18 214.51 1491.37C216.227 1492.92 218.328 1493.25 220.122 1492.25C221.986 1491.21 223.8 1488.43 223.8 1483.75C223.8 1482.56 223.682 1481.24 223.416 1479.79C223.402 1479.74 223.402 1479.67 223.402 1479.62C223.402 1479.62 223.402 1479.6 223.402 1479.6C222.209 1476.49 203.634 1445.9 193.178 1430.62C193.066 1430.46 193.011 1430.27 193.011 1430.07C193.011 1429.96 193.032 1429.84 193.073 1429.74C193.08 1429.72 193.967 1427.28 194.386 1423.97C194.421 1423.69 194.435 1423.41 194.442 1423.13C194.442 1422.54 194.365 1421.94 194.211 1421.33C192.606 1415 191.796 1409.74 191.796 1405.68C191.796 1405.34 191.796 1405.01 191.81 1404.68C192.948 1377.44 201.568 1343.71 209.91 1311.1C217.581 1281.12 225.503 1250.12 227.556 1224.37C227.758 1219.33 227.849 1214.1 227.849 1208.79C227.849 1171.76 223.402 1130.54 220.938 1119.88C220.247 1116.87 219.982 1112.57 219.982 1107.78C219.982 1093.1 222.453 1073.8 222.593 1072.73C222.593 1072.71 222.6 1072.69 222.607 1072.66C237.412 1002.7 248.852 935.971 257.208 887.242C259.009 876.758 260.705 866.853 262.234 858.086C266.813 831.624 272.599 793.26 276.969 760.356C277.834 753.857 278.609 737.23 278.609 719.793C278.609 708.576 278.288 697.024 277.457 687.629C277.457 687.601 277.457 687.573 277.457 687.545C277.457 687.049 277.834 686.623 278.337 686.575C278.867 686.526 279.349 686.91 279.405 687.44L285.429 742.891C285.429 742.926 285.429 742.961 285.429 743.003C285.429 743.226 285.352 743.442 285.212 743.617C285.073 743.792 284.884 743.91 284.668 743.959C284.563 744.28 284.41 744.72 284.193 745.362C283.216 748.189 281.192 754.073 280.075 760.321C279.119 765.688 278.267 775.216 278.267 784.095C278.267 788.591 278.483 792.918 279.021 796.457C279.028 796.506 279.035 796.555 279.035 796.597C279.035 796.625 279.035 796.653 279.035 796.681C278.637 801.371 278.546 807.877 278.456 814.166C278.407 817.426 278.365 820.504 278.281 823.317C278.211 825.767 278.072 827.771 277.946 829.704C277.751 832.643 277.548 835.679 277.548 840.398C277.548 840.928 277.548 841.487 277.555 842.066C277.597 846.296 279.642 848.432 281.527 848.62C283.502 848.816 285.938 847.015 286.909 842.52C286.992 842.143 287.195 840.181 287.432 837.906C287.823 834.15 288.36 829.013 288.954 824.818C289.198 823.31 290.796 814.019 291.418 810.62C291.501 810.166 291.892 809.831 292.36 809.817C292.821 809.789 293.233 810.125 293.337 810.578L296.946 826.326C296.96 826.395 296.974 826.472 296.974 826.549C296.974 826.633 296.96 826.717 296.939 826.8L292.577 843.211C292.535 843.371 292.451 843.525 292.332 843.643C292.332 843.643 288.737 847.329 286.629 849.465C282.525 853.625 281.206 856.355 280.829 857.904C280.773 858.128 280.64 858.33 280.452 858.463C280.403 858.497 275.58 861.988 274.637 865.157C274.574 865.366 274.442 865.547 274.267 865.673C271.259 867.816 269.905 869.61 269.598 871.872C269.549 872.249 269.521 872.653 269.521 873.051C269.521 874.343 269.807 875.641 270.533 876.171C271.378 876.793 272.836 876.339 273.911 875.843C276.731 874.545 285.861 868.821 290.189 865.638C292.723 863.774 295.557 861.108 295.934 860.759C297.023 859.44 298.237 858.107 299.522 856.696C303.382 852.453 307.368 848.062 308.561 843.518C308.826 842.506 309.168 841.235 309.559 839.791C311.493 832.629 314.732 820.637 314.948 816.03C315.018 814.529 315.053 812.833 315.053 810.962C315.053 802.739 314.439 791.222 313.803 779.153C313.245 768.634 312.666 757.766 312.463 748.412C312.268 746.144 312.163 743.812 312.163 741.467C312.163 740.978 312.163 740.49 312.177 740.001C312.177 739.959 312.177 739.924 312.184 739.883C313.196 732.504 315.06 701.826 316.7 674.764C317.956 653.984 319.15 634.349 319.862 626.594C320.839 615.935 321.328 604.089 321.328 592.928C321.328 581.85 320.846 571.443 319.883 563.52C318.738 554.125 318.005 539.334 317.293 525.024C316.875 516.578 316.477 508.6 316.016 502.08C314.571 481.656 314.452 466.481 314.452 454.161C314.452 452.974 314.452 451.816 314.452 450.678C314.452 449.526 314.452 448.402 314.452 447.3C314.452 440.955 314.418 435.259 314.159 429.577C313.587 417.152 313.238 403.513 312.833 387.716C312.212 363.362 311.5 335.763 309.734 303.165C308.61 282.413 297.679 267.105 280.494 262.219C280.417 262.198 280.34 262.163 280.27 262.128C272.292 257.507 252.719 250.527 233.789 243.77C216.464 237.586 198.546 231.199 188.655 226.348C183.127 223.639 181.682 212.241 181.675 198.866C181.675 190.874 182.191 182.184 182.666 174.219C183.043 167.916 183.392 161.969 183.392 157.62C183.392 157.083 183.832 156.643 184.369 156.643C184.907 156.643 185.346 157.083 185.346 157.62C185.346 162.032 184.99 168.007 184.613 174.338C184.153 182.079 183.629 190.951 183.629 199.083C183.629 211.563 184.879 222.313 189.513 224.589C199.307 229.391 217.169 235.764 234.445 241.927C254.248 248.991 272.948 255.664 281.143 260.369C290.217 262.98 297.833 268.501 303.179 276.354C308.198 283.725 311.137 292.96 311.688 303.053C313.454 335.679 314.166 363.293 314.787 387.661C315.192 403.45 315.541 417.082 316.114 429.486C316.379 435.21 316.414 440.92 316.414 447.293C316.414 448.402 316.414 449.533 316.414 450.685C316.414 451.816 316.414 452.974 316.414 454.161C316.414 466.446 316.526 481.586 317.97 501.948C318.431 508.488 318.829 516.474 319.248 524.934C319.953 539.208 320.686 553.964 321.824 563.29C322.801 571.282 323.283 581.795 323.283 592.97C323.283 604.187 322.787 616.081 321.81 626.782C321.098 634.509 319.911 654.13 318.655 674.904C316.937 703.25 315.157 732.567 314.138 740.106C314.131 740.567 314.124 741.02 314.124 741.481C314.124 743.777 314.222 746.06 314.418 748.287C314.418 748.308 314.418 748.329 314.418 748.35C314.62 757.675 315.199 768.55 315.758 779.063C316.4 791.138 317.014 802.677 317.014 810.955C317.014 812.868 316.979 814.606 316.909 816.135C316.686 820.951 313.538 832.601 311.458 840.307C311.067 841.745 310.732 843.008 310.467 844.02C309.154 849.032 304.813 853.807 300.981 858.023C299.703 859.433 298.489 860.759 297.421 862.064C297.393 862.092 297.372 862.12 297.344 862.148C297.218 862.267 294.175 865.164 291.369 867.23C286.881 870.531 277.716 876.276 274.749 877.637C272.494 878.677 270.694 878.719 269.395 877.763C267.888 876.646 267.601 874.517 267.601 873.051C267.601 872.388 267.664 871.858 267.692 871.627C268.153 868.214 270.547 866.001 272.899 864.291C274.051 861.059 277.953 857.939 279.056 857.108C279.621 855.168 280.975 852.941 283.097 850.47C282.497 850.617 281.911 850.652 281.359 850.596C278.546 850.31 275.684 847.573 275.629 842.115C275.629 841.529 275.622 840.963 275.622 840.426C275.622 835.644 275.824 832.58 276.026 829.606C276.152 827.687 276.285 825.697 276.361 823.289C276.445 820.49 276.487 817.419 276.536 814.166C276.627 807.891 276.717 801.413 277.115 796.66C276.557 792.911 276.341 788.542 276.341 784.102C276.341 782.469 276.368 780.836 276.424 779.209C272.501 807.256 267.957 836.817 264.209 858.449C262.68 867.216 260.977 877.121 259.183 887.605C250.828 936.341 239.387 1003.08 224.575 1073.06C224.449 1074.06 221.992 1093.51 221.992 1107.96C221.992 1112.56 222.244 1116.64 222.893 1119.47C225.245 1129.67 229.866 1170.1 229.859 1208.26C229.859 1213.76 229.761 1219.21 229.552 1224.51C227.493 1250.47 219.542 1281.55 211.85 1311.62C203.537 1344.13 194.937 1377.75 193.806 1404.78C193.792 1405.08 193.792 1405.38 193.792 1405.7C193.792 1409.59 194.581 1414.7 196.152 1420.89C196.34 1421.64 196.438 1422.4 196.438 1423.15C196.438 1423.51 196.417 1423.88 196.368 1424.24C196.033 1426.92 195.412 1429.04 195.119 1429.95C200.773 1438.25 208.653 1450.8 214.21 1459.88C217.386 1465.07 220.226 1469.82 222.209 1473.25C224.875 1477.87 225.455 1479.08 225.455 1479.65C225.455 1479.69 225.455 1479.72 225.448 1479.76C225.706 1481.23 225.818 1482.59 225.818 1483.84C225.818 1489.32 223.577 1492.63 221.134 1493.99C218.9 1495.23 216.283 1495.04 214.091 1493.51C212.171 1495.86 209.784 1497.01 206.95 1496.98C206.95 1496.98 206.936 1496.98 206.929 1496.98C206.517 1496.98 204.43 1497.15 201.799 1497.36C192.78 1498.07 175.658 1499.43 162.87 1499.43H162.8ZM133.476 1424.26L137.183 1447.73C137.183 1447.73 137.183 1447.77 137.19 1447.79C137.329 1449.23 137.497 1450.99 137.685 1452.91C138.474 1461.14 139.661 1473.57 140.366 1476.5C140.568 1477.32 140.715 1478.26 140.812 1479.28C140.91 1478.26 141.064 1477.32 141.259 1476.51C141.964 1473.58 143.158 1461.14 143.94 1452.91C144.121 1450.99 144.289 1449.24 144.435 1447.8C144.435 1447.77 144.435 1447.76 144.442 1447.74L148.149 1424.27C148.337 1422.32 148.414 1420.66 148.414 1419.18C148.414 1415.44 147.911 1412.86 147.346 1410L147.227 1409.38C147.13 1408.87 147.081 1408.3 147.088 1407.69C147.088 1404.64 148.198 1400.43 149.266 1396.32C150.152 1392.92 150.997 1389.71 151.052 1387.72C151.08 1385.85 151.087 1384.3 151.087 1382.64C151.087 1380.81 151.073 1378.85 151.039 1376.17C150.794 1354.29 149.929 1332.36 149.091 1311.14C148.1 1286.15 147.088 1260.46 147.095 1234.63C147.095 1228.59 147.151 1222.54 147.276 1216.49C147.402 1209.78 147.451 1202.05 147.451 1194.02C147.451 1182.08 147.353 1169.46 147.262 1158.45C147.192 1149.98 147.13 1141.96 147.123 1135.82C147.116 1127.84 146.138 1121.97 145.008 1115.17C143.479 1105.97 141.657 1094.99 141.657 1074.86C141.657 1069.48 141.79 1063.45 142.09 1056.63C141.943 1052 141.88 1046.71 141.88 1040.93C141.88 1012.63 143.409 972.477 144.686 939.098C145.594 915.275 146.383 894.571 146.383 884.171C146.383 883.759 146.383 883.361 146.383 882.984V882.852C146.264 864.661 145.894 809.622 141.894 774.714H139.745C135.738 809.622 135.375 864.668 135.256 882.852V882.984C135.256 883.361 135.256 883.759 135.256 884.171C135.256 894.571 136.045 915.268 136.952 939.098C138.223 972.471 139.758 1012.62 139.758 1040.93C139.758 1046.71 139.696 1052 139.549 1056.63C139.849 1063.45 139.982 1069.48 139.982 1074.86C139.982 1095 138.16 1105.97 136.631 1115.17C135.501 1121.97 134.523 1127.84 134.516 1135.82C134.516 1141.96 134.446 1149.97 134.377 1158.45C134.286 1169.46 134.188 1182.08 134.188 1194.02C134.188 1202.05 134.237 1209.78 134.363 1216.49C134.488 1222.54 134.544 1228.59 134.544 1234.63C134.544 1260.47 133.532 1286.15 132.548 1311.14C131.71 1332.36 130.845 1354.3 130.6 1376.17C130.566 1378.85 130.552 1380.81 130.552 1382.64C130.552 1384.3 130.566 1385.85 130.593 1387.74C130.649 1389.71 131.487 1392.92 132.38 1396.32C133.455 1400.43 134.558 1404.65 134.558 1407.69C134.558 1408.3 134.516 1408.87 134.412 1409.38L134.293 1410C133.734 1412.86 133.225 1415.44 133.225 1419.18C133.225 1420.66 133.302 1422.32 133.49 1424.27L133.476 1424.26ZM-9.10875 842.464C-8.71087 842.869 -7.69873 843.909 -6.56793 845.068C-6.80526 844.425 -7.00768 843.72 -7.17521 842.946C-7.27293 842.485 -7.42653 841.054 -7.73366 838.122C-8.12455 834.381 -8.65499 829.264 -9.24831 825.111C-9.40886 824.113 -10.1837 819.597 -10.8608 815.716L-13.3457 826.542L-9.11573 842.471L-9.10875 842.464ZM292.479 815.716C291.802 819.604 291.027 824.127 290.859 825.125C290.266 829.264 289.735 834.381 289.345 838.122C289.037 841.054 288.891 842.485 288.786 842.946C288.619 843.72 288.416 844.425 288.179 845.068C289.31 843.909 290.322 842.869 290.72 842.464L294.95 826.535L292.465 815.709L292.479 815.716ZM280.543 719.731C280.543 732.798 280.11 745.425 279.53 753.738C280.549 749.892 281.673 746.632 282.329 744.727C282.588 743.98 282.853 743.205 282.902 742.989C282.93 742.675 283.104 742.395 283.369 742.235L280.529 716.087C280.536 717.308 280.543 718.523 280.543 719.738V719.731ZM-1.28394 742.989C-1.23508 743.205 -0.969784 743.98 -0.711517 744.727C-0.0553741 746.632 1.06845 749.892 2.08756 753.738C1.5082 745.446 1.07538 732.854 1.07538 719.814C1.07538 718.572 1.07539 717.329 1.08935 716.087L-1.75156 742.235C-1.49329 742.395 -1.31186 742.668 -1.28394 742.989ZM282.902 743.059C282.902 743.059 282.902 743.079 282.902 743.086V743.073C282.902 743.073 282.902 743.031 282.902 743.017C282.902 743.031 282.902 743.052 282.902 743.059ZM-1.28394 743.073V743.086V743.059C-1.28394 743.059 -1.28394 743.024 -1.28394 743.01C-1.28394 743.031 -1.28394 743.052 -1.28394 743.073ZM12.0902 623.913C12.0204 623.913 11.9506 623.906 11.8807 623.892C11.427 623.794 11.1129 623.397 11.1129 622.943C11.1129 622.894 11.113 622.845 11.1269 622.789C11.8878 616.451 12.4462 607.063 13.1582 595.176C14.1075 579.379 15.2801 559.723 17.4579 539.02C20.0267 514.512 22.4348 470.99 22.4348 436.913C22.4348 432.725 22.4 428.683 22.3232 424.837V424.816C22.3232 424.314 22.7071 423.881 23.2097 423.839C23.7332 423.79 24.1799 424.139 24.2637 424.649C26.6788 439.768 29.7851 455.397 32.7935 470.516C38.1893 497.676 43.2917 523.349 43.2917 540.869C43.2917 541.198 43.2917 541.526 43.2917 541.854C43.1661 552.82 38.5034 562.075 32.5981 573.802C26.5951 585.717 19.1262 600.543 13.0465 623.194C12.9278 623.627 12.5369 623.92 12.1042 623.92L12.0902 623.913ZM24.3893 437.094C24.3893 471.221 21.9742 514.708 19.4054 539.229C17.2346 559.891 16.0619 579.519 15.1126 595.294C14.7077 602.002 14.3587 607.914 13.9888 612.94C19.5032 595.434 25.7086 583.121 30.846 572.923C36.863 560.972 41.2117 552.345 41.3373 541.833C41.3373 541.512 41.3373 541.184 41.3373 540.862C41.3373 523.545 36.2557 497.955 30.874 470.9C28.6613 459.78 26.3996 448.375 24.3893 437.101V437.094ZM269.521 623.899C269.088 623.899 268.704 623.62 268.585 623.187C262.506 600.536 255.037 585.71 249.034 573.795C243.129 562.068 238.459 552.813 238.34 541.847C238.34 541.519 238.34 541.191 238.34 540.862C238.34 523.349 243.443 497.669 248.838 470.509C251.84 455.39 254.953 439.761 257.368 424.642C257.452 424.125 257.92 423.769 258.436 423.825C258.939 423.881 259.309 424.3 259.309 424.802C259.309 424.816 259.309 424.837 259.309 424.851C259.232 428.697 259.197 432.739 259.197 436.92C259.197 470.99 261.605 514.505 264.174 539.02C266.345 559.723 267.524 579.379 268.474 595.176C269.186 607.07 269.751 616.472 270.505 622.789C270.505 622.831 270.512 622.866 270.512 622.908C270.512 623.369 270.184 623.787 269.723 623.878C269.66 623.892 269.598 623.899 269.535 623.899H269.521ZM240.295 541.833C240.413 552.345 244.762 560.979 250.779 572.923C255.916 583.121 262.122 595.441 267.636 612.94C267.266 607.914 266.91 602.002 266.512 595.294C265.57 579.519 264.39 559.891 262.22 539.229C259.644 514.715 257.236 471.221 257.236 437.094C255.225 448.375 252.964 459.773 250.751 470.893C245.376 497.948 240.288 523.531 240.288 540.855C240.288 541.184 240.288 541.505 240.288 541.826L240.295 541.833Z" fill="#E1B9AF"/>
</g>
<g filter="url(#filter0_f_28_1688)">
<circle cx="18.4605" cy="18.4605" r="18.4605" transform="matrix(1 0 0 -1 123.175 210.394)" fill="#F2978B" fill-opacity="0.4"/>
</g>
<circle cx="11.0763" cy="11.0763" r="11.0763" transform="matrix(1 0 0 -1 130.56 203.01)" fill="#F1836B"/>
<defs>
<filter id="filter0_f_28_1688" x="119.175" y="169.473" width="44.9209" height="44.9209" filterUnits="userSpaceOnUse" color-interpolation-filters="sRGB">
<feFlood flood-opacity="0" result="BackgroundImageFix"/>
<feBlend mode="normal" in="SourceGraphic" in2="BackgroundImageFix" result="shape"/>
<feGaussianBlur stdDeviation="2" result="effect1_foregroundBlur_28_1688"/>
</filter>
</defs>
</svg>
