<svg width="284" height="303" viewBox="0 0 284 303" fill="none" xmlns="http://www.w3.org/2000/svg">
<mask id="mask0_28_1718" style="mask-type:luminance" maskUnits="userSpaceOnUse" x="0" y="0" width="284" height="303">
<path d="M196.13 0H87.4203C39.1394 0 0 39.1394 0 87.4203V214.747C0 263.027 39.1394 302.167 87.4203 302.167H196.13C244.411 302.167 283.551 263.027 283.551 214.747V87.4203C283.551 39.1394 244.411 0 196.13 0Z" fill="white"/>
</mask>
<g mask="url(#mask0_28_1718)">
<path d="M314.075 740.022C315.861 727.046 320.098 644.742 321.753 626.685C323.582 606.735 323.819 580.217 321.767 563.402C319.952 548.52 319.156 519.615 317.907 502.011C315.401 466.663 316.895 447.754 316.057 429.528C314.605 397.95 314.542 356.836 311.631 303.109C310.577 283.676 300.428 266.61 281.679 261.277C266.351 252.405 210.76 235.639 190.008 225.461C179.182 220.156 185.289 175.986 185.289 157.614C185.289 145.468 167.65 129.476 141.768 129.476C115.892 129.476 98.2461 145.468 98.2461 157.614C98.2461 175.986 104.354 220.156 93.5274 225.461C72.7752 235.639 17.1848 252.398 1.8562 261.277C-16.8927 266.61 -27.0419 283.676 -28.096 303.109C-31.0067 356.836 -31.0695 397.95 -32.5214 429.528C-33.359 447.754 -31.8722 466.663 -34.3712 502.011C-35.6206 519.615 -36.4164 548.52 -38.2313 563.402C-40.2765 580.21 -40.0461 606.728 -38.2173 626.685C-36.563 644.742 -32.319 727.046 -30.539 740.022C-30.4902 742.801 -30.5809 745.586 -30.8252 748.364C-31.3139 770.833 -33.9663 802.188 -33.3102 816.086C-33.0449 821.719 -28.5218 837.564 -26.8954 843.77C-25.2271 850.129 -18.4214 856.124 -14.0448 861.436C-14.0448 861.436 -10.9526 864.389 -8.16747 866.441C-3.71409 869.715 5.40213 875.425 8.28496 876.751C14.1274 879.445 14.26 873.889 13.9669 871.753C13.569 868.842 11.6076 866.818 8.89922 864.892C7.85219 861.36 2.72175 857.681 2.72175 857.681C1.84224 854.107 -2.02484 850.115 -3.33712 848.788C-5.43817 846.659 -9.03301 842.974 -9.03301 842.974L-13.3956 826.563L-9.78684 810.816C-9.1656 814.201 -7.56712 823.492 -7.32979 824.979C-6.3386 831.938 -5.50101 841.682 -5.27066 842.75C-3.12075 852.676 5.92565 851.357 6.01639 842.094C6.10015 832.964 5.48587 829.851 5.29042 823.304C5.03913 814.955 5.13689 803.738 4.53659 796.611C6.2258 785.415 4.82277 767.699 3.47558 760.153C1.91899 751.442 -1.31284 743.652 -1.30585 743.073L-1.86431 743.017L4.15963 687.566C2.03066 711.766 3.26613 750.074 4.6552 760.502C9.1016 793.973 14.9232 832.427 19.3975 858.267C27.9692 907.31 40.9943 987.667 59.0312 1072.87C59.0312 1072.87 63.5194 1107.48 60.7064 1119.68C57.8864 1131.91 52.4349 1183.64 54.0682 1224.46C58.3471 1278.32 87.6362 1352.57 89.807 1404.74C89.807 1404.74 89.807 1404.75 89.807 1404.76C89.9885 1409.89 88.6413 1416.38 87.4407 1421.14C87.1964 1422.12 87.1196 1423.13 87.2452 1424.13C87.685 1427.61 88.6064 1430.12 88.6064 1430.12C77.8708 1445.81 57.321 1479.63 58.2075 1479.67C55.9599 1491.93 63.6591 1496.75 68.7337 1492.16C72.5239 1497.63 77.7381 1496.37 82.1427 1494.1C86.8892 1499.04 94.4489 1496.71 97.2968 1495.47C98.637 1497.89 110.51 1498.93 113.749 1493.29C116.869 1497.67 123.947 1500.58 133.74 1497.3C140.469 1495.05 141.865 1482.93 140.379 1476.76C139.492 1473.11 137.971 1455.89 137.182 1447.92L133.468 1424.42C132.756 1417.08 133.566 1413.5 134.397 1409.22C135.339 1404.39 130.697 1392.78 130.558 1387.78C130.558 1387.78 130.558 1387.77 130.558 1387.76C130.509 1383.87 130.502 1381.46 130.564 1376.17C131.165 1322.38 135.444 1270.31 134.334 1216.51C133.873 1192.13 134.466 1155.34 134.487 1135.82C134.515 1113.86 141.775 1107.7 139.52 1056.63C140.888 1012.47 135.053 909.076 135.227 882.97C135.346 865.464 135.709 808.729 139.827 773.73H143.722C147.841 808.729 148.204 865.471 148.322 882.97C148.497 909.076 142.661 1012.47 144.029 1056.63C141.775 1107.7 149.041 1113.86 149.062 1135.82C149.083 1155.34 149.676 1192.13 149.216 1216.51C148.106 1270.31 152.385 1322.38 152.985 1376.17C153.048 1381.46 153.048 1383.87 152.992 1387.76C152.992 1387.77 152.992 1387.77 152.992 1387.78C152.845 1392.78 148.21 1404.38 149.153 1409.22C149.983 1413.5 150.793 1417.08 150.081 1424.42L146.368 1447.92C145.579 1455.89 144.057 1473.11 143.171 1476.76C141.677 1482.93 143.073 1495.05 149.809 1497.3C159.602 1500.58 166.68 1497.67 169.8 1493.29C173.039 1498.93 184.913 1497.89 186.253 1495.47C189.101 1496.71 196.66 1499.05 201.407 1494.1C205.804 1496.37 211.026 1497.63 214.816 1492.16C219.89 1496.75 227.59 1491.94 225.342 1479.67C226.235 1479.64 205.679 1445.81 194.943 1430.12C194.943 1430.12 195.871 1427.61 196.304 1424.13C196.43 1423.14 196.353 1422.12 196.109 1421.14C194.901 1416.38 193.561 1409.88 193.742 1404.76C193.742 1404.76 193.742 1404.74 193.742 1404.74C195.92 1352.57 225.202 1278.32 229.481 1224.46C231.122 1183.64 225.663 1131.91 222.843 1119.68C220.03 1107.48 224.518 1072.87 224.518 1072.87C242.555 987.667 255.58 907.31 264.152 858.267C268.626 832.42 274.448 793.966 278.894 760.502C280.283 750.067 281.519 711.766 279.39 687.566L285.414 743.017L284.855 743.073C284.862 743.652 281.63 751.442 280.074 760.153C278.727 767.699 277.324 785.415 279.013 796.611C278.406 803.738 278.503 814.955 278.259 823.304C278.064 829.851 277.449 832.964 277.533 842.094C277.617 851.35 286.67 852.676 288.82 842.75C289.05 841.682 289.888 831.938 290.879 824.979C291.117 823.492 292.722 814.201 293.336 810.816L296.945 826.563L292.582 842.974C292.582 842.974 288.988 846.659 286.887 848.788C285.581 850.115 281.707 854.107 280.828 857.681C280.828 857.681 275.697 861.36 274.65 864.892C271.942 866.825 269.974 868.842 269.583 871.753C269.296 873.882 269.422 879.438 275.265 876.751C278.14 875.425 287.263 869.715 291.717 866.441C294.502 864.389 297.594 861.436 297.594 861.436C301.971 856.124 308.784 850.129 310.445 843.77C312.071 837.564 316.594 821.712 316.86 816.086C317.516 802.188 314.856 770.833 314.375 748.364C314.13 745.593 314.04 742.808 314.089 740.022H314.075ZM13.0594 622.936C13.0594 622.936 13.0594 622.922 13.0594 622.908C14.8463 608.005 15.6142 575.157 19.3905 539.125C22.1407 512.921 24.9886 461.072 24.2557 424.817V424.796C31.1173 467.759 43.57 514.924 43.2628 541.84C43.0185 563.36 25.2329 577.544 13.0524 622.936H13.0594ZM240.28 541.84C239.973 514.931 252.425 467.766 259.287 424.796V424.817C258.561 461.072 261.402 512.914 264.152 539.125C267.935 575.157 268.696 608.005 270.483 622.908C270.483 622.915 270.483 622.922 270.483 622.936C258.303 577.544 240.517 563.36 240.273 541.84H240.28Z" fill="#FDF5EE"/>
<path d="M157.773 1499.66C155.302 1499.66 152.538 1499.23 149.502 1498.21C144.518 1496.53 142.291 1490.4 141.782 1484.62C141.265 1490.4 139.045 1496.54 134.061 1498.21C124.233 1501.5 117.239 1498.66 113.805 1494.88C111.85 1497.1 108.339 1498.38 104.067 1498.38C104.012 1498.38 103.956 1498.38 103.893 1498.38C101.478 1498.36 98.4623 1497.88 97.0314 1496.63C94.4138 1497.65 87.0357 1499.89 81.975 1495.27C76.1884 1498.07 71.7909 1497.5 68.573 1493.53C66.3812 1495.05 63.7637 1495.25 61.53 1494.01C58.5285 1492.34 55.8341 1487.72 57.2162 1479.77C57.1324 1479.25 57.5931 1478.22 60.455 1473.27C62.4374 1469.83 65.2783 1465.09 68.4543 1459.89C74.0106 1450.81 81.8912 1438.27 87.5452 1429.97C87.252 1429.05 86.6309 1426.94 86.2958 1424.25C86.1562 1423.15 86.2329 1422.03 86.5191 1420.9C88.2153 1414.21 88.9971 1408.79 88.8575 1404.79C88.8575 1404.78 88.8575 1404.77 88.8575 1404.76C87.7267 1377.73 79.1341 1344.11 70.8206 1311.61C63.1354 1281.55 55.1849 1250.47 53.1258 1224.55C51.4296 1182.38 57.0975 1131.12 59.7849 1119.47C62.4863 1107.76 58.2702 1074.41 58.1027 1073.05C43.2906 1003.07 31.8501 936.327 23.4948 887.598C21.7009 877.114 19.9976 867.209 18.469 858.449C14.7276 836.817 10.1765 807.256 6.25357 779.209C6.456 785.247 6.32338 791.53 5.56253 796.66C5.96041 801.414 6.05112 807.891 6.14186 814.159C6.19072 817.412 6.2326 820.484 6.31637 823.29C6.38617 825.698 6.51887 827.687 6.65149 829.607C6.87486 832.915 7.09819 836.336 7.04932 842.115C7.00047 847.574 4.1386 850.31 1.31859 850.596C0.767151 850.652 0.180817 850.617 -0.419479 850.471C1.70251 852.949 3.05661 855.168 3.62201 857.109C4.72488 857.946 8.6199 861.067 9.77862 864.291C12.131 866.002 14.5251 868.214 14.9858 871.628C15.0836 872.368 15.4745 876.137 13.2827 877.763C11.9844 878.72 10.1835 878.678 7.92884 877.638C4.96225 876.276 -4.20283 870.532 -8.69111 867.23C-11.4972 865.164 -14.5405 862.274 -14.6661 862.148C-14.6941 862.121 -14.722 862.093 -14.7429 862.065C-15.8109 860.766 -17.0254 859.433 -18.3028 858.03C-22.1349 853.814 -26.4697 849.04 -27.789 844.028C-28.0542 843.016 -28.3962 841.752 -28.7871 840.314C-30.8672 832.608 -34.0084 820.958 -34.2387 816.142C-34.6226 807.975 -33.8757 793.931 -33.087 779.07C-32.5285 768.558 -31.9491 757.682 -31.7467 748.357C-31.7467 748.336 -31.7467 748.315 -31.7467 748.294C-31.5164 745.628 -31.4187 742.877 -31.4676 740.113C-32.4937 732.568 -34.2666 703.258 -35.9838 674.911C-37.2402 654.138 -38.4338 634.523 -39.1388 626.789C-41.1003 605.43 -41.1072 579.324 -39.1527 563.304C-38.015 553.979 -37.2821 539.222 -36.5771 524.948C-36.1583 516.488 -35.7604 508.503 -35.2997 501.962C-33.7152 479.639 -33.7361 463.592 -33.7431 450.699C-33.7431 442.93 -33.7571 436.222 -33.4499 429.5C-32.8776 417.096 -32.5285 403.464 -32.1237 387.675C-31.5024 363.307 -30.7905 335.693 -29.0245 303.068C-28.48 292.974 -25.5343 283.739 -20.5156 276.368C-15.1687 268.515 -7.55333 262.994 1.52096 260.383C9.71574 255.679 28.4158 249.006 48.2187 241.942C65.4947 235.778 83.3571 229.405 93.1503 224.603C100.808 220.848 99.2162 193.974 98.0505 174.345C97.6735 168.014 97.3175 162.039 97.3175 157.628C97.3175 151.101 101.973 143.842 109.777 138.209C118.447 131.954 129.824 128.513 141.81 128.513C153.795 128.513 165.179 131.954 173.849 138.209C181.653 143.835 186.308 151.094 186.308 157.628C186.308 162.039 185.952 168.014 185.576 174.345C184.41 193.967 182.818 220.841 190.476 224.603C200.269 229.405 218.131 235.778 235.407 241.942C255.21 249.006 273.91 255.679 282.105 260.383C291.179 262.994 298.795 268.515 304.142 276.368C309.16 283.739 312.099 292.974 312.65 303.068C314.416 335.693 315.128 363.307 315.75 387.675C316.155 403.464 316.504 417.096 317.076 429.5C317.383 436.222 317.376 442.93 317.369 450.699C317.355 463.592 317.341 479.639 318.926 501.962C319.386 508.503 319.784 516.488 320.203 524.948C320.908 539.222 321.641 553.979 322.779 563.304C324.733 579.324 324.726 605.43 322.765 626.789C322.053 634.516 320.866 654.138 319.61 674.911C317.893 703.258 316.113 732.575 315.087 740.113C315.038 742.877 315.135 745.628 315.366 748.294C315.366 748.315 315.366 748.336 315.366 748.357C315.568 757.682 316.148 768.558 316.706 779.07C317.495 793.938 318.242 807.975 317.858 816.142C317.634 820.958 314.486 832.608 312.406 840.314C312.015 841.752 311.68 843.016 311.415 844.028C310.103 849.04 305.761 853.814 301.929 858.03C300.651 859.44 299.437 860.766 298.369 862.065C298.341 862.093 298.32 862.121 298.292 862.148C298.166 862.274 295.123 865.164 292.317 867.23C287.829 870.532 278.664 876.276 275.697 877.638C273.443 878.678 271.642 878.72 270.343 877.763C268.145 876.137 268.535 872.368 268.64 871.628C269.101 868.214 271.495 866.002 273.847 864.291C274.999 861.06 278.901 857.939 280.004 857.109C280.569 855.168 281.923 852.942 284.045 850.471C283.445 850.617 282.859 850.652 282.307 850.596C279.494 850.31 276.633 847.574 276.577 842.115C276.521 836.343 276.751 832.915 276.974 829.607C277.1 827.687 277.233 825.698 277.31 823.29C277.393 820.484 277.435 817.412 277.484 814.159C277.575 807.891 277.666 801.407 278.063 796.653C277.303 791.523 277.17 785.247 277.372 779.209C273.45 807.256 268.905 836.817 265.157 858.449C263.621 867.216 261.925 877.121 260.131 887.605C251.776 936.341 240.335 1003.08 225.523 1073.06C225.356 1074.38 221.14 1107.76 223.841 1119.47C226.528 1131.14 232.189 1182.39 230.5 1224.52C228.441 1250.48 220.491 1281.56 212.798 1311.63C204.485 1344.13 195.892 1377.74 194.761 1404.78C194.761 1404.79 194.761 1404.8 194.761 1404.81C194.622 1408.81 195.411 1414.23 197.1 1420.92C197.386 1422.05 197.456 1423.18 197.323 1424.27C196.988 1426.96 196.367 1429.08 196.074 1429.99C201.728 1438.28 209.608 1450.83 215.165 1459.91C218.341 1465.11 221.182 1469.85 223.164 1473.29C226.026 1478.24 226.487 1479.28 226.403 1479.8C227.778 1487.75 225.09 1492.36 222.089 1494.04C219.855 1495.28 217.238 1495.09 215.046 1493.56C211.828 1497.52 207.431 1498.1 201.644 1495.3C196.576 1499.92 189.205 1497.68 186.588 1496.66C185.157 1497.91 182.141 1498.4 179.726 1498.41C175.384 1498.45 171.79 1497.15 169.814 1494.91C167.441 1497.52 163.364 1499.69 157.829 1499.69L157.773 1499.66ZM147.338 1448.03C147.198 1449.46 147.031 1451.2 146.849 1453.09C146.012 1461.88 144.86 1473.91 144.12 1476.97C142.752 1482.64 143.987 1494.3 150.116 1496.36C159.818 1499.61 166.352 1496.42 168.997 1492.71C169.193 1492.43 169.507 1492.29 169.842 1492.3C170.177 1492.31 170.477 1492.5 170.645 1492.78C172.208 1495.51 176.334 1496.45 179.649 1496.42C183.118 1496.39 185.129 1495.45 185.394 1494.98C185.638 1494.54 186.176 1494.35 186.643 1494.56C188.165 1495.22 196.004 1498.3 200.702 1493.4C201.002 1493.09 201.469 1493.01 201.853 1493.22C207.465 1496.12 211.214 1495.62 214.006 1491.58C214.166 1491.35 214.418 1491.2 214.697 1491.17C214.976 1491.14 215.255 1491.23 215.465 1491.42C217.182 1492.97 219.283 1493.3 221.077 1492.3C223.415 1491 225.677 1486.96 224.372 1479.84C224.358 1479.77 224.358 1479.7 224.358 1479.64C223.164 1476.53 204.59 1445.95 194.133 1430.67C193.952 1430.41 193.917 1430.07 194.022 1429.78C194.029 1429.76 194.915 1427.32 195.334 1424.01C195.439 1423.15 195.383 1422.26 195.159 1421.38C193.428 1414.54 192.626 1408.97 192.758 1404.79C192.758 1404.76 192.758 1404.74 192.758 1404.71C192.758 1404.69 192.758 1404.67 192.758 1404.64C193.903 1377.41 202.523 1343.71 210.858 1311.12C218.529 1281.14 226.459 1250.13 228.504 1224.38C230.116 1184.23 224.7 1132.09 221.887 1119.89C219.067 1107.66 223.359 1074.17 223.541 1072.75C223.541 1072.72 223.548 1072.7 223.555 1072.67C238.36 1002.72 249.801 935.985 258.156 887.256C259.957 876.772 261.653 866.867 263.182 858.1C267.761 831.638 273.547 793.275 277.917 760.37C279.334 749.69 280.513 711.634 278.405 687.643C278.357 687.112 278.747 686.638 279.285 686.582C279.822 686.533 280.297 686.917 280.353 687.448L286.377 742.898C286.405 743.157 286.328 743.415 286.167 743.617C286.028 743.792 285.839 743.911 285.623 743.959C285.518 744.28 285.365 744.72 285.148 745.362C284.171 748.189 282.14 754.074 281.03 760.321C279.585 768.404 278.385 785.924 279.976 796.458C279.99 796.534 279.99 796.611 279.983 796.688C279.585 801.379 279.494 807.884 279.404 814.166C279.355 817.426 279.313 820.504 279.229 823.324C279.159 825.775 279.02 827.778 278.894 829.718C278.678 832.992 278.447 836.378 278.503 842.08C278.545 846.31 280.59 848.446 282.475 848.635C284.443 848.83 286.886 847.029 287.857 842.534C287.94 842.157 288.143 840.196 288.38 837.92C288.771 834.165 289.309 829.027 289.909 824.832C290.153 823.311 291.752 814.013 292.373 810.634C292.457 810.181 292.848 809.846 293.315 809.832C293.783 809.804 294.188 810.139 294.292 810.593L297.901 826.34C297.936 826.494 297.936 826.654 297.894 826.808L293.532 843.218C293.49 843.379 293.406 843.532 293.287 843.651C293.287 843.651 289.693 847.336 287.584 849.472C283.48 853.633 282.161 856.355 281.784 857.912C281.728 858.135 281.595 858.337 281.407 858.47C281.358 858.505 276.535 861.995 275.592 865.164C275.53 865.373 275.397 865.555 275.223 865.68C272.214 867.823 270.86 869.617 270.553 871.879C270.336 873.463 270.539 875.481 271.481 876.179C272.326 876.8 273.785 876.346 274.86 875.851C277.687 874.552 286.81 868.829 291.137 865.646C293.671 863.782 296.505 861.115 296.882 860.766C297.971 859.447 299.186 858.114 300.463 856.704C304.323 852.46 308.309 848.069 309.502 843.525C309.768 842.513 310.11 841.243 310.501 839.798C312.434 832.636 315.673 820.644 315.889 816.037C316.266 807.968 315.526 793.973 314.738 779.161C314.179 768.641 313.6 757.766 313.397 748.42C313.16 745.683 313.062 742.849 313.111 740.009C313.111 739.967 313.111 739.932 313.118 739.89C314.13 732.519 315.994 701.841 317.634 674.778C318.891 653.991 320.084 634.356 320.796 626.601C322.744 605.36 322.751 579.429 320.817 563.528C319.673 554.132 318.94 539.341 318.228 525.032C317.809 516.586 317.411 508.607 316.95 502.088C315.366 479.695 315.38 463.613 315.394 450.685C315.401 442.944 315.408 436.257 315.1 429.584C314.528 417.159 314.179 403.52 313.774 387.724C313.153 363.37 312.441 335.77 310.675 303.172C309.551 282.42 298.62 267.112 281.435 262.226C281.358 262.205 281.281 262.17 281.212 262.136C273.233 257.515 253.661 250.534 234.73 243.778C217.405 237.593 199.487 231.206 189.596 226.355C180.766 222.027 182.344 195.523 183.607 174.227C183.984 167.924 184.333 161.976 184.333 157.628C184.333 146.557 167.762 130.468 141.789 130.468C115.815 130.468 99.2441 146.557 99.2441 157.628C99.2441 161.976 99.6001 167.93 99.97 174.227C101.233 195.523 102.811 222.02 93.981 226.355C84.0901 231.206 66.1718 237.6 48.8469 243.778C29.9165 250.527 10.351 257.515 2.36562 262.136C2.29582 262.177 2.21899 262.205 2.14221 262.226C-15.0431 267.112 -25.9741 282.42 -27.098 303.172C-28.864 335.77 -29.5759 363.37 -30.1971 387.724C-30.602 403.52 -30.951 417.166 -31.5234 429.584C-31.8305 436.257 -31.8236 442.944 -31.8166 450.685C-31.8026 463.613 -31.7887 479.695 -33.3732 502.088C-33.8339 508.607 -34.2317 516.586 -34.6505 525.032C-35.3625 539.341 -36.0954 554.132 -37.2402 563.528C-39.1807 579.429 -39.1668 605.36 -37.2193 626.601C-36.5073 634.363 -35.3206 653.991 -34.0572 674.778C-32.4169 701.841 -30.5601 732.519 -29.541 739.89C-29.541 739.932 -29.534 739.967 -29.534 740.009C-29.4852 742.849 -29.5828 745.677 -29.8202 748.42C-30.0226 757.773 -30.602 768.641 -31.1604 779.161C-31.9492 793.973 -32.6891 807.968 -32.3122 816.037C-32.0958 820.644 -28.857 832.629 -26.9304 839.791C-26.5395 841.236 -26.1975 842.506 -25.9322 843.518C-24.7386 848.062 -20.7529 852.453 -16.8929 856.697C-15.6085 858.107 -14.4009 859.44 -13.305 860.759C-12.9351 861.115 -10.0941 863.782 -7.56032 865.639C-3.23258 868.822 5.8976 874.545 8.71761 875.844C9.79256 876.339 11.2444 876.793 12.096 876.172C13.0383 875.474 13.2408 873.45 13.0244 871.872C12.7173 869.61 11.3631 867.816 8.35463 865.674C8.18012 865.548 8.04747 865.366 7.98465 865.157C7.04232 861.988 2.21902 858.498 2.17015 858.463C1.98169 858.33 1.84904 858.128 1.79319 857.905C1.40928 856.348 0.0970383 853.626 -4.01431 849.465C-6.12234 847.336 -9.71718 843.644 -9.71718 843.644C-9.83585 843.525 -9.91959 843.372 -9.96148 843.211L-14.3241 826.801C-14.366 826.647 -14.366 826.487 -14.3311 826.333L-10.7223 810.586C-10.6176 810.132 -10.2197 809.797 -9.74505 809.825C-9.28435 809.832 -8.8865 810.167 -8.80273 810.628C-8.1815 814.034 -6.58309 823.318 -6.33878 824.811C-5.73848 829.02 -5.20096 834.158 -4.81007 837.913C-4.57274 840.189 -4.37032 842.15 -4.28655 842.527C-3.3163 847.022 -0.887211 848.823 1.09517 848.628C2.97983 848.432 5.02509 846.303 5.06697 842.073C5.12281 836.371 4.89242 832.985 4.67603 829.711C4.54341 827.771 4.4108 825.768 4.341 823.324C4.25723 820.504 4.21535 817.426 4.16649 814.166C4.07575 807.884 3.98503 801.379 3.58716 796.688C3.58716 796.611 3.58717 796.534 3.59415 796.458C5.18564 785.917 3.97805 768.404 2.54013 760.321C1.42329 754.074 -0.607971 748.189 -1.57822 745.362C-1.79461 744.727 -1.94821 744.287 -2.05291 743.966C-2.2693 743.917 -2.4577 743.799 -2.59731 743.624C-2.75785 743.422 -2.83467 743.164 -2.80675 742.905L3.21719 687.454C3.27303 686.924 3.74771 686.54 4.28519 686.589C4.81568 686.638 5.20658 687.112 5.1647 687.65C3.05667 711.641 4.2363 749.697 5.65328 760.377C10.0229 793.282 15.8095 831.638 20.3885 858.107C21.9172 866.874 23.6204 876.779 25.4143 887.263C33.7697 935.992 45.2102 1002.72 60.0153 1072.68C60.0153 1072.71 60.0222 1072.73 60.0292 1072.76C60.2107 1074.17 64.5035 1107.67 61.6835 1119.9C58.8705 1132.09 53.4609 1184.24 55.0733 1224.43C57.1185 1250.14 65.048 1281.14 72.7122 1311.13C81.0466 1343.72 89.6672 1377.43 90.812 1404.66C90.812 1404.67 90.812 1404.69 90.812 1404.69C90.812 1404.73 90.812 1404.76 90.812 1404.81C90.9446 1408.98 90.1419 1414.56 88.4108 1421.38C88.1875 1422.27 88.1246 1423.16 88.2363 1424.01C88.6551 1427.33 89.5347 1429.76 89.5486 1429.79C89.6603 1430.09 89.6184 1430.42 89.4369 1430.67C78.9805 1445.96 60.4061 1476.55 59.2125 1479.65C59.2125 1479.71 59.2125 1479.78 59.1985 1479.84C57.8932 1486.96 60.1549 1491 62.4933 1492.31C64.2872 1493.31 66.3882 1492.98 68.1053 1491.42C68.3147 1491.23 68.5939 1491.14 68.8731 1491.18C69.1523 1491.21 69.4037 1491.36 69.5642 1491.59C72.3563 1495.62 76.1046 1496.12 81.7167 1493.22C82.1007 1493.03 82.5683 1493.1 82.8685 1493.41C87.5592 1498.31 95.398 1495.23 96.9197 1494.56C97.3804 1494.36 97.9249 1494.54 98.1692 1494.98C98.4344 1495.46 100.445 1496.4 103.914 1496.43C107.236 1496.47 111.355 1495.51 112.918 1492.79C113.086 1492.5 113.386 1492.32 113.721 1492.3C114.056 1492.3 114.37 1492.44 114.566 1492.71C117.211 1496.43 123.745 1499.62 133.447 1496.36C139.576 1494.31 140.811 1482.65 139.443 1476.98C138.703 1473.92 137.552 1461.88 136.714 1453.1C136.532 1451.2 136.365 1449.46 136.225 1448.03L132.519 1424.56C132.519 1424.56 132.519 1424.52 132.512 1424.5C131.821 1417.38 132.554 1413.62 133.336 1409.64L133.454 1409.03C133.957 1406.45 132.623 1401.34 131.444 1396.84C130.529 1393.35 129.671 1390.06 129.594 1387.84C129.594 1387.82 129.594 1387.79 129.594 1387.77C129.594 1387.77 129.594 1387.75 129.594 1387.74C129.538 1383.77 129.545 1381.27 129.601 1376.15C129.845 1354.25 130.711 1332.29 131.549 1311.07C132.763 1280.26 134.027 1248.4 133.363 1216.53C133.049 1199.8 133.231 1176.85 133.377 1158.42C133.447 1149.95 133.51 1141.95 133.517 1135.82C133.524 1127.67 134.515 1121.72 135.66 1114.84C137.579 1103.27 139.974 1088.87 138.557 1056.67C138.557 1056.65 138.557 1056.62 138.557 1056.6C139.401 1029.35 137.496 979.346 135.96 939.168C135.011 914.375 134.194 892.966 134.264 882.971V882.838C134.39 864.473 134.759 808.582 138.871 773.618C138.927 773.123 139.345 772.753 139.841 772.753H143.715C144.211 772.753 144.643 773.123 144.706 773.618C148.818 808.582 149.188 864.473 149.306 882.838V882.971C149.376 892.966 148.559 914.382 147.61 939.168C146.074 979.346 144.169 1029.35 145.013 1056.6C145.013 1056.62 145.013 1056.65 145.013 1056.67C143.596 1088.88 145.984 1103.27 147.91 1114.84C149.055 1121.72 150.039 1127.66 150.053 1135.82C150.053 1141.95 150.123 1149.95 150.193 1158.42C150.339 1176.85 150.521 1199.8 150.207 1216.53C149.551 1248.41 150.807 1280.26 152.022 1311.07C152.859 1332.3 153.725 1354.25 153.969 1376.16C154.032 1381.3 154.032 1383.79 153.976 1387.75C153.976 1387.76 153.976 1387.77 153.976 1387.78C153.913 1390.02 153.048 1393.34 152.126 1396.85C150.947 1401.35 149.613 1406.45 150.116 1409.03L150.235 1409.65C151.016 1413.63 151.749 1417.38 151.058 1424.51C151.058 1424.53 151.058 1424.55 151.051 1424.57L147.345 1448.05L147.338 1448.03ZM134.438 1424.27L138.145 1447.75C138.145 1447.75 138.145 1447.78 138.152 1447.8C138.291 1449.25 138.459 1450.99 138.64 1452.91C139.429 1461.14 140.616 1473.58 141.321 1476.51C141.516 1477.34 141.67 1478.28 141.768 1479.3C141.865 1478.28 142.019 1477.34 142.214 1476.52C142.926 1473.59 144.113 1461.15 144.895 1452.91C145.076 1451 145.244 1449.26 145.383 1447.81C145.383 1447.79 145.383 1447.78 145.39 1447.75L149.097 1424.28C149.753 1417.45 149.083 1414 148.301 1410.01L148.182 1409.39C147.596 1406.37 148.929 1401.27 150.221 1396.34C151.107 1392.95 151.945 1389.74 152.008 1387.75C152.008 1387.74 152.008 1387.72 152.008 1387.71C152.063 1383.77 152.056 1381.29 152.001 1376.17C151.756 1354.29 150.891 1332.35 150.053 1311.14C148.832 1280.3 147.575 1248.41 148.238 1216.48C148.552 1199.78 148.371 1176.85 148.224 1158.42C148.155 1149.95 148.092 1141.95 148.085 1135.81C148.078 1127.82 147.101 1121.95 145.97 1115.15C144.036 1103.5 141.621 1089 143.052 1056.62C142.207 1029.29 144.113 979.277 145.649 939.084C146.591 914.312 147.408 892.924 147.345 882.971V882.838C147.226 864.647 146.856 809.608 142.857 774.7H140.707C136.7 809.608 136.337 864.654 136.218 882.838V882.971C136.149 892.924 136.965 914.312 137.915 939.084C139.45 979.277 141.356 1029.29 140.511 1056.62C141.935 1089 139.527 1103.5 137.593 1115.15C136.463 1121.95 135.485 1127.82 135.478 1135.81C135.478 1141.95 135.409 1149.95 135.339 1158.42C135.192 1176.85 135.011 1199.78 135.325 1216.48C135.988 1248.41 134.725 1280.3 133.51 1311.14C132.672 1332.35 131.807 1354.29 131.563 1376.17C131.5 1381.28 131.5 1383.77 131.556 1387.73V1387.75C131.618 1389.74 132.456 1392.95 133.343 1396.34C134.634 1401.28 135.967 1406.38 135.381 1409.4L135.262 1410.02C134.48 1414.01 133.803 1417.47 134.466 1424.29L134.438 1424.27ZM293.441 815.716C292.764 819.597 291.989 824.12 291.821 825.132C291.228 829.272 290.698 834.388 290.307 838.13C290 841.068 289.853 842.499 289.748 842.953C289.581 843.728 289.378 844.433 289.141 845.075C290.279 843.916 291.291 842.876 291.682 842.471L295.912 826.542L293.427 815.716H293.441ZM-8.13965 842.464C-7.74178 842.869 -6.72963 843.909 -5.59883 845.068C-5.83616 844.426 -6.03859 843.721 -6.20611 842.946C-6.30384 842.485 -6.45744 841.054 -6.76456 838.123C-7.15546 834.381 -7.6859 829.265 -8.27922 825.111C-8.43976 824.12 -9.21461 819.604 -9.89169 815.716L-12.3766 826.542L-8.14663 842.471L-8.13965 842.464ZM-0.321747 742.982C-0.272884 743.198 -0.00767517 743.973 0.250595 744.72C0.906734 746.626 2.03056 749.886 3.04967 753.732C2.41447 744.65 1.96072 730.411 2.05146 716.08L-0.789452 742.228C-0.531185 742.389 -0.349667 742.661 -0.321747 742.982ZM281.491 716.087C281.582 730.418 281.128 744.657 280.493 753.739C281.512 749.893 282.635 746.633 283.292 744.727C283.55 743.98 283.815 743.206 283.864 742.989C283.892 742.675 284.066 742.396 284.332 742.235L281.491 716.087ZM283.864 743.003C283.864 743.003 283.864 743.059 283.864 743.08C283.864 743.052 283.864 743.031 283.864 743.003ZM-0.314846 743.003C-0.314846 743.003 -0.314846 743.052 -0.314846 743.08C-0.314846 743.059 -0.314846 743.038 -0.314846 743.003ZM13.0593 623.914C12.9895 623.914 12.9197 623.907 12.8499 623.893C12.3474 623.781 12.0192 623.306 12.089 622.797C12.8499 616.459 13.4083 607.07 14.1203 595.176C15.0696 579.38 16.2423 559.723 18.4201 539.02C21.3099 511.497 23.9903 460.018 23.2853 424.831C23.2784 424.314 23.6623 423.874 24.1718 423.832C24.6814 423.784 25.1421 424.133 25.2259 424.642C27.641 439.761 30.7472 455.39 33.7557 470.509C39.2561 498.179 44.4494 524.313 44.247 541.847C44.1213 552.813 39.4585 562.069 33.5532 573.795C27.5502 585.711 20.0814 600.537 14.0016 623.188C13.8829 623.62 13.4921 623.914 13.0593 623.914ZM25.3514 437.095C25.3514 471.221 22.9363 514.708 20.3676 539.229C18.1967 559.891 17.0241 579.519 16.0748 595.295C15.6699 602.003 15.3209 607.915 14.9509 612.941C20.4653 595.434 26.6707 583.121 31.8082 572.923C37.8251 560.973 42.1738 552.345 42.2994 541.833C42.4949 524.508 37.3226 498.465 31.8431 470.9C29.6304 459.781 27.3687 448.375 25.3584 437.102L25.3514 437.095ZM270.483 623.9C270.05 623.9 269.666 623.62 269.548 623.188C263.468 600.537 255.999 585.711 249.996 573.795C244.091 562.069 239.421 552.813 239.302 541.847C239.1 524.32 244.3 498.179 249.794 470.509C252.795 455.39 255.908 439.761 258.323 424.642C258.407 424.126 258.868 423.77 259.391 423.825C259.908 423.881 260.292 424.328 260.264 424.852C259.559 460.018 262.239 511.504 265.129 539.02C267.3 559.723 268.48 579.38 269.429 595.176C270.141 607.07 270.706 616.473 271.46 622.79C271.523 623.299 271.181 623.781 270.678 623.879C270.616 623.893 270.553 623.9 270.49 623.9H270.483ZM241.257 541.833C241.375 552.345 245.724 560.98 251.748 572.923C256.885 583.121 263.091 595.441 268.605 612.941C268.235 607.915 267.879 602.003 267.481 595.295C266.539 579.519 265.359 559.891 263.189 539.229C260.613 514.715 258.205 471.221 258.205 437.095C256.194 448.375 253.933 459.774 251.72 470.893C246.241 498.458 241.068 524.501 241.264 541.826L241.257 541.833Z" fill="#E1B9AF"/>
<path d="M209.259 104.117C206.216 101.709 204.75 102.449 203.159 104.787C203.396 102.833 203.619 101.011 203.808 99.4125C206.809 56.4353 187.314 21.7576 141.775 21.7576C96.2356 21.7576 76.7398 56.4283 79.7413 99.4125C79.9298 101.018 80.1461 102.833 80.3904 104.787C78.799 102.449 77.3331 101.709 74.2897 104.117C70.6112 107.035 72.5448 119.376 74.2689 125.449C76.8934 134.649 83.0919 145.698 87.0078 146.85C91.6077 162.974 99.9072 178.771 106.259 184.655C109.421 188.285 129.538 203.816 141.775 203.816C154.011 203.816 174.128 188.285 177.29 184.655C183.642 178.778 191.941 162.981 196.541 146.85C200.457 145.698 206.656 134.649 209.28 125.449C211.011 119.383 212.945 107.035 209.259 104.117Z" fill="#FDF5EE"/>
<path d="M141.775 204.786C129.029 204.786 108.556 188.711 105.554 185.325C98.8464 179.092 90.7493 163.289 86.1982 147.583C81.8007 145.587 75.8884 134.691 73.3266 125.714C71.8957 120.702 69.1804 106.916 73.6757 103.349C75.3439 102.023 76.7051 101.5 77.9545 101.688C78.3594 101.751 78.7294 101.884 79.0644 102.072C78.9597 101.172 78.855 100.32 78.7643 99.5173C76.9843 74.1163 83.1339 52.5195 96.0613 38.6568C107.125 26.7904 122.509 20.7734 141.768 20.7734C161.026 20.7734 176.411 26.7904 187.474 38.6568C200.402 52.5195 206.544 74.1163 204.771 99.4685C204.674 100.292 204.576 101.158 204.464 102.065C204.799 101.884 205.169 101.744 205.574 101.681C206.823 101.493 208.185 102.016 209.853 103.342C214.355 106.909 211.633 120.695 210.202 125.707C207.64 134.684 201.728 145.58 197.33 147.576C192.779 163.282 184.682 179.085 177.974 185.318C174.973 188.704 154.507 204.779 141.761 204.779L141.775 204.786ZM77.4729 103.608C76.8308 103.608 75.9652 104.034 74.8972 104.878C71.9864 107.182 73.208 118.148 75.2114 125.17C77.8569 134.46 83.9506 144.924 87.2802 145.901C87.6013 145.999 87.8525 146.25 87.9433 146.571C92.3199 161.907 100.473 177.961 106.915 183.922C106.943 183.943 106.964 183.971 106.985 183.999C110.378 187.894 130.285 202.825 141.768 202.825C153.25 202.825 173.151 187.894 176.543 183.999C176.564 183.971 176.592 183.95 176.62 183.922C183.063 177.961 191.223 161.9 195.592 146.571C195.683 146.25 195.934 145.999 196.255 145.901C199.585 144.924 205.679 134.46 208.324 125.17C210.327 118.141 211.549 107.182 208.638 104.878C207.459 103.943 206.523 103.524 205.867 103.622C205.288 103.712 204.694 104.236 203.955 105.332C203.703 105.702 203.222 105.855 202.803 105.695C202.377 105.534 202.119 105.108 202.175 104.662C202.412 102.714 202.635 100.892 202.824 99.294C204.555 74.5281 198.594 53.4548 186.043 39.99C175.364 28.5354 160.461 22.7279 141.761 22.7279C123.061 22.7279 108.165 28.5354 97.4783 39.99C84.9278 53.4548 78.9667 74.5281 80.6978 99.3358C80.8793 100.892 81.0957 102.707 81.34 104.662C81.3958 105.108 81.1376 105.534 80.7118 105.695C80.293 105.855 79.8113 105.702 79.56 105.332C78.8201 104.236 78.2268 103.712 77.6474 103.622C77.5846 103.615 77.5218 103.608 77.452 103.608H77.4729Z" fill="#E1B9AF"/>
<path d="M196.542 147.821C196.451 147.821 196.36 147.807 196.277 147.786C195.76 147.639 195.46 147.095 195.606 146.578C196.563 143.228 197.324 139.856 197.875 136.541C198.769 131.173 200.87 115.433 202.196 104.662C202.259 104.125 202.747 103.748 203.285 103.811C203.822 103.873 204.199 104.362 204.136 104.899C202.81 115.684 200.702 131.466 199.802 136.855C199.236 140.24 198.461 143.689 197.484 147.109C197.358 147.535 196.968 147.821 196.542 147.821Z" fill="#E1B9AF"/>
<path d="M87.0085 147.82C86.5828 147.82 86.1918 147.541 86.0662 147.108C85.0889 143.695 84.3142 140.24 83.7488 136.854C82.8553 131.459 80.7473 115.683 79.4141 104.899C79.3512 104.361 79.7282 103.873 80.2656 103.81C80.8031 103.74 81.2917 104.124 81.3545 104.662C82.6807 115.432 84.7818 131.165 85.6753 136.54C86.2267 139.856 86.9876 143.227 87.9439 146.578C88.0905 147.094 87.7903 147.639 87.2738 147.785C87.1831 147.813 87.0923 147.82 87.0085 147.82Z" fill="#E1B9AF"/>
<path d="M129.566 261.535C129.42 261.535 129.273 261.5 129.134 261.431C118.147 256.007 113.533 254.779 96.8082 256.182C85.4374 257.138 33.4068 258.318 32.8833 258.332C32.3458 258.345 31.8991 257.913 31.8851 257.375C31.8711 256.838 32.3039 256.391 32.8414 256.377C33.3649 256.363 85.3327 255.183 96.6476 254.234C113.491 252.824 118.6 254.053 129.999 259.679C130.481 259.916 130.683 260.502 130.446 260.991C130.278 261.333 129.929 261.535 129.566 261.535Z" fill="#E1B9AF"/>
<path d="M153.983 261.535C153.62 261.535 153.278 261.333 153.104 260.991C152.866 260.509 153.062 259.923 153.55 259.679C164.949 254.053 170.066 252.824 186.902 254.234C198.217 255.183 250.185 256.363 250.708 256.377C251.246 256.391 251.678 256.838 251.664 257.375C251.65 257.913 251.204 258.345 250.666 258.332C250.143 258.318 198.112 257.138 186.741 256.182C170.017 254.779 165.41 256 154.416 261.431C154.276 261.5 154.13 261.535 153.983 261.535Z" fill="#E1B9AF"/>
</g>
<g filter="url(#filter0_f_28_1718)">
<circle cx="18.4605" cy="18.4605" r="18.4605" transform="matrix(1 0 0 -1 124.608 178.836)" fill="#F2978B" fill-opacity="0.4"/>
</g>
<circle cx="11.0763" cy="11.0763" r="11.0763" transform="matrix(1 0 0 -1 131.992 171.452)" fill="#F1836B"/>
<defs>
<filter id="filter0_f_28_1718" x="120.608" y="137.915" width="44.9209" height="44.9209" filterUnits="userSpaceOnUse" color-interpolation-filters="sRGB">
<feFlood flood-opacity="0" result="BackgroundImageFix"/>
<feBlend mode="normal" in="SourceGraphic" in2="BackgroundImageFix" result="shape"/>
<feGaussianBlur stdDeviation="2" result="effect1_foregroundBlur_28_1718"/>
</filter>
</defs>
</svg>
