<svg width="319" height="39" viewBox="0 0 319 39" fill="none" xmlns="http://www.w3.org/2000/svg">
<g clip-path="url(#clip0_98_84)">
<path d="M123.327 18.611H136.757V32.7255C134.963 34.4713 132.905 35.8112 130.581 36.7517C128.251 37.6923 125.835 38.1625 123.333 38.1625C120.686 38.1625 118.177 37.6858 115.814 36.726C113.451 35.7661 111.419 34.4519 109.718 32.777C108.017 31.1021 106.673 29.0857 105.687 26.7151C104.701 24.3444 104.211 21.8191 104.211 19.1328C104.211 16.4465 104.701 13.9148 105.687 11.5248C106.673 9.13479 108.017 7.10555 109.718 5.43707C111.419 3.76214 113.451 2.44153 115.814 1.46234C118.177 0.489594 120.686 0 123.333 0C127.735 0 131.673 1.32706 135.149 3.97473L133.428 6.01041C132.243 4.44499 130.76 3.24678 128.973 2.42864C127.179 1.61051 125.299 1.19822 123.333 1.19822C120.825 1.19822 118.528 1.95837 116.43 3.47225C114.338 4.98612 112.67 7.12488 111.432 9.87562C110.195 12.6264 109.579 15.7121 109.579 19.1264C109.579 24.2478 110.909 28.5124 113.584 31.9073C116.251 35.3023 119.501 37.003 123.333 37.003C126.59 37.003 129.476 35.6437 131.978 32.9252V19.8028H123.333V18.5981L123.327 18.611Z" fill="#8C625A"/>
<path d="M173.764 37.4794H167.966L160.553 27.3911C159.62 27.462 158.905 27.4942 158.402 27.4942H148.844V37.4794H144.012V0.888672H158.408C161.023 0.888672 163.465 1.44913 165.742 2.5636C168.012 3.67807 169.866 5.27569 171.302 7.34358C172.732 9.41791 173.453 11.7242 173.453 14.2688C173.453 16.0145 173.096 17.6573 172.381 19.2098C171.666 20.7623 170.706 22.1022 169.508 23.236C168.31 24.3698 166.92 25.3039 165.345 26.0319L173.778 37.4794H173.764ZM158.296 26.3475C161.122 26.3475 163.505 25.2331 165.438 23.0041C167.37 20.7752 168.337 17.8312 168.337 14.1721C168.337 10.5131 167.37 7.62058 165.438 5.39164C163.505 3.16271 161.122 2.04824 158.296 2.04824H148.844V26.4055L158.296 26.354V26.3475Z" fill="#8C625A"/>
<path d="M207.442 37.4794L202.286 25.7678H183.865L178.709 37.4794H177.153L193.37 0.888672H196.428L212.651 37.4794H207.442ZM184.342 24.6726H201.796L193.092 4.91494L184.335 24.6726H184.342Z" fill="#8C625A"/>
<path d="M232.038 0.888672C234.62 0.888672 237.042 1.43624 239.319 2.53783C241.59 3.63297 243.436 5.21127 244.853 7.26627C246.269 9.32128 246.978 11.6211 246.978 14.1657C246.978 16.7103 246.269 19.0036 244.853 21.0393C243.436 23.075 241.596 24.6468 239.319 25.742C237.042 26.8371 234.62 27.3911 232.038 27.3911H222.586V37.4794H217.86V0.888672H232.038ZM231.933 26.2445C234.726 26.2445 237.089 25.13 239.022 22.9011C240.954 20.6721 241.921 17.741 241.921 14.1206C241.921 11.6791 241.464 9.54031 240.551 7.69145C239.637 5.84259 238.426 4.44467 236.923 3.48481C235.421 2.52495 233.753 2.04824 231.926 2.04824H222.58V26.2509H231.926L231.933 26.2445Z" fill="#8C625A"/>
<path d="M277.962 0.888672H282.688V37.4794H277.962V20.6464H257.979V37.4794H253.253V0.888672H257.979V19.4997H277.962V0.888672Z" fill="#8C625A"/>
<path d="M317.603 0.888672H319L306.378 22.0056V37.4794H301.652V22.6885L287.467 0.888672H293.159L305.835 20.5433L317.597 0.888672H317.603Z" fill="#8C625A"/>
<path d="M19.0696 0.837891C22.6174 0.837891 25.8541 1.66891 28.793 3.31807C31.7319 4.97367 34.0486 7.26703 35.7497 10.1917C37.4508 13.1164 38.298 16.376 38.298 19.9643C38.298 23.5525 37.4441 26.8057 35.7497 29.711C34.0486 32.6228 31.7319 34.8969 28.793 36.5331C25.8541 38.1694 22.6174 38.9875 19.0696 38.9875C13.6287 38.9875 9.088 37.1773 5.45412 33.5505C1.82025 29.9365 0 25.4078 0 19.9707C0 14.5336 1.82025 9.94047 5.45412 6.30072C9.088 2.66098 13.6221 0.837891 19.0696 0.837891ZM32.9233 19.9707C32.9233 14.8493 31.573 10.5525 28.8658 7.08665C26.1586 3.62084 22.8954 1.88794 19.063 1.88794C15.2305 1.88794 12.0335 3.62084 9.366 7.08665C6.69851 10.5525 5.36146 14.8493 5.36146 19.9707C5.36146 25.0921 6.68527 29.3696 9.3329 32.8032C11.9805 36.2368 15.2239 37.9504 19.0563 37.9504C21.565 37.9504 23.875 37.1773 25.9865 35.6248C28.098 34.0723 29.7792 31.9206 31.0369 29.1699C32.2879 26.4192 32.9167 23.3528 32.9167 19.9707H32.9233Z" fill="#8C625A"/>
<path d="M56.4479 1.72656C59.9957 1.72656 63.1861 2.49316 66.0323 4.02636C68.8785 5.55957 71.1356 7.73053 72.797 10.5328C74.465 13.3415 75.2924 16.5174 75.2924 20.0734C75.2924 25.4396 73.4986 29.8202 69.9243 33.2216C66.3434 36.6166 61.849 38.3172 56.4412 38.3172H45.1094V1.72656H56.4412H56.4479ZM56.342 37.1706C60.1744 37.2736 63.4045 35.7533 66.0389 32.5967C68.6733 29.4401 69.9839 25.3237 69.9839 20.2345C69.9839 15.1453 68.6667 10.9837 66.0389 7.74341C63.4045 4.50307 60.1744 2.87968 56.342 2.87968H49.842V37.1706H56.342Z" fill="#8C625A"/>
</g>
<defs>
<clipPath id="clip0_98_84">
<rect width="319" height="39" fill="white"/>
</clipPath>
</defs>
</svg>
