<svg width="491" height="61" viewBox="0 0 491 61" fill="none" xmlns="http://www.w3.org/2000/svg">
<g clip-path="url(#clip0_98_74)">
<path d="M189.822 29.1095H210.494V51.186C207.733 53.9166 204.564 56.0124 200.988 57.4835C197.402 58.9546 193.684 59.6901 189.833 59.6901C185.757 59.6901 181.896 58.9445 178.259 57.4432C174.622 55.9419 171.494 53.8864 168.876 51.2666C166.257 48.6468 164.189 45.4931 162.671 41.7851C161.153 38.0771 160.399 34.1274 160.399 29.9257C160.399 25.724 161.153 21.7641 162.671 18.0259C164.189 14.2877 166.257 11.1138 168.876 8.50413C171.494 5.88437 174.622 3.8188 178.259 2.28725C181.896 0.765775 185.757 0 189.833 0C196.608 0 202.669 2.07565 208.018 6.21688L205.369 9.40089C203.546 6.95243 201.263 5.0783 198.513 3.79865C195.752 2.519 192.858 1.87413 189.833 1.87413C185.971 1.87413 182.436 3.0631 179.206 5.43095C175.987 7.79881 173.42 11.144 171.515 15.4465C169.609 19.7489 168.662 24.5753 168.662 29.9156C168.662 37.926 170.71 44.5963 174.826 49.9063C178.931 55.2164 183.934 57.8764 189.833 57.8764C194.845 57.8764 199.287 55.7504 203.138 51.4983V30.9736H189.833V29.0894L189.822 29.1095Z" fill="#553E3D"/>
<path d="M267.455 58.6222H258.53L247.12 42.8432C245.683 42.9541 244.583 43.0044 243.809 43.0044H229.097V58.6222H221.66V1.39062H243.819C247.843 1.39062 251.603 2.26724 255.107 4.01038C258.602 5.75353 261.454 8.25237 263.665 11.4868C265.866 14.7312 266.976 18.3384 266.976 22.3184C266.976 25.049 266.426 27.6184 265.326 30.0467C264.226 32.475 262.748 34.5708 260.904 36.3442C259.06 38.1176 256.921 39.5786 254.496 40.7172L267.476 58.6222H267.455ZM243.646 41.2109C247.996 41.2109 251.664 39.4678 254.639 35.9815C257.614 32.4952 259.101 27.8905 259.101 22.1673C259.101 16.4441 257.614 11.92 254.639 8.43374C251.664 4.94745 247.996 3.2043 243.646 3.2043H229.097V41.3016L243.646 41.221V41.2109Z" fill="#553E3D"/>
<path d="M319.291 58.6222L311.355 40.3041H283.002L275.065 58.6222H272.671L297.631 1.39062H302.338L327.309 58.6222H319.291ZM283.735 38.5912H310.601L297.204 7.68811L283.725 38.5912H283.735Z" fill="#553E3D"/>
<path d="M357.15 1.39062C361.123 1.39062 364.852 2.24708 368.357 3.97008C371.851 5.68299 374.694 8.15161 376.874 11.3658C379.054 14.5801 380.144 18.1772 380.144 22.1572C380.144 26.1372 379.054 29.7243 376.874 32.9083C374.694 36.0923 371.861 38.5508 368.357 40.2638C364.852 41.9767 361.123 42.8432 357.15 42.8432H342.601V58.6222H335.327V1.39062H357.15ZM356.987 41.0497C361.286 41.0497 364.923 39.3065 367.898 35.8203C370.873 32.334 372.36 27.7494 372.36 22.0867C372.36 18.2679 371.658 14.9227 370.252 12.0309C368.846 9.13906 366.981 6.95257 364.669 5.45125C362.356 3.94992 359.789 3.2043 356.977 3.2043H342.591V41.0598H356.977L356.987 41.0497Z" fill="#553E3D"/>
<path d="M427.835 1.39062H435.109V58.6222H427.835V32.2937H397.077V58.6222H389.803V1.39062H397.077V30.5001H427.835V1.39062Z" fill="#553E3D"/>
<path d="M488.851 1.39062H491L471.572 34.4197V58.6222H464.298V35.4878L442.465 1.39062H451.227L470.737 32.1324L488.841 1.39062H488.851Z" fill="#553E3D"/>
<path d="M29.3516 1.30957C34.8124 1.30957 39.7943 2.60937 44.3178 5.18882C48.8412 7.77835 52.407 11.3654 55.0253 15.9399C57.6436 20.5144 58.9477 25.6128 58.9477 31.2252C58.9477 36.8375 57.6335 41.9259 55.0253 46.4701C52.407 51.0245 48.8412 54.5813 44.3178 57.1406C39.7943 59.6999 34.8124 60.9795 29.3516 60.9795C20.9771 60.9795 13.9881 58.1482 8.3949 52.4754C2.8017 46.8228 0 39.7394 0 31.2352C0 22.7311 2.8017 15.5469 8.3949 9.854C13.9881 4.16107 20.9669 1.30957 29.3516 1.30957ZM50.6751 31.2352C50.6751 23.2248 48.5967 16.5042 44.4298 11.0833C40.2629 5.66239 35.2403 2.95196 29.3414 2.95196C23.4426 2.95196 18.5218 5.66239 14.416 11.0833C10.3102 16.5042 8.25227 23.2248 8.25227 31.2352C8.25227 39.2456 10.2899 45.9361 14.3651 51.3066C18.4403 56.6771 23.4324 59.3573 29.3312 59.3573C33.1925 59.3573 36.7481 58.1482 39.998 55.7199C43.248 53.2916 45.8358 49.9262 47.7715 45.6237C49.697 41.3213 50.6649 36.5251 50.6649 31.2352H50.6751Z" fill="#553E3D"/>
<path d="M86.8837 2.7002C92.3444 2.7002 97.255 3.89924 101.636 6.29732C106.017 8.69541 109.491 12.091 112.048 16.4741C114.615 20.8672 115.889 25.8347 115.889 31.3966C115.889 39.7899 113.128 46.6416 107.626 51.9617C102.115 57.2717 95.1971 59.9318 86.8735 59.9318H69.4316V2.7002H86.8735H86.8837ZM86.7207 58.1383C92.6195 58.2995 97.5912 55.9215 101.646 50.9843C105.701 46.0471 107.718 39.6085 107.718 31.6485C107.718 23.6885 105.691 17.1794 101.646 12.1112C97.5912 7.04294 92.6195 4.5038 86.7207 4.5038H76.7161V58.1383H86.7207Z" fill="#553E3D"/>
</g>
<defs>
<clipPath id="clip0_98_74">
<rect width="491" height="61" fill="white"/>
</clipPath>
</defs>
</svg>
