<svg width="1081" height="135" viewBox="0 0 1081 135" fill="none" xmlns="http://www.w3.org/2000/svg">
<g clip-path="url(#clip0_98_44)">
<path d="M417.919 64.4227H463.43V113.28C457.351 119.324 450.375 123.962 442.502 127.218C434.607 130.473 426.42 132.101 417.941 132.101C408.969 132.101 400.468 130.451 392.461 127.128C384.453 123.806 377.567 119.257 371.803 113.459C366.038 107.661 361.485 100.681 358.143 92.4752C354.8 84.2691 353.141 75.5278 353.141 66.2289C353.141 56.9301 354.8 48.1665 358.143 39.8935C361.485 31.6204 366.038 24.5961 371.803 18.8206C377.567 13.0228 384.453 8.45144 392.461 5.06194C400.468 1.69475 408.969 0 417.941 0C432.857 0 446.203 4.59366 457.979 13.7587L452.147 20.8053C448.132 15.3865 443.108 11.2389 437.052 8.40684C430.973 5.57483 424.603 4.14767 417.941 4.14767C409.44 4.14767 401.657 6.77899 394.547 12.0193C387.459 17.2597 381.806 24.663 377.612 34.1848C373.418 43.7066 371.331 54.388 371.331 66.2066C371.331 83.9346 375.84 98.6967 384.902 110.448C393.941 122.2 404.954 128.087 417.941 128.087C428.977 128.087 438.757 123.382 447.235 113.972V68.5481H417.941V64.3781L417.919 64.4227Z" fill="#553E3D" fill-opacity="0.1"/>
<path d="M588.837 129.737H569.188L544.067 94.8165C540.904 95.0618 538.482 95.1733 536.777 95.1733H504.388V129.737H488.014V3.07715H536.799C545.659 3.07715 553.936 5.01719 561.652 8.87497C569.345 12.7327 575.626 18.263 580.493 25.4211C585.338 32.6014 587.783 40.5846 587.783 49.3928C587.783 55.4359 586.572 61.1222 584.149 66.4964C581.727 71.8705 578.475 76.5088 574.415 80.4334C570.355 84.3581 565.645 87.5915 560.306 90.1113L588.882 129.737H588.837ZM536.418 91.204C545.996 91.204 554.071 87.3462 560.62 79.6307C567.17 71.9151 570.445 61.7243 570.445 49.0583C570.445 36.3923 567.17 26.3799 560.62 18.6644C554.071 10.9488 545.996 7.09102 536.418 7.09102H504.388V91.4047L536.418 91.2263V91.204Z" fill="#553E3D" fill-opacity="0.1"/>
<path d="M702.962 129.737L685.489 89.1971H623.065L605.592 129.737H600.321L655.275 3.07715H665.638L720.614 129.737H702.962ZM624.68 85.4062H683.829L654.333 17.0142L624.658 85.4062H624.68Z" fill="#553E3D" fill-opacity="0.1"/>
<path d="M786.312 3.07715C795.06 3.07715 803.269 4.97259 810.985 8.78577C818.679 12.5767 824.937 18.04 829.737 25.1535C834.537 32.2669 836.937 40.2278 836.937 49.036C836.937 57.8442 834.537 65.7828 829.737 72.8294C824.937 79.876 818.701 85.317 810.985 89.1079C803.269 92.8988 795.06 94.8165 786.312 94.8165H754.282V129.737H738.267V3.07715H786.312ZM785.953 90.8472C795.419 90.8472 803.426 86.9894 809.976 79.2739C816.525 71.5583 819.8 61.4121 819.8 48.8799C819.8 40.4285 818.253 33.0251 815.157 26.6252C812.062 20.2253 807.957 15.3864 802.865 12.0638C797.774 8.74117 792.121 7.09102 785.931 7.09102H754.259V90.8695H785.931L785.953 90.8472Z" fill="#553E3D" fill-opacity="0.1"/>
<path d="M941.933 3.07715H957.948V129.737H941.933V71.4691H874.216V129.737H858.201V3.07715H874.216V67.4998H941.933V3.07715Z" fill="#553E3D" fill-opacity="0.1"/>
<path d="M1076.27 3.07715H1081L1038.23 76.1743V129.737H1022.21V78.538L974.143 3.07715H993.433L1036.39 71.1123L1076.24 3.07715H1076.27Z" fill="#553E3D" fill-opacity="0.1"/>
<path d="M64.6213 2.89844C76.6439 2.89844 87.6123 5.77505 97.5713 11.4837C107.53 17.2146 115.381 25.1531 121.145 35.277C126.91 45.4009 129.781 56.6844 129.781 69.1051C129.781 81.5258 126.888 92.7869 121.145 102.844C115.381 112.923 107.53 120.795 97.5713 126.459C87.6123 132.123 76.6439 134.955 64.6213 134.955C46.1837 134.955 30.7966 128.689 18.4825 116.134C6.1683 103.624 0 87.948 0 69.1274C0 50.3068 6.1683 34.4074 18.4825 21.8082C30.7966 9.20914 46.1613 2.89844 64.6213 2.89844ZM111.568 69.1274C111.568 51.3994 106.992 36.5258 97.818 24.5288C88.6441 12.5317 77.586 6.53322 64.5989 6.53322C51.6118 6.53322 40.7781 12.5317 31.7387 24.5288C22.6993 36.5258 18.1684 51.3994 18.1684 69.1274C18.1684 86.8553 22.6545 101.662 31.6266 113.548C40.5986 125.433 51.5894 131.365 64.5765 131.365C73.0775 131.365 80.9056 128.689 88.0609 123.315C95.2161 117.941 100.913 110.493 105.175 100.971C109.414 91.449 111.545 80.8345 111.545 69.1274H111.568Z" fill="#553E3D" fill-opacity="0.1"/>
<path d="M191.284 5.97656C203.307 5.97656 214.118 8.63018 223.763 13.9374C233.408 19.2446 241.057 26.7595 246.687 36.4597C252.339 46.1822 255.143 57.1758 255.143 69.485C255.143 88.0603 249.064 103.224 236.952 114.998C224.817 126.75 209.587 132.637 191.262 132.637H152.861V5.97656H191.262H191.284ZM190.925 128.667C203.912 129.024 214.858 123.761 223.786 112.835C232.713 101.908 237.154 87.6589 237.154 70.0425C237.154 52.426 232.69 38.0207 223.786 26.8041C214.858 15.5876 203.912 9.96814 190.925 9.96814H168.899V128.667H190.925Z" fill="#553E3D" fill-opacity="0.1"/>
</g>
<defs>
<clipPath id="clip0_98_44">
<rect width="1081" height="135" fill="white"/>
</clipPath>
</defs>
</svg>
