<svg width="302" height="302" viewBox="0 0 302 302" fill="none" xmlns="http://www.w3.org/2000/svg">
<mask id="mask0_28_1862" style="mask-type:luminance" maskUnits="userSpaceOnUse" x="0" y="0" width="302" height="302">
<path d="M211.395 0H90.605C40.5654 0 0.000244141 40.5651 0.000244141 90.6047V211.395C0.000244141 261.435 40.5654 302 90.605 302H211.395C261.435 302 302 261.435 302 211.395V90.6047C302 40.5651 261.435 0 211.395 0Z" fill="white"/>
</mask>
<g mask="url(#mask0_28_1862)">
<path fill-rule="evenodd" clip-rule="evenodd" d="M234.4 348.174C227.913 313.279 214.221 181.598 199.54 177.925C199.54 177.925 124.311 175.476 115.752 169.366C107.193 163.244 85.1656 119.825 85.1656 119.825C85.1656 119.825 86.39 111.878 85.7778 108.817C85.1656 105.757 82.1046 87.4143 82.7168 85.5778C83.329 83.7412 100.459 62.9501 95.5611 57.4404C90.6753 51.9306 67.4237 77.007 66.1993 80.6802C64.975 84.3533 66.1994 122.274 70.4847 128.384C74.7701 134.506 43.5717 101.471 41.123 88.627C38.6742 75.7827 27.6665 57.4286 31.9518 54.3794C36.2372 51.3184 44.1839 56.216 49.0815 70.2847C53.979 84.3534 59.477 99.6465 59.477 99.6465C59.477 99.6465 71.0969 126.559 79.6558 138.179C88.2148 149.799 96.7855 155.309 98.6221 156.533C100.459 157.758 88.2265 118.613 91.2757 104.544C94.3367 90.4752 104.12 83.1407 104.12 83.1407C104.12 83.1407 138.368 64.7867 138.368 75.8062C138.368 86.8257 120.638 99.046 117.577 98.4338C114.516 97.8216 108.405 112.502 108.405 116.788C108.405 121.073 120.638 154.709 121.862 152.26C123.086 149.811 110.242 113.727 114.527 109.441C118.813 105.156 139.604 94.7606 141.44 94.1484C143.277 93.5362 171.414 91.6997 160.395 99.6582C149.387 107.605 137.767 106.392 137.767 106.392C137.767 106.392 129.809 117.4 131.645 118.624C133.482 119.849 144.49 136.967 148.163 138.191C151.836 139.415 144.49 126.571 144.49 126.571C144.49 126.571 210.548 121.061 223.392 135.742C236.236 150.423 269.872 264.185 272.32 258.063L281.385 281.091L234.4 348.197V348.174Z" fill="#FDF5EE" stroke="#E1B9AF" stroke-width="2.69" stroke-linecap="round" stroke-linejoin="round"/>
</g>
<g filter="url(#filter0_f_28_1862)">
<circle cx="20.5198" cy="20.5198" r="20.5198" transform="matrix(1 0 0 -1 207.763 192.373)" fill="#F2978B" fill-opacity="0.4"/>
</g>
<circle cx="12.3119" cy="12.3119" r="12.3119" transform="matrix(1 0 0 -1 215.972 184.165)" fill="#F1836B"/>
<defs>
<filter id="filter0_f_28_1862" x="203.763" y="147.333" width="49.0396" height="49.0396" filterUnits="userSpaceOnUse" color-interpolation-filters="sRGB">
<feFlood flood-opacity="0" result="BackgroundImageFix"/>
<feBlend mode="normal" in="SourceGraphic" in2="BackgroundImageFix" result="shape"/>
<feGaussianBlur stdDeviation="2" result="effect1_foregroundBlur_28_1862"/>
</filter>
</defs>
</svg>
