<svg width="216" height="574" viewBox="0 0 216 574" fill="none" xmlns="http://www.w3.org/2000/svg">
<path d="M108.384 0.757996C100.307 0.843211 91.2679 4.03877 87.0071 9.14558C82.3507 14.7333 82.3264 26.2616 82.0525 29.0859C81.7725 31.9162 81.8212 34.8988 81.0543 35.6657C80.2873 36.4326 78.2543 39.0439 78.0778 40.8029C77.5909 45.5628 78.3761 47.8575 79.4291 51.3209C80.4882 54.7843 82.5394 56.4155 84.0246 56.1903C84.195 58.3937 84.5785 63.251 86.0515 66.7083C86.6906 68.2117 87.908 69.5995 88.2732 69.776C88.474 69.8734 87.9445 77.3236 86.7332 80.854C85.242 85.1878 81.6995 89.2233 69.1485 93.0275C66.6042 93.8006 62.2157 94.8962 55.0759 96.5457C47.6622 98.2561 40.0841 101.537 37.2172 106.011C27.1375 121.733 28.9149 140.931 28.014 151.741C27.1132 162.551 25.348 173.793 24.4959 177.713C22.2985 187.878 21.6533 193.393 16.9178 206.936C13.8988 215.573 10.7884 220.077 9.07195 232.914C8.10416 240.127 8.69458 247.887 7.44678 259.702C6.51551 268.564 5.99204 279.813 4.47035 290.55C3.16778 299.765 1.79216 305.055 0.952187 309.218C0.118298 313.381 2.06607 324.794 3.11908 326.267C4.16601 327.734 5.90683 331.599 7.7146 333.303C9.52846 335.008 10.7215 337.528 13.9353 339.524C16.6317 341.198 18.6769 338.55 17.7274 336.815C15.7979 333.309 13.6979 331.544 12.8518 329.511C12.0119 327.478 11.8597 323.205 12.0423 317.605C12.2249 312.012 14.6231 311.032 16.1022 310.843C17.5874 310.648 16.1631 314.343 15.8344 320.308C15.4935 326.389 18.3665 331.283 20.9716 330.595C22.8403 330.102 22.0064 325.068 22.0551 323.291C22.1038 321.513 23.4429 315.238 23.6802 313.546C23.9115 311.86 24.6237 308.274 23.9481 302.723C23.2724 297.172 20.2838 293.258 20.4299 288.651C20.6916 280.513 24.8672 273.817 29.3592 259.97C33.2487 247.973 35.0443 243.219 36.1216 240.218C39.3354 231.277 39.865 219.243 42.0745 208.561C43.4927 201.725 44.7709 195.687 48.8369 184.749C50.1699 181.164 54.2602 168.595 56.8776 159.148C57.0358 158.57 57.8636 158.594 57.9975 159.179C59.4401 165.485 60.9861 169.989 62.3617 175.278C65.813 188.554 68.5824 194.756 67.779 204.227C66.6286 217.642 64.3217 223.607 59.4888 236.603C55.7393 246.682 54.6133 250.572 52.8968 256.725C52.6472 257.626 50.1212 269.836 49.6465 279.454C49.2143 288.212 49.2021 297.172 49.3786 299.473C50.4986 314.13 50.6264 315.043 55.3315 341.143C58.4358 358.35 61.5948 373.312 64.5347 387.683C65.6243 393.002 65.0338 394.232 66.1599 403.916C66.9999 411.141 69.2642 416.583 69.4042 421.775C69.7146 433.127 67.852 437.412 67.7851 446.402C67.6755 459.86 70.4998 474.377 73.1962 486.447C76.7874 502.492 76.7326 502.936 76.7144 508.907C76.6961 514.878 75.5701 517.264 75.0953 521.354C74.5657 525.853 75.9901 529.109 75.3631 533.26C74.7362 537.405 69.2276 548.836 68.6007 553.28C67.9677 557.729 68.1016 558.697 68.059 560.858C67.9798 564.473 68.1564 565.666 70.2198 565.727C72.9527 565.812 72.5632 561.466 73.4701 562.209C74.371 562.958 70.5119 567.389 74.0118 568.704C78.0961 570.231 78.3395 564.65 78.3395 564.65C78.3395 564.65 77.9074 566.573 78.3395 569.245C78.5343 570.432 80.9934 572.916 83.2151 570.329C83.489 570.006 83.7142 569.641 83.8846 569.264C84.1281 568.74 84.8889 568.837 84.9802 569.404C85.0168 569.635 85.0594 569.854 85.102 570.061C85.6193 572.587 87.6219 573.75 89.9775 571.686C91.2435 570.572 91.0548 566.275 91.0609 566.269C91.0609 566.269 91.2618 571.345 93.4956 571.686C97.1721 572.246 99.9537 569.282 99.7163 563.84C99.4789 558.393 99.5763 553.773 99.1746 542.463C98.8764 533.978 99.7042 531.331 98.9068 521.361C98.006 510.039 99.0164 498.401 101.074 482.667C103.636 463.055 104.172 449.427 102.157 442.08C100.142 434.733 98.4199 427.63 99.4485 419.352C100.477 411.074 100.015 416.558 100.8 408.256C101.086 405.213 100.118 395.735 100.532 390.671C101.859 374.286 101.841 370.347 104.592 343.048C105.389 335.117 107.027 299.181 107.294 299.753C108.554 302.443 109.437 329.043 110.271 342.239C112.377 375.576 112.998 374.28 114.325 390.671C114.739 395.735 113.765 405.213 114.057 408.256C114.842 416.558 114.647 411.068 115.682 419.352C116.711 427.63 114.72 434.733 112.706 442.08C110.697 449.427 111.123 459.215 113.515 482.935C115.116 498.724 116.857 510.033 115.95 521.361C115.152 531.337 116.248 533.985 115.95 542.463C115.548 553.773 115.372 558.399 115.14 563.84C114.903 569.276 117.691 572.246 121.361 571.686C123.589 571.345 124.07 566.275 124.07 566.269C124.07 566.269 123.613 570.572 124.879 571.686C127.229 573.756 129.505 572.587 130.016 570.061C130.059 569.854 130.102 569.629 130.138 569.397C130.235 568.831 130.996 568.74 131.234 569.257C131.41 569.635 131.629 570.006 131.909 570.329C134.131 572.916 136.584 570.432 136.779 569.245C137.211 566.573 136.511 564.65 136.511 564.65C136.511 564.65 137.022 570.237 141.106 568.704C144.606 567.395 140.747 562.958 141.648 562.209C142.549 561.46 142.166 565.812 144.899 565.727C146.968 565.666 147.138 564.473 147.065 560.858C147.017 558.703 147.157 557.729 146.524 553.28C145.891 548.836 140.382 537.405 139.761 533.26C139.134 529.115 140.382 528.044 140.303 523.515C140.224 519.309 138.422 514.872 138.41 508.901C138.386 502.93 138.063 502.492 141.654 486.441C144.357 474.371 147.443 459.854 147.339 446.396C147.272 437.412 145.404 433.12 145.714 421.769C145.854 416.577 147.851 413.57 148.691 406.351C149.817 396.667 154.978 367.633 158.977 350.608C162.52 335.531 166.172 318.774 167.639 298.657C168.479 287.123 168.156 285.23 167.097 275.655C166.166 267.237 163.542 256.993 163.305 256.172C161.558 250.03 160.292 244.168 156.81 233.985C153.566 224.49 148.398 212.176 147.072 204.221C146.244 199.242 148.563 190.562 151.125 177.433C152.349 169.977 153.323 164.687 154.29 160.579C154.552 159.465 154.869 158.716 155.611 158.716C156.445 158.716 156.664 160.055 157.389 162.253C157.857 163.671 159.069 166.398 159.513 167.426C161.595 172.217 165.204 181.901 166.275 184.743C170.39 195.657 171.589 201.458 173.038 208.287C175.296 218.957 176.008 231.289 179.258 240.218C180.354 243.213 182.083 247.717 186.021 259.696C190.574 273.525 194.926 280.245 195.224 288.377C195.395 292.984 192.357 297.16 191.706 302.717C191.055 308.274 191.736 311.586 191.974 313.266C192.217 314.952 193.812 321.501 193.867 323.278C193.928 325.056 192.808 329.822 194.676 330.315C197.287 330.996 200.185 326.109 199.813 320.028C199.454 314.057 198.067 310.374 199.546 310.563C201.031 310.746 203.399 311.738 203.606 317.326C203.819 322.919 203.624 327.192 202.796 329.231C201.968 331.27 199.838 333.023 197.927 336.535C196.977 338.282 199.022 340.93 201.713 339.244C204.92 337.235 206.138 334.734 207.933 333.023C209.741 331.307 211.762 327.46 212.809 325.987C213.856 324.514 215.554 313.101 214.702 308.938C213.844 304.781 212.529 299.485 211.184 290.27C209.613 279.539 208.907 268.278 207.933 259.422C206.637 247.614 207.312 239.847 206.308 232.634C204.531 219.803 201.518 215.281 198.462 206.656C193.666 193.131 192.856 187.592 190.616 177.433C189.746 173.513 187.774 162.265 186.824 151.461C185.881 140.657 187.774 121.672 177.621 106.005C172.332 97.83 150.888 94.7258 145.154 93.0154C132.585 89.2659 128.805 84.8956 127.296 80.5679C126.285 77.6767 126.346 73.635 126.23 70.0682C126.224 69.8552 126.334 69.6482 126.523 69.5447C127.137 69.21 127.734 69.0882 129.189 65.6857C130.662 62.2284 132.031 55.3625 131.623 56.1782C131.404 56.6164 135.166 54.7721 136.219 51.3087C137.278 47.8393 138.057 45.5567 137.57 40.7908C137.387 39.0317 135.354 36.4144 134.594 35.6535C133.833 34.8866 134.63 33.6997 134.32 30.2424C134.07 27.4242 133.297 14.7211 128.641 9.1395C124.234 3.85008 116.711 0.660607 108.347 0.751909H108.384V0.757996Z" fill="#FDF5EE"/>
<path d="M108.384 0.757996C100.307 0.843211 91.2679 4.03877 87.0071 9.14558C82.3507 14.7333 82.3264 26.2616 82.0525 29.0859C81.7725 31.9162 81.8212 34.8988 81.0543 35.6657C80.2873 36.4326 78.2543 39.0439 78.0778 40.8029C77.5909 45.5628 78.3761 47.8575 79.4291 51.3209C80.4882 54.7843 82.5394 56.4155 84.0246 56.1903C84.195 58.3937 84.5785 63.251 86.0515 66.7083C86.6906 68.2117 87.908 69.5995 88.2732 69.776C88.474 69.8734 87.9445 77.3236 86.7332 80.854C85.242 85.1878 81.6995 89.2233 69.1485 93.0275C66.6042 93.8006 62.2157 94.8962 55.0759 96.5457C47.6622 98.2561 40.0841 101.537 37.2172 106.011C27.1375 121.733 28.9149 140.931 28.014 151.741C27.1132 162.551 25.348 173.793 24.4959 177.713C22.2985 187.878 21.6533 193.393 16.9178 206.936C13.8988 215.573 10.7884 220.077 9.07195 232.914C8.10416 240.127 8.69458 247.887 7.44678 259.702C6.51551 268.564 5.99204 279.813 4.47035 290.55C3.16778 299.765 1.79216 305.055 0.952187 309.218C0.118298 313.381 2.06607 324.794 3.11908 326.267C4.16601 327.734 5.90683 331.599 7.7146 333.303C9.52846 335.008 10.7215 337.528 13.9353 339.524C16.6317 341.198 18.6769 338.55 17.7274 336.815C15.7979 333.309 13.6979 331.544 12.8518 329.511C12.0119 327.478 11.8597 323.205 12.0423 317.605C12.2249 312.012 14.6231 311.032 16.1022 310.843C17.5874 310.648 16.1631 314.343 15.8344 320.308C15.4935 326.389 18.3665 331.283 20.9716 330.595C22.8403 330.102 22.0064 325.068 22.0551 323.291C22.1038 321.513 23.4429 315.238 23.6802 313.546C23.9115 311.86 24.6237 308.274 23.9481 302.723C23.2724 297.172 20.2838 293.258 20.4299 288.651C20.6916 280.513 24.8672 273.817 29.3592 259.97C33.2487 247.973 35.0443 243.219 36.1216 240.218C39.3354 231.277 39.865 219.243 42.0745 208.561C43.4927 201.725 44.7709 195.687 48.8369 184.749C50.1699 181.164 54.2602 168.595 56.8776 159.148C57.0358 158.57 57.8636 158.594 57.9975 159.179C59.4401 165.485 60.9861 169.989 62.3617 175.278C65.8129 188.554 68.5824 194.756 67.779 204.227C66.6286 217.642 64.3217 223.607 59.4888 236.603C55.7393 246.682 54.6133 250.572 52.8968 256.725C52.6472 257.626 50.1212 269.836 49.6465 279.454C49.2143 288.212 49.2021 297.172 49.3786 299.473C50.4986 314.13 50.6264 315.043 55.3315 341.143C58.4358 358.35 61.5948 373.312 64.5347 387.683C65.6243 393.002 65.0338 394.232 66.1599 403.916C66.9999 411.141 69.2642 416.583 69.4042 421.775C69.7146 433.127 67.852 437.412 67.7851 446.402C67.6755 459.86 70.4998 474.377 73.1962 486.447C76.7874 502.492 76.7326 502.936 76.7144 508.907C76.6961 514.878 75.5701 517.264 75.0953 521.354C74.5657 525.853 75.99 529.109 75.3631 533.26C74.7362 537.405 69.2276 548.836 68.6007 553.28C67.9677 557.729 68.1016 558.697 68.059 560.858C67.9798 564.473 68.1564 565.666 70.2198 565.727C72.9527 565.812 72.5632 561.466 73.4701 562.209C74.371 562.958 70.5119 567.389 74.0118 568.704C78.0961 570.231 78.3395 564.65 78.3395 564.65C78.3395 564.65 77.9074 566.573 78.3395 569.245C78.5343 570.432 80.9934 572.916 83.2151 570.329C83.489 570.006 83.7142 569.641 83.8846 569.264C84.1281 568.74 84.8889 568.837 84.9802 569.404C85.0168 569.635 85.0594 569.854 85.102 570.061C85.6193 572.587 87.6219 573.75 89.9775 571.686C91.2435 570.572 91.0548 566.275 91.0609 566.269C91.0609 566.269 91.2618 571.345 93.4956 571.686C97.1721 572.246 99.9537 569.282 99.7163 563.84C99.4789 558.393 99.5763 553.773 99.1746 542.463C98.8764 533.978 99.7042 531.331 98.9068 521.361C98.006 510.039 99.0164 498.401 101.074 482.667C103.636 463.055 104.172 449.427 102.157 442.08C100.142 434.733 98.4199 427.63 99.4485 419.352C100.477 411.074 100.015 416.558 100.8 408.256C101.086 405.213 100.118 395.735 100.532 390.671C101.859 374.286 101.841 370.347 104.592 343.048C105.389 335.117 107.027 299.181 107.294 299.753C108.554 302.443 109.437 329.043 110.271 342.239C112.377 375.576 112.998 374.28 114.325 390.671C114.739 395.735 113.765 405.213 114.057 408.256C114.842 416.558 114.647 411.068 115.682 419.352C116.711 427.63 114.72 434.733 112.706 442.08C110.697 449.427 111.123 459.215 113.515 482.935C115.116 498.724 116.857 510.033 115.95 521.361C115.152 531.337 116.248 533.985 115.95 542.463C115.548 553.773 115.372 558.399 115.14 563.84C114.903 569.276 117.691 572.246 121.361 571.686C123.589 571.345 124.07 566.275 124.07 566.269C124.07 566.269 123.613 570.572 124.879 571.686C127.229 573.756 129.505 572.587 130.016 570.061C130.059 569.854 130.102 569.629 130.138 569.397C130.235 568.831 130.996 568.74 131.234 569.257C131.41 569.635 131.629 570.006 131.909 570.329C134.131 572.916 136.584 570.432 136.779 569.245C137.211 566.573 136.511 564.65 136.511 564.65C136.511 564.65 137.022 570.237 141.106 568.704C144.606 567.395 140.747 562.958 141.648 562.209C142.549 561.46 142.166 565.812 144.899 565.727C146.968 565.666 147.138 564.473 147.065 560.858C147.017 558.703 147.157 557.729 146.524 553.28C145.891 548.836 140.382 537.405 139.761 533.26C139.134 529.115 140.382 528.044 140.303 523.515C140.224 519.309 138.422 514.872 138.41 508.901C138.386 502.93 138.063 502.492 141.654 486.441C144.357 474.371 147.443 459.854 147.339 446.396C147.272 437.412 145.404 433.12 145.714 421.769C145.854 416.577 147.851 413.57 148.691 406.351C149.817 396.667 154.978 367.633 158.977 350.608C162.52 335.531 166.172 318.774 167.639 298.657C168.479 287.123 168.156 285.23 167.097 275.655C166.166 267.237 163.542 256.993 163.305 256.172C161.558 250.03 160.292 244.168 156.81 233.985C153.566 224.49 148.398 212.176 147.072 204.221C146.244 199.242 148.563 190.562 151.125 177.433C152.349 169.977 153.323 164.687 154.29 160.579C154.552 159.465 154.869 158.716 155.611 158.716C156.445 158.716 156.664 160.055 157.389 162.253C157.857 163.671 159.069 166.398 159.513 167.426C161.595 172.217 165.204 181.901 166.275 184.743C170.39 195.657 171.589 201.458 173.038 208.287C175.296 218.957 176.008 231.289 179.258 240.218C180.354 243.213 182.083 247.717 186.021 259.696C190.574 273.525 194.926 280.245 195.224 288.377C195.394 292.984 192.357 297.16 191.706 302.717C191.055 308.274 191.736 311.586 191.974 313.266C192.217 314.952 193.812 321.501 193.867 323.278C193.928 325.056 192.808 329.822 194.676 330.315C197.287 330.996 200.185 326.109 199.813 320.028C199.454 314.057 198.067 310.374 199.546 310.563C201.031 310.746 203.399 311.738 203.606 317.326C203.819 322.919 203.624 327.192 202.796 329.231C201.968 331.27 199.838 333.023 197.927 336.535C196.977 338.282 199.022 340.93 201.713 339.244C204.92 337.235 206.138 334.734 207.933 333.023C209.741 331.307 211.762 327.46 212.809 325.987C213.856 324.514 215.554 313.101 214.702 308.938C213.844 304.781 212.529 299.485 211.184 290.27C209.613 279.539 208.907 268.278 207.933 259.422C206.637 247.614 207.312 239.847 206.308 232.634C204.531 219.803 201.518 215.281 198.462 206.656C193.666 193.131 192.856 187.592 190.616 177.433C189.746 173.513 187.774 162.265 186.824 151.461C185.881 140.657 187.774 121.672 177.621 106.005C172.332 97.83 150.888 94.7258 145.154 93.0154C132.585 89.2659 128.805 84.8956 127.296 80.5679C126.285 77.6767 126.346 73.6351 126.23 70.0682C126.224 69.8552 126.334 69.6482 126.523 69.5447C127.137 69.21 127.734 69.0882 129.189 65.6857C130.662 62.2284 132.031 55.3625 131.623 56.1782C131.404 56.6164 135.166 54.7721 136.219 51.3087C137.278 47.8393 138.057 45.5567 137.57 40.7908C137.387 39.0317 135.354 36.4144 134.594 35.6535C133.833 34.8866 134.63 33.6997 134.32 30.2424C134.07 27.4242 133.297 14.7211 128.641 9.1395C124.234 3.85008 116.711 0.660607 108.347 0.751909H108.384V0.757996Z" stroke="#E1B9AF" stroke-width="1.5" stroke-linecap="round" stroke-linejoin="round"/>
<g filter="url(#filter0_f_28_1479)">
<circle cx="16" cy="16" r="16" transform="matrix(1 0 0 -1 70.75 533.75)" fill="#F2978B" fill-opacity="0.4"/>
</g>
<circle cx="9.6" cy="9.6" r="9.6" transform="matrix(1 0 0 -1 77.1504 527.35)" fill="#F1836B"/>
<g filter="url(#filter1_f_28_1479)">
<circle cx="16" cy="16" r="16" transform="matrix(1 0 0 -1 91.75 246.75)" fill="#F2978B" fill-opacity="0.4"/>
</g>
<circle cx="9.6" cy="9.6" r="9.6" transform="matrix(1 0 0 -1 98.1504 240.35)" fill="#F1836B"/>
<g filter="url(#filter2_f_28_1479)">
<circle cx="16" cy="16" r="16" transform="matrix(1 0 0 -1 129.75 218.75)" fill="#F2978B" fill-opacity="0.4"/>
</g>
<circle cx="9.6" cy="9.6" r="9.6" transform="matrix(1 0 0 -1 136.15 212.35)" fill="#F1836B"/>
<defs>
<filter id="filter0_f_28_1479" x="66.75" y="497.75" width="40" height="40" filterUnits="userSpaceOnUse" color-interpolation-filters="sRGB">
<feFlood flood-opacity="0" result="BackgroundImageFix"/>
<feBlend mode="normal" in="SourceGraphic" in2="BackgroundImageFix" result="shape"/>
<feGaussianBlur stdDeviation="2" result="effect1_foregroundBlur_28_1479"/>
</filter>
<filter id="filter1_f_28_1479" x="87.75" y="210.75" width="40" height="40" filterUnits="userSpaceOnUse" color-interpolation-filters="sRGB">
<feFlood flood-opacity="0" result="BackgroundImageFix"/>
<feBlend mode="normal" in="SourceGraphic" in2="BackgroundImageFix" result="shape"/>
<feGaussianBlur stdDeviation="2" result="effect1_foregroundBlur_28_1479"/>
</filter>
<filter id="filter2_f_28_1479" x="125.75" y="182.75" width="40" height="40" filterUnits="userSpaceOnUse" color-interpolation-filters="sRGB">
<feFlood flood-opacity="0" result="BackgroundImageFix"/>
<feBlend mode="normal" in="SourceGraphic" in2="BackgroundImageFix" result="shape"/>
<feGaussianBlur stdDeviation="2" result="effect1_foregroundBlur_28_1479"/>
</filter>
</defs>
</svg>
