<svg width="360" height="63" viewBox="0 0 360 63" fill="none" xmlns="http://www.w3.org/2000/svg">
<path d="M311.256 0C305.073 0 299.497 1.17333 294.289 6.36754C289.082 11.5749 289.332 18.5225 289.332 18.5225C289.372 21.792 290.849 22.9257 294.672 22.9257C298.851 22.9257 299.8 21.8183 300.077 18.9444C300.406 15.464 301.487 13.5129 302.832 12.1682C304.361 10.6389 306.958 8.93826 310.689 8.93826C314.789 8.93826 317.281 10.3225 318.758 11.799C320.234 13.2756 321.684 15.6749 321.684 19.2476C321.684 22.3588 321.17 23.374 318.151 24.1782C314.803 25.0746 307.789 26.9466 303.254 28.1858C298.587 29.4514 294.632 31.4553 291.771 34.3952C289.042 37.2032 287.421 40.6704 287.421 45.6273C287.421 50.5842 289.53 54.816 293.419 58.0855C297.796 61.7636 304.889 63.2929 314.236 62.937C319.799 62.726 324.004 61.6582 326.193 60.8276C330.939 59.0215 332.508 57.4791 332.508 52.4431V20.79C332.508 14.2775 330.741 9.39967 327.037 5.68199C323.332 1.97749 317.452 0 311.269 0H311.256ZM321.381 48.6068C321.381 50.1228 321.091 51.1511 320.419 51.863C319.746 52.5749 317.98 53.6823 313.432 53.8537C306.853 54.1042 303.017 52.6276 300.973 50.6897C298.93 48.7518 298.482 46.8138 298.482 44.9945C298.482 43.0566 299.167 41.3823 300.538 40.0376C302.12 38.4688 303.874 37.8228 305.785 37.2164C307.156 36.7813 314.565 34.7775 318.652 33.6701C320.274 33.235 321.381 32.7736 321.381 32.7736C321.381 34.8698 321.381 42.1337 321.381 48.6199V48.6068Z" fill="#1C9AD6"/>
<path d="M353.84 0.210815C350.003 0.210815 348.29 1.14682 348.29 4.69312V58.2831C348.29 61.8426 350.003 62.7654 353.84 62.7654C357.676 62.7654 359.39 61.8294 359.39 58.2831V4.69312C359.39 1.14682 357.676 0.210815 353.84 0.210815Z" fill="#1C9AD6"/>
<path d="M276.744 55.4883C276.796 49.5294 276.032 43.676 272.63 38.4555C270.191 34.7114 267.041 31.4288 264.009 27.6716C271.615 22.6751 275.531 15.5034 275.438 6.63102H275.425V4.67992C275.425 1.13362 273.764 0.197617 270.046 0.197617C266.329 0.197617 264.668 1.13362 264.668 4.67992V6.49922C264.694 11.4166 262.782 15.8461 258.92 18.9178C255.149 21.9104 250.43 24.6394 246 27.4606C245.578 27.7375 245.117 28.0538 244.695 28.423V4.67992C244.695 1.13362 242.981 0.197617 239.145 0.197617C235.309 0.197617 233.595 1.13362 233.595 4.67992V58.2699C233.595 61.8294 235.309 62.7522 239.145 62.7522C242.981 62.7522 244.695 61.8162 244.695 58.2699V43.4124C244.695 41.3162 245.697 39.932 246.87 38.9696C247.938 38.0995 251.511 35.7265 255.11 33.3799C261.306 40.4725 265.986 44.7043 265.986 55.9628V58.2699C265.986 61.8294 267.647 62.7522 271.365 62.7522C275.082 62.7522 276.744 61.8162 276.744 58.2699V55.4883Z" fill="#1C9AD6"/>
<path d="M152.293 40.7758C152.319 40.6967 152.346 40.6836 152.385 40.6968C152.451 40.6968 152.491 40.7363 152.517 40.789C153.11 42.3183 154.323 43.6762 156.116 44.7967C157.896 45.9173 159.531 46.5238 160.994 46.5897H161.073L163.42 43.9266C163.499 43.8475 163.538 43.7421 163.538 43.6366C163.538 43.5575 163.512 43.3861 163.196 43.3202C161.587 43.1752 159.452 42.0678 157.672 40.4463C155.76 38.7061 154.903 35.1861 154.903 31.1389V27.1839H149.92V31.1389C149.92 35.1861 149.037 39.1016 147.099 40.8154C145.306 42.4106 143.263 43.1488 141.602 43.3202C141.377 43.3729 141.325 43.5179 141.298 43.597C141.285 43.6761 141.298 43.808 141.391 43.9266L143.737 46.5897H143.829C145.385 46.4842 147.059 45.8646 148.813 44.7308C150.566 43.5971 151.753 42.2655 152.306 40.7627L152.293 40.7758Z" fill="#1C9AD6"/>
<path d="M204.591 50.2677H190.353V46.6818H185.489V57.6503C185.489 58.6918 185.766 59.5092 186.319 60.0497C186.873 60.6034 187.638 60.8802 188.587 60.8802H206.358C207.32 60.8802 208.085 60.6034 208.625 60.0497C209.179 59.5092 209.456 58.6918 209.456 57.6503V46.3127H204.591V50.2677ZM204.591 56.8197C204.591 57.0439 204.539 57.1362 204.512 57.1625C204.486 57.1889 204.407 57.2416 204.183 57.2416H190.775C190.512 57.2416 190.419 57.2021 190.419 57.2021C190.419 57.2021 190.367 57.1361 190.367 56.8593V53.9854H204.605V56.8197H204.591Z" fill="#1C9AD6"/>
<path d="M58.1904 30.8224C58.1904 30.8224 58.2827 30.9675 58.2827 31.2575V33.7359C58.2827 35.2125 58.2168 36.399 58.085 37.2691C58.0323 37.6118 57.94 37.9282 57.8345 38.2578L57.7554 38.4951H62.6068L62.7123 38.2183C62.7782 38.0601 62.8309 37.9018 62.8837 37.7436C63.0814 36.979 63.1869 35.7661 63.1869 34.1578V27.5661C63.1869 27.3684 63.1342 27.2234 63.0419 27.1179C62.9496 27.0256 62.8046 26.9729 62.6332 26.9729H38.2441V30.7301H57.7159C58.0454 30.7301 58.1509 30.796 58.1773 30.8224H58.1904Z" fill="#1C9AD6"/>
<path d="M204.67 25.8391V32.9976H199.133C199.133 32.9976 199.12 32.9054 199.106 32.8658L199.054 32.734C198.487 30.8752 197.327 29.3063 195.626 28.0935C193.886 26.8542 191.856 26.2215 189.601 26.2215C186.899 26.2215 184.578 27.1047 182.68 28.8581C180.769 30.6115 179.806 32.7604 179.806 35.252C179.806 37.7437 180.769 39.8925 182.68 41.6459C184.578 43.3861 186.912 44.2826 189.601 44.2826C190.168 44.2826 190.748 44.243 191.355 44.1507H191.421C191.869 44.0716 192.304 43.9529 192.713 43.8343C192.937 43.7684 193.148 43.7025 193.345 43.6234C193.662 43.5047 193.978 43.3729 194.281 43.2147C194.506 43.1092 194.716 42.9774 194.927 42.8587C195.231 42.6742 195.547 42.4764 195.85 42.2523C195.956 42.1732 196.061 42.0809 196.167 41.9886L196.272 41.8964C196.496 41.6986 196.72 41.5009 196.931 41.2899C197.129 41.079 197.327 40.8681 197.511 40.6308C197.656 40.4462 197.801 40.2616 197.933 40.0639L197.986 39.998C198.091 39.853 198.197 39.6948 198.289 39.5366C198.526 39.1411 198.698 38.7587 198.843 38.4028L198.909 38.2578C199.041 37.8887 199.133 37.5063 199.225 37.124H204.696V44.4012C204.762 44.9417 205.184 45.0867 205.382 45.1131H207.082C207.636 45.0603 209.442 44.6912 209.495 42.4105V25.826H204.709L204.67 25.8391ZM192.937 39.0093C192.001 40.0375 190.88 40.5517 189.588 40.5517C188.296 40.5517 187.189 40.0375 186.266 39.0093C185.343 37.9678 184.882 36.7153 184.882 35.2652C184.882 33.815 185.343 32.5494 186.266 31.5211C187.189 30.4928 188.309 29.9655 189.588 29.9655C190.867 29.9655 192.001 30.4928 192.937 31.5211C193.873 32.5494 194.347 33.815 194.347 35.2652C194.347 36.7153 193.873 37.981 192.937 39.0093Z" fill="#1C9AD6"/>
<path d="M82.0134 44.1506H82.0793C82.5407 44.0715 82.9626 43.9529 83.3713 43.8342C83.5822 43.7683 83.8063 43.7024 84.0041 43.6233C84.3205 43.5047 84.6369 43.3728 84.9401 43.2146C85.1642 43.1091 85.3751 42.9773 85.5861 42.8587C85.8893 42.6741 86.2057 42.4764 86.5089 42.2523C86.6144 42.1732 86.7198 42.0809 86.8253 41.9886L86.9308 41.8963C87.1681 41.6985 87.379 41.5008 87.5899 41.2899C87.7877 41.0789 87.9854 40.868 88.17 40.6307C88.315 40.4461 88.46 40.2616 88.5918 40.0638L88.6314 39.9979C88.7369 39.8529 88.8423 39.6947 88.9346 39.5365C89.1587 39.141 89.3433 38.7587 89.4883 38.4027L89.5542 38.2577C89.7124 37.8227 89.8311 37.3744 89.9234 36.9262H89.9497L89.9761 36.7812C90.0816 36.2407 90.1343 35.7397 90.1343 35.2387C90.1343 34.4609 90.0157 33.6568 89.7784 32.8658L89.7124 32.7339C89.1455 30.8751 87.9986 29.3063 86.2848 28.0934C84.5446 26.8542 82.5144 26.2214 80.26 26.2214C77.5707 26.2214 75.2372 27.1047 73.3388 28.858C71.4273 30.6114 70.4648 32.7603 70.4648 35.2519C70.4648 37.7436 71.4273 39.8925 73.3388 41.6458C75.2372 43.386 77.5707 44.2825 80.26 44.2825C80.8269 44.2825 81.407 44.2429 82.0134 44.1506ZM76.9378 39.0092C76.015 37.9677 75.5536 36.7153 75.5536 35.2651C75.5536 33.8149 76.0282 32.5493 76.9378 31.5211C77.8607 30.4928 78.9681 29.9654 80.26 29.9654C81.552 29.9654 82.6726 30.4928 83.6086 31.5211C84.5446 32.5493 85.0192 33.8149 85.0192 35.2651C85.0192 36.7153 84.5446 37.9809 83.6086 39.0092C82.6857 40.0375 81.552 40.5516 80.26 40.5516C78.9681 40.5516 77.8607 40.0375 76.9378 39.0092Z" fill="#1C9AD6"/>
<path d="M11.6408 47.0641C11.6408 47.0641 11.6804 47.0641 11.6936 47.0641C12.1023 46.9982 12.4846 46.8928 12.8405 46.7741C13.0383 46.7082 13.2228 46.6555 13.4074 46.5764C13.6974 46.4709 13.9743 46.3391 14.2379 46.2072C14.4357 46.1018 14.6203 45.9963 14.8048 45.8777C15.0685 45.7063 15.3585 45.5349 15.6354 45.3108C15.7408 45.2317 15.8199 45.1526 15.9122 45.0735L16.0045 44.9944C16.2022 44.8098 16.4 44.6252 16.5978 44.4275C16.7823 44.2297 16.9537 44.032 17.1119 43.8211C17.2437 43.6497 17.3756 43.4783 17.4942 43.3069L17.5338 43.241C17.626 43.1092 17.7183 42.9641 17.7974 42.8191C18.0083 42.45 18.1665 42.1072 18.3116 41.7381L18.3511 41.6326C18.4961 41.2371 18.6016 40.8284 18.6807 40.4198L18.7334 40.2748C18.8257 39.7738 18.8653 39.3124 18.8653 38.8509C18.8653 38.1391 18.7598 37.4008 18.5489 36.6757L18.4961 36.5439C18.1138 35.2387 17.4151 34.105 16.4264 33.1294H18.9048C20.6846 33.0899 20.9614 31.6793 21.0141 31.2574V29.9391C20.9878 29.7941 20.8823 29.4645 20.4604 29.4117H12.6164V24.8899H7.52766V29.4117H0V33.1294H3.74406C2.1357 34.7114 1.30515 36.6494 1.30515 38.8773C1.30515 41.1053 2.16206 43.1355 3.87588 44.7439C5.57653 46.3522 7.65948 47.1696 10.072 47.1696C10.573 47.1696 11.0871 47.13 11.6277 47.0509L11.6408 47.0641ZM7.29037 42.1468C6.51255 41.2503 6.11704 40.1561 6.11704 38.8905C6.11704 37.6249 6.51255 36.5307 7.29037 35.6342C8.06818 34.7509 9.00419 34.2895 10.0852 34.2895C11.1662 34.2895 12.1023 34.7378 12.8933 35.6342C13.6843 36.5307 14.0797 37.6249 14.0797 38.8905C14.0797 40.1561 13.6843 41.2503 12.8933 42.1468C12.1154 43.03 11.1662 43.4915 10.0852 43.4915C9.00419 43.4915 8.06818 43.0432 7.29037 42.1468Z" fill="#1C9AD6"/>
<path d="M28.7792 56.7407H10.2699C10.1381 56.7407 10.0589 56.7144 9.99303 56.6484C9.92712 56.5825 9.90076 56.4902 9.90076 56.3584V48.8703H4.99658V57.2681C4.99658 58.3755 5.26024 59.1928 5.78757 59.7202C6.3149 60.2475 7.1059 60.5112 8.16056 60.5112H27.2236C28.9901 60.4716 29.2802 59.061 29.3329 58.6391V57.2813C29.3065 57.1362 29.2011 56.8067 28.7792 56.7539V56.7407Z" fill="#1C9AD6"/>
<path d="M67.3932 40.5912H33.6045V44.3352H47.8029V48.6462H37.5727V52.3902H58.5341C58.6 52.3902 58.6527 52.4034 58.6791 52.4298C58.7186 52.4693 58.7186 52.5352 58.7186 52.588V60.1552C58.7977 60.6957 59.2196 60.8407 59.4173 60.8671H61.118C61.6717 60.8143 63.4778 60.4452 63.5305 58.1645V49.1999C63.5305 49.0285 63.4778 48.8835 63.3855 48.7912C63.3196 48.7253 63.1878 48.6462 62.9768 48.6462H53.1026V44.3352H65.8244C67.6042 44.3089 67.8942 42.8983 67.9337 42.4632V41.1054C67.9074 40.9472 67.8019 40.6307 67.38 40.578L67.3932 40.5912Z" fill="#1C9AD6"/>
<path d="M99.5468 57.3735H80.7211C80.6024 57.3735 80.5629 57.3471 80.5629 57.3339C80.5629 57.3339 80.5365 57.3075 80.5365 57.2416V55.1191H98.8085C99.1381 55.1191 99.3754 55.0268 99.5204 54.8423C99.6523 54.6841 99.7182 54.4599 99.7182 54.2226V46.9587C99.7182 46.7214 99.6522 46.4973 99.5072 46.2995C99.349 46.0886 99.1117 45.9831 98.8085 45.9831H75.5664V49.2789H94.8535V51.6651H75.6323V57.5317C75.6323 58.7445 75.8697 59.5882 76.3443 60.0892C76.8189 60.5902 77.6362 60.8407 78.7568 60.8407H98.0176C99.7446 60.8011 100.035 59.43 100.074 59.0082V57.848C100.048 57.703 99.9423 57.3866 99.5336 57.3339L99.5468 57.3735Z" fill="#1C9AD6"/>
<path d="M135.313 57.3736H115.564C115.459 57.3736 115.406 57.3472 115.406 57.334C115.393 57.3209 115.38 57.2813 115.38 57.2417V55.2379H134.575C134.904 55.2379 135.141 55.1456 135.286 54.961C135.418 54.7896 135.497 54.5787 135.497 54.3414V46.8929C135.497 46.6556 135.445 46.4974 135.339 46.4051C135.247 46.326 135.115 46.2865 134.944 46.2865H110.41V49.5559H130.62V51.8366H110.476V57.5581C110.476 58.771 110.713 59.6147 111.187 60.1157C111.662 60.6167 112.479 60.8671 113.613 60.8671H133.797C135.524 60.8276 135.814 59.4565 135.853 59.0347V57.8746C135.827 57.7295 135.722 57.4131 135.313 57.3604V57.3736Z" fill="#1C9AD6"/>
<path d="M172.331 56.754H154.244C154.125 56.754 154.033 56.7276 153.967 56.6617C153.901 56.5958 153.875 56.5035 153.875 56.3716V48.2771H148.971V57.2813C148.971 58.3887 149.234 59.206 149.762 59.7334C150.289 60.2607 151.093 60.5244 152.148 60.5244H170.829C172.556 60.4848 172.846 59.1138 172.885 58.6919V57.2813C172.859 57.1363 172.753 56.8199 172.345 56.7671L172.331 56.754Z" fill="#1C9AD6"/>
<path d="M139.084 40.5516H124.107V37.0185H130.475C130.383 37.414 130.264 37.7963 130.106 38.1391C129.921 38.5478 129.684 38.9433 129.407 39.3388L129.196 39.6288H133.81L133.863 39.5629C134.443 38.851 134.891 38.0996 135.195 37.3481C135.511 36.5835 135.669 35.3047 135.669 33.4459V27.1443C135.669 26.9729 135.616 26.841 135.524 26.7355C135.419 26.6433 135.287 26.5906 135.129 26.5906H109.975V30.3478H130.211C130.541 30.3478 130.646 30.4137 130.673 30.4401C130.712 30.4796 130.765 30.5851 130.765 30.8883V33.3799H110.331V37.0185H119.085V40.5384H105.387V44.2166H137.554C139.295 44.177 139.571 42.806 139.611 42.3841V41.0658C139.585 40.9208 139.479 40.6044 139.07 40.5516H139.084Z" fill="#1C9AD6"/>
<path d="M177.763 34.9488H172.503V25.8524H167.717V50.3864C167.783 50.9269 168.205 51.072 168.403 51.0983H170.09C170.644 51.0456 172.45 50.6765 172.503 48.3958V38.9434H176.247C177.974 38.9038 178.264 37.5328 178.303 37.1109V35.4762C178.277 35.3311 178.172 35.0148 177.763 34.962V34.9488Z" fill="#1C9AD6"/>
<path d="M104.53 32.7077H99.7177V25.8392H94.9321V44.1508C94.998 44.6913 95.4199 44.8363 95.6177 44.8626H97.3183C97.872 44.8099 99.6781 44.4408 99.7309 42.1601V41.2241V36.7022H103.027C104.754 36.6627 105.044 35.2916 105.083 34.8697V33.235C105.057 33.09 104.951 32.7736 104.543 32.7208L104.53 32.7077Z" fill="#1C9AD6"/>
<path d="M34.6853 36.9263V35.2916C34.6589 35.1466 34.5535 34.8302 34.1448 34.7774H28.9637V25.8392H24.165V50.3733C24.231 50.9138 24.6528 51.0588 24.8506 51.0851H26.5512C27.1049 51.0324 28.911 50.6633 28.9637 48.3826V38.772H32.6287C34.3557 38.7324 34.6458 37.3614 34.6853 36.9395V36.9263Z" fill="#1C9AD6"/>
</svg>
