<svg width="479" height="83" viewBox="0 0 479 83" fill="none" xmlns="http://www.w3.org/2000/svg">
<path d="M41.4225 0C18.5833 0 0 18.5833 0 41.4225C0 64.2618 18.5833 82.845 41.4225 82.845C64.2618 82.845 82.845 64.2618 82.845 41.4225C82.845 18.5833 64.2618 0 41.4225 0ZM41.4225 20.3052C39.4895 18.096 38.661 15.5944 39.2133 13.6126C39.5544 12.378 40.3667 11.5496 41.2438 11.5496H41.6012C42.4784 11.5496 43.2906 12.378 43.6317 13.6126C44.184 15.5944 43.3556 18.096 41.4225 20.3052ZM11.176 21.426C13.3527 24.22 21.9296 29.2394 30.5714 28.9145H30.7339L30.6202 28.8008C28.9308 27.2739 27.3226 26.3155 24.9185 25.0809C24.4312 24.9672 23.9438 24.8373 23.4728 24.7073C19.1518 23.4403 16.1791 21.4747 15.1395 20.7113C16.504 20.8899 20.3376 21.5722 25.0809 23.9438C25.9581 24.3824 26.9003 24.9185 27.7775 25.4545C29.4993 26.4779 30.8314 27.4851 32.1959 28.8496L32.2446 28.8983C34.3726 30.9776 35.8021 33.2517 36.5168 35.6559C36.9229 37.0529 37.1666 38.5473 37.2315 40.123C33.9177 41.8611 30.5227 45.581 27.4201 50.8766C24.9022 55.1813 22.6606 60.3632 21.296 65.1227C19.7853 70.3371 20.094 72.4163 20.8087 73.391C10.3313 66.6009 3.39502 54.8077 3.39502 41.4388C3.39502 33.1705 6.05906 25.5195 10.5424 19.2655C10.4287 19.8178 10.5262 20.5488 11.2084 21.4422L11.176 21.426ZM25.2921 73.1635C29.8242 69.736 39.2296 56.1722 40.3179 43.518V43.4205L40.2367 43.453C39.0834 43.7942 37.9788 44.5252 36.8092 45.646V45.6785C35.6883 52.2249 32.5207 58.2514 30.7339 61.2728C27.9724 65.9512 25.0809 69.2974 23.3915 70.597C23.6514 67.137 26.8353 57.0331 32.2283 49.3497C33.8528 47.043 35.4772 45.2561 37.0529 44.0378L37.1666 43.9729C38.2224 43.1444 39.2783 42.6083 40.3667 42.3484H40.4154C40.5453 42.2997 40.6753 42.2672 40.8215 42.251H40.854C41.0652 42.2185 41.2438 42.2022 41.4225 42.186C41.8936 42.2022 42.3647 42.2835 42.852 42.4297C43.9404 55.9448 53.2482 70.1909 57.9753 73.4559C58.7875 74.0245 59.551 74.3006 60.2332 74.3006C60.3794 74.3006 60.5256 74.2844 60.6718 74.2519C55.0189 77.5657 48.4562 79.4825 41.4388 79.4825C34.4213 79.4825 27.8587 77.5657 22.2057 74.2519C23.0829 74.3981 24.1225 74.0245 25.3083 73.1473L25.2921 73.1635ZM62.0526 73.4072C62.7836 72.4488 63.0922 70.3696 61.5815 65.1227C59.1286 56.6433 53.5569 45.4836 47.108 41.0164L47.0105 40.9514V41.0814C47.0592 42.5434 47.2542 44.1353 47.5466 45.581V45.6135C48.5699 46.6531 49.5933 47.9039 50.6167 49.3497C56.0097 57.0006 59.1936 67.1045 59.4535 70.5807C57.5042 69.0213 54.1092 64.7166 51.104 58.7388C49.6908 55.9285 47.774 51.5589 46.7344 46.7181C46.1821 44.4602 45.9059 41.7474 45.9871 39.6194C46.0034 38.1737 46.1496 36.7929 46.4095 35.5259C46.8318 33.4791 47.8227 31.5136 49.3659 29.6943L49.4309 29.613H49.3334C48.1638 29.3531 47.0755 29.0607 46.1008 28.6871H46.0521L46.0196 28.7034C44.6226 30.6202 43.6967 32.6832 43.2419 34.8761C42.9657 36.2082 42.8033 37.6214 42.7708 39.0834C42.3972 39.0184 42.0073 38.9697 41.6175 38.9534H41.2276H41.1626C40.9027 38.9697 40.6266 39.0021 40.3504 39.0346C40.2205 37.5402 39.9606 36.0944 39.5707 34.7299C38.8722 32.3258 37.5889 30.0516 35.7533 27.9399C36.7929 27.5825 37.8001 27.1114 38.726 26.5591C39.7006 25.9744 40.5941 25.3571 41.4063 24.7073L41.455 24.6748C42.2672 24.0251 43.0144 23.3266 43.7454 22.5306L43.8104 22.4656C46.5394 19.3955 47.5953 15.8543 46.7344 12.7354C46.0034 10.0876 43.9404 8.31699 41.6012 8.31699H41.2438C38.9047 8.31699 36.8417 10.0876 36.1107 12.7354C35.2498 15.8543 36.3219 19.4117 39.0509 22.4819C38.4498 22.9367 37.7838 23.3915 37.0853 23.8139C35.8833 24.5286 34.5513 25.0484 33.1218 25.3571C29.3369 22.1407 24.1063 19.5092 18.7457 18.1447C15.2532 17.2513 12.8491 17.17 11.5658 17.8685C18.5345 9.03173 29.3206 3.34629 41.4225 3.34629C53.5244 3.34629 64.343 9.04798 71.328 17.901C69.07 16.634 63.5145 18.1284 61.7764 18.6483C59.5185 19.3305 53.7843 21.3285 49.2359 25.2434C47.9851 24.9347 46.8318 24.4474 45.7759 23.8139C45.4023 23.5865 45.045 23.3591 44.7038 23.1316L44.6551 23.0991L44.6226 23.1316C43.8916 23.9438 43.1444 24.6423 42.3484 25.3083L42.2835 25.3571L42.3484 25.4058C42.9332 25.8282 43.518 26.2018 44.119 26.5754C44.8663 27.014 45.6622 27.4201 46.5069 27.745C47.6765 28.1836 48.9923 28.5084 50.4055 28.7521L50.4705 28.7683C51.3639 28.8983 52.2736 28.947 53.1833 28.947C61.5165 28.947 69.6386 24.1225 71.6691 21.5397C72.4163 20.5813 72.4813 19.8016 72.3513 19.2168C76.851 25.4708 79.515 33.138 79.515 41.4225C79.515 54.8239 72.5463 66.6172 62.0688 73.4072H62.0526ZM67.9492 20.6463C66.3573 21.8808 63.4658 23.5215 59.9246 24.6099C57.8778 25.2434 55.8798 25.6007 54.0117 25.6982C54.5965 25.3083 55.23 24.9347 55.8636 24.5936C60.7368 21.9296 65.6425 20.8737 67.9492 20.6463Z" fill="#553E3D"/>
<path d="M308.215 26.7051L295.545 55.7008H300.727L303.683 48.7484H317.296L320.22 55.7008H325.564L312.894 26.7051H308.199H308.215ZM305.551 44.265L310.49 32.7479L315.46 44.265H305.551Z" fill="#553E3D"/>
<path d="M336.595 26.917H331.575V55.7016H351.734V51.137H336.595V26.917Z" fill="#553E3D"/>
<path d="M368.887 26.7051L356.217 55.7008H361.399L364.355 48.7484H377.968L380.892 55.7008H386.236L373.566 26.7051H368.871H368.887ZM366.223 44.265L371.161 32.7479L376.132 44.265H366.223Z" fill="#553E3D"/>
<path d="M411.74 46.816L396.357 26.917H391.662V55.7016H396.682V35.2177L412.536 55.7016H416.759V26.917H411.74V46.816Z" fill="#553E3D"/>
<path d="M442.7 50.5513C441.433 51.2173 439.922 51.5585 438.168 51.5585C436.803 51.5585 435.52 51.2986 434.367 50.7625C433.197 50.2265 432.19 49.4955 431.345 48.5696C430.501 47.6436 429.835 46.5553 429.364 45.3045C428.892 44.0537 428.665 42.7217 428.665 41.2922C428.665 39.8627 428.892 38.5307 429.364 37.2961C429.835 36.0616 430.484 34.9895 431.345 34.0635C432.19 33.1376 433.197 32.4229 434.367 31.8868C435.536 31.3508 436.803 31.0909 438.168 31.0909C439.808 31.0909 441.287 31.4158 442.57 32.0818C443.853 32.7478 445.088 33.6087 446.225 34.6808L449.474 30.9447C448.792 30.2787 448.06 29.6776 447.297 29.1416C446.534 28.5893 445.689 28.1182 444.795 27.7283C443.886 27.3385 442.895 27.0298 441.807 26.8024C440.718 26.575 439.516 26.4775 438.2 26.4775C436.007 26.4775 434.009 26.8674 432.19 27.6471C430.387 28.4268 428.811 29.4989 427.495 30.8635C426.18 32.228 425.156 33.8036 424.425 35.6067C423.694 37.4098 423.337 39.3429 423.337 41.4059C423.337 43.4689 423.711 45.4344 424.442 47.2538C425.189 49.0569 426.196 50.6326 427.512 51.9646C428.811 53.2966 430.354 54.3525 432.141 55.1159C433.928 55.8794 435.877 56.2693 437.989 56.2693C439.337 56.2693 440.556 56.1556 441.677 55.9281C442.781 55.7007 443.805 55.3596 444.747 54.9048C445.673 54.4499 446.55 53.9139 447.362 53.2966C448.174 52.6793 448.938 51.9808 449.685 51.1849L446.436 47.8873C445.202 49.0406 443.951 49.9503 442.7 50.6163V50.5513Z" fill="#553E3D"/>
<path d="M461.674 51.137V43.4535H476.115V38.8889H461.674V31.4816H477.967V26.917H456.654V55.7016H478.162V51.137H461.674Z" fill="#553E3D"/>
<path d="M267.849 55.7016H272.868V51.2182V43.3236V39.0838V31.4004V26.917H267.849V55.7016Z" fill="#553E3D"/>
<path d="M152.093 43.486C152.093 46.15 151.443 48.1481 150.144 49.4963C148.844 50.8446 147.074 51.5106 144.8 51.5106C142.525 51.5106 140.722 50.8121 139.423 49.4151C138.123 48.0181 137.474 45.9714 137.474 43.2911V26.917H132.454V43.5022C132.454 45.5815 132.746 47.4171 133.315 48.9928C133.884 50.5684 134.712 51.9005 135.784 52.9563C136.856 54.0284 138.14 54.8244 139.65 55.3605C141.161 55.8965 142.85 56.1564 144.718 56.1564C146.586 56.1564 148.325 55.8965 149.835 55.3605C151.346 54.8244 152.646 54.0122 153.718 52.9401C154.79 51.8517 155.618 50.5035 156.203 48.8953C156.788 47.2709 157.08 45.4028 157.08 43.2586V26.9332H152.061V43.5185L152.093 43.486Z" fill="#553E3D"/>
<path d="M178.685 40.5296L169.929 26.917H164.536V55.7016H169.556V35.1365L178.555 48.6354H178.733L187.814 35.0553V55.7016H192.833V26.917H187.44L178.685 40.5296Z" fill="#553E3D"/>
<path d="M211.514 26.7051L198.844 55.7008H204.026L206.982 48.7484H220.595L223.519 55.7008H228.863L216.192 26.7051H211.498H211.514ZM208.834 44.265L213.772 32.7479L218.743 44.265H208.834Z" fill="#553E3D"/>
<path d="M253.895 46.816L238.512 26.917H233.817V55.7016H238.837V35.2177L254.691 55.7016H258.915V26.917H253.895V46.816Z" fill="#553E3D"/>
<path d="M119.426 38.8889H108.104V43.5672H119.426V55.7016H124.445V26.917H119.426V38.8889Z" fill="#553E3D"/>
<path d="M100.583 55.7016H105.602V49.8375V35.104V26.917H100.583V55.7016Z" fill="#553E3D"/>
<path d="M291.077 43.7295C290.557 42.6737 289.794 41.7802 288.819 41.0655C287.877 40.367 286.74 39.8472 285.44 39.4736C284.173 39.1162 282.744 38.9375 281.217 38.9375H275.142V43.5346H281.331C283.15 43.5346 284.579 43.9082 285.57 44.6229C286.464 45.2565 286.902 46.1499 286.919 47.3357C286.902 48.5215 286.448 49.415 285.57 50.0485C284.579 50.7632 283.15 51.1368 281.331 51.1368H275.142V55.7339H281.217C282.744 55.7339 284.173 55.5552 285.44 55.1979C286.74 54.8405 287.877 54.3044 288.819 53.6059C289.794 52.8912 290.557 51.9978 291.077 50.9419C291.597 49.886 291.857 48.7002 291.857 47.4169V47.2545C291.857 45.955 291.597 44.7691 291.077 43.7295Z" fill="#553E3D"/>
<path d="M284.27 32.4884C285.049 33.0894 285.423 33.9016 285.423 34.9737C285.423 35.8184 285.212 36.5169 284.806 37.0855C285.017 37.1342 285.228 37.1829 285.423 37.2317C286.723 37.589 287.86 38.1251 288.802 38.8236C288.867 38.8723 288.932 38.9373 289.013 38.986C289.387 38.4662 289.712 37.8652 289.939 37.2317C290.215 36.4682 290.361 35.5748 290.361 34.5676C290.361 33.398 290.118 32.3259 289.647 31.3675C289.175 30.4091 288.493 29.5807 287.6 28.9147C286.755 28.2811 285.715 27.7776 284.546 27.4202C283.393 27.0791 282.093 26.9004 280.68 26.9004H275.092V31.4975H280.436C282.109 31.4975 283.393 31.8224 284.237 32.4884H284.27Z" fill="#553E3D"/>
</svg>
