<svg width="1438" height="1438" viewBox="0 0 1438 1438" fill="none" xmlns="http://www.w3.org/2000/svg">
<path d="M719 0C322.563 0 0 322.563 0 719C0 1115.44 322.563 1438 719 1438C1115.44 1438 1438 1115.44 1438 719C1438 322.563 1115.44 0 719 0ZM719 352.451C685.447 314.104 671.067 270.682 680.653 236.283C686.575 214.854 700.673 200.474 715.898 200.474H722.102C737.327 200.474 751.426 214.854 757.347 236.283C766.933 270.682 752.553 314.104 719 352.451ZM193.989 371.906C231.772 420.404 380.647 507.529 530.65 501.89H533.47L531.496 499.916C502.172 473.412 474.258 456.776 432.528 435.347C424.069 433.374 415.61 431.118 407.433 428.862C332.432 406.869 280.833 372.752 262.787 359.5C286.472 362.602 353.015 374.444 435.347 415.61C450.573 423.223 466.927 432.528 482.153 441.833C512.041 459.596 535.162 477.078 558.846 500.762L559.692 501.608C596.629 537.699 621.442 577.174 633.848 618.904C640.897 643.153 645.126 669.093 646.254 696.443C588.734 726.613 529.804 791.182 475.95 883.101C432.246 957.821 393.335 1047.77 369.651 1130.38C343.428 1220.89 348.786 1256.98 361.192 1273.9C179.327 1156.04 58.9298 951.336 58.9298 719.282C58.9298 575.764 105.171 442.96 182.993 334.405C181.019 343.992 182.711 356.68 194.553 372.188L193.989 371.906ZM439.013 1269.95C517.68 1210.46 680.935 975.02 699.827 755.373V753.681L698.417 754.245C678.398 760.166 659.224 772.855 638.923 792.31V792.874C619.468 906.504 564.486 1011.11 533.47 1063.56C485.536 1144.76 435.347 1202.84 406.024 1225.4C410.535 1165.34 465.799 989.964 559.41 856.597C587.606 816.558 615.802 785.543 643.153 764.396L645.126 763.268C663.454 748.888 681.781 739.583 700.673 735.072H701.518C703.774 734.226 706.03 733.662 708.567 733.38H709.131C712.797 732.816 715.898 732.534 719 732.252C727.177 732.534 735.354 733.944 743.813 736.482C762.704 971.073 924.267 1218.35 1006.32 1275.03C1020.42 1284.9 1033.67 1289.69 1045.51 1289.69C1048.05 1289.69 1050.59 1289.41 1053.12 1288.84C955.001 1346.36 841.089 1379.63 719.282 1379.63C597.475 1379.63 483.563 1346.36 385.44 1288.84C400.666 1291.38 418.712 1284.9 439.295 1269.67L439.013 1269.95ZM1077.09 1274.18C1089.78 1257.55 1095.14 1221.45 1068.91 1130.38C1026.34 983.197 929.625 789.49 817.686 711.951L815.995 710.823V713.079C816.84 738.455 820.224 766.087 825.299 791.182V791.746C843.063 809.791 860.826 831.502 878.59 856.597C972.201 989.4 1027.47 1164.78 1031.98 1225.12C998.141 1198.05 939.211 1123.33 887.049 1019.57C862.518 970.791 829.247 894.944 811.201 810.919C801.615 771.727 796.821 724.639 798.231 687.702C798.513 662.608 801.051 638.641 805.562 616.648C812.893 581.121 830.093 547.004 856.879 515.424L858.007 514.015H856.315C836.014 509.503 817.122 504.428 800.205 497.943H799.359L798.795 498.225C774.546 531.496 758.475 567.305 750.58 605.37C745.786 628.491 742.967 653.021 742.403 678.398C735.918 677.27 729.151 676.424 722.384 676.142H715.616H714.489C709.977 676.424 705.184 676.988 700.391 677.552C698.135 651.611 693.624 626.517 686.857 602.832C674.732 561.102 652.457 521.627 620.596 484.973C638.641 478.769 656.123 470.593 672.195 461.006C689.112 450.855 704.62 440.141 718.718 428.862L719.564 428.298C733.662 417.02 746.632 404.896 759.32 391.08L760.448 389.952C807.818 336.661 826.145 275.194 811.201 221.057C798.513 175.098 762.704 144.364 722.102 144.364H715.898C675.296 144.364 639.487 175.098 626.799 221.057C611.855 275.194 630.464 336.943 677.834 390.234C667.401 398.129 655.841 406.024 643.716 413.355C622.851 425.761 599.731 434.784 574.918 440.141C509.221 384.313 418.43 338.635 325.383 314.95C264.761 299.442 223.031 298.033 200.756 310.157C321.717 156.77 508.939 58.0839 719 58.0839C929.061 58.0839 1116.85 157.052 1238.09 310.721C1198.9 288.728 1102.47 314.668 1072.3 323.691C1033.1 335.533 933.572 370.215 854.623 438.167C832.912 432.81 812.893 424.351 794.566 413.355C788.08 409.407 781.877 405.46 775.956 401.512L775.11 400.948L774.546 401.512C761.858 415.61 748.888 427.735 735.072 439.295L733.944 440.141L735.072 440.987C745.222 448.318 755.373 454.803 765.806 461.288C778.776 468.901 792.592 475.95 807.254 481.589C827.555 489.202 850.394 494.841 874.924 499.071L876.052 499.353C891.56 501.608 907.35 502.454 923.14 502.454C1067.79 502.454 1208.77 418.712 1244.01 373.88C1256.98 357.244 1258.11 343.71 1255.85 333.56C1333.96 442.115 1380.2 575.2 1380.2 719C1380.2 951.618 1259.24 1156.32 1077.37 1274.18H1077.09ZM1179.44 358.372C1151.81 379.801 1101.62 408.279 1040.15 427.171C1004.63 438.167 969.945 444.37 937.52 446.062C947.67 439.295 958.667 432.81 969.663 426.889C1054.25 380.647 1139.4 362.32 1179.44 358.372Z" fill="white" fill-opacity="0.3"/>
</svg>
